<svg xmlns="http://www.w3.org/2000/svg">

    <symbol viewBox="0 0 35 34" id="catalog">
        <rect x="1.5" y="0.998398" width="13" height="13" rx="3" stroke-width="2"/>
        <rect x="20.5" y="0.998398" width="13" height="13" rx="3" stroke-width="2"/>
        <rect x="1.5" y="19.9984" width="13" height="13" rx="3" stroke-width="2"/>
        <rect x="20.5" y="19.9984" width="13" height="13" rx="3" stroke-width="2"/>
    </symbol>

    <symbol viewBox="0 0 18 16" id="trolley">
        <path d="M9.19341 8.6778C9.75588 8.83404 10.2777 9.09653 10.7402 9.44965L15.7869 7.76846C16.0494 7.68096 16.19 7.3966 16.1025 7.13723L14.2151 1.47494C14.1276 1.21245 13.8432 1.07183 13.5839 1.15933L11.6746 1.79681L12.7089 4.90294L10.8121 5.53104L9.77776 2.42491L7.85283 3.06551C7.59034 3.15301 7.44972 3.43737 7.53722 3.69674L9.19341 8.6778ZM17.9743 10.1996L17.6556 9.24965C17.5681 8.98716 17.2837 8.84654 17.0244 8.93404L10.3527 11.159C9.81526 10.4715 8.99029 10.0215 8.05595 10.0028L4.94981 0.684349C4.81232 0.27499 4.43108 0 3.99985 0H0.499981C0.224992 0 0 0.224992 0 0.499981V1.49994C0 1.77493 0.224992 1.99993 0.499981 1.99993H3.278L6.15914 10.6465C5.34355 11.284 4.85607 12.3214 5.03419 13.4745C5.2248 14.7057 6.21852 15.7338 7.44972 15.9494C9.3309 16.2838 10.959 14.8619 10.9933 13.0558L17.6587 10.8308C17.9181 10.7433 18.0618 10.4621 17.9743 10.1996ZM7.9997 14.4995C7.17161 14.4995 6.49976 13.8276 6.49976 12.9995C6.49976 12.1714 7.17161 11.4996 7.9997 11.4996C8.82779 11.4996 9.49964 12.1714 9.49964 12.9995C9.49964 13.8276 8.82779 14.4995 7.9997 14.4995Z" stroke="none"></path>
    </symbol>

    <symbol viewBox="0 0 10 6" id="arrow">
        <path d="M1 1L5 5L9 1" fill="none" stroke-linecap="round" stroke-linejoin="round"></path>
    </symbol>

    <symbol viewBox="0 0 20 22" id="search">
        <path fill-rule="evenodd" clip-rule="evenodd" d="M0 9.93902C0 7.70562 0.887216 5.56369 2.46647 3.98444C4.04572 2.40518 6.18765 1.51797 8.42105 1.51797C10.6545 1.51797 12.7964 2.40518 14.3756 3.98444C15.9549 5.56369 16.8421 7.70562 16.8421 9.93902C16.8421 12.1724 15.9549 14.3144 14.3756 15.8936C12.7964 17.4729 10.6545 18.3601 8.42105 18.3601C6.18765 18.3601 4.04572 17.4729 2.46647 15.8936C0.887216 14.3144 0 12.1724 0 9.93902ZM8.42105 3.62323C7.59165 3.62323 6.77037 3.78659 6.0041 4.10399C5.23784 4.42139 4.54159 4.88661 3.95511 5.47308C3.36864 6.05956 2.90342 6.75581 2.58602 7.52207C2.26863 8.28834 2.10526 9.10962 2.10526 9.93902C2.10526 10.7684 2.26863 11.5897 2.58602 12.356C2.90342 13.1222 3.36864 13.8185 3.95511 14.405C4.54159 14.9914 5.23784 15.4567 6.0041 15.774C6.77037 16.0914 7.59165 16.2548 8.42105 16.2548C10.0961 16.2548 11.7025 15.5894 12.887 14.405C14.0714 13.2205 14.7368 11.6141 14.7368 9.93902C14.7368 8.26397 14.0714 6.65752 12.887 5.47308C11.7025 4.28864 10.0961 3.62323 8.42105 3.62323Z" stroke="none"></path>
        <path fill-rule="evenodd" clip-rule="evenodd" d="M12.94 14.458C13.1374 14.2606 13.4051 14.1498 13.6842 14.1498C13.9634 14.1498 14.2311 14.2606 14.4285 14.458L19.6916 19.7211C19.8834 19.9197 19.9895 20.1856 19.9871 20.4615C19.9847 20.7375 19.874 21.0016 19.6788 21.1967C19.4836 21.3919 19.2196 21.5026 18.9436 21.505C18.6676 21.5074 18.4017 21.4013 18.2032 21.2095L12.94 15.9464C12.7427 15.749 12.6318 15.4813 12.6318 15.2022C12.6318 14.9231 12.7427 14.6554 12.94 14.458Z" stroke="none"></path>
    </symbol>

    <symbol viewBox="0 0 16 17" id="timer">
        <path fill-rule="evenodd" clip-rule="evenodd" d="M4.33377 4.13636H2.96221C4.36625 2.53009 5.90411 1.95455 7.9701 1.95455C11.5851 1.95455 14.5156 4.88505 14.5156 8.5C14.5156 12.115 11.5851 15.0455 7.9701 15.0455C4.60061 15.0455 1.82575 12.4994 1.4645 9.2261C1.42044 8.8269 1.09907 8.5 0.697412 8.5C0.295752 8.5 -0.0333185 8.8267 0.00270151 9.2267C0.369892 13.3044 3.79683 16.5 7.9701 16.5C12.3884 16.5 15.9701 12.9183 15.9701 8.5C15.9701 4.08172 12.3884 0.5 7.9701 0.5C5.63314 0.5 3.77892 1.16222 2.15196 2.86833V1.94815C2.15196 1.54649 1.82634 1.22088 1.42468 1.22088C1.02302 1.22088 0.697412 1.54649 0.697412 1.94815V5.59091H4.33377C4.73544 5.59091 5.06105 5.2653 5.06105 4.86364C5.06105 4.46198 4.73544 4.13636 4.33377 4.13636ZM10.8792 7.7727H8.6974V4.86364C8.6974 4.46198 8.3718 4.13636 7.9701 4.13636C7.5685 4.13636 7.2429 4.46197 7.2429 4.86364V9.2273H10.8792C11.2809 9.2273 11.6065 8.9017 11.6065 8.5C11.6065 8.0983 11.2809 7.7727 10.8792 7.7727Z" stroke="none"></path>
    </symbol>

    <symbol viewBox="0 0 10 11" id="close">
        <path d="M0.12218 1.21212C0.0834442 1.17338 0.0527173 1.1274 0.0317536 1.07679C0.0107899 1.02617 4.08149e-10 0.97193 0 0.917149C-4.08149e-10 0.862368 0.0107899 0.808124 0.0317536 0.757513C0.0527173 0.706902 0.0834442 0.660916 0.12218 0.62218C0.160916 0.583444 0.206902 0.552717 0.257513 0.531754C0.308124 0.51079 0.362368 0.5 0.417149 0.5C0.47193 0.5 0.526174 0.51079 0.576785 0.531754C0.627396 0.552717 0.673382 0.583444 0.712118 0.62218L5 4.9109L9.28788 0.62218C9.32662 0.583444 9.3726 0.552717 9.42321 0.531754C9.47383 0.51079 9.52807 0.5 9.58285 0.5C9.63763 0.5 9.69188 0.51079 9.74249 0.531754C9.7931 0.552717 9.83908 0.583444 9.87782 0.62218C9.91656 0.660916 9.94728 0.706902 9.96825 0.757513C9.98921 0.808124 10 0.862368 10 0.917149C10 0.97193 9.98921 1.02617 9.96825 1.07679C9.94728 1.1274 9.91656 1.17338 9.87782 1.21212L5.5891 5.5L9.87782 9.78788C9.91656 9.82662 9.94728 9.8726 9.96825 9.92321C9.98921 9.97383 10 10.0281 10 10.0829C10 10.1376 9.98921 10.1919 9.96825 10.2425C9.94728 10.2931 9.91656 10.3391 9.87782 10.3778C9.83908 10.4166 9.7931 10.4473 9.74249 10.4682C9.69188 10.4892 9.63763 10.5 9.58285 10.5C9.52807 10.5 9.47383 10.4892 9.42321 10.4682C9.3726 10.4473 9.32662 10.4166 9.28788 10.3778L5 6.0891L0.712118 10.3778C0.673382 10.4166 0.627396 10.4473 0.576785 10.4682C0.526174 10.4892 0.47193 10.5 0.417149 10.5C0.362368 10.5 0.308124 10.4892 0.257513 10.4682C0.206902 10.4473 0.160916 10.4166 0.12218 10.3778C0.0834442 10.3391 0.0527173 10.2931 0.0317536 10.2425C0.0107899 10.1919 0 10.1376 0 10.0829C0 10.0281 0.0107899 9.97383 0.0317536 9.92321C0.0527173 9.8726 0.0834442 9.82662 0.12218 9.78788L4.4109 5.5L0.12218 1.21212Z" stroke="none"></path>
    </symbol>

    <symbol viewBox="0 0 3 8" id="info">
        <path d="M2.38749 3.00629L0.665078 3.22216L0.603403 3.50797L0.941867 3.5704C1.163 3.62305 1.20662 3.70278 1.15848 3.92316L0.603403 6.53159C0.457487 7.20626 0.682378 7.52367 1.21114 7.52367C1.62105 7.52367 2.09716 7.33413 2.31303 7.07389L2.37921 6.761C2.22879 6.89337 2.00916 6.94602 1.86324 6.94602C1.6564 6.94602 1.58119 6.80086 1.63459 6.54513L2.38749 3.00629ZM2.44014 1.43581C2.44014 1.6353 2.36089 1.82661 2.21984 1.96766C2.07879 2.10871 1.88748 2.18796 1.68799 2.18796C1.48851 2.18796 1.2972 2.10871 1.15615 1.96766C1.01509 1.82661 0.93585 1.6353 0.93585 1.43581C0.93585 1.23633 1.01509 1.04502 1.15615 0.903968C1.2972 0.762914 1.48851 0.68367 1.68799 0.68367C1.88748 0.68367 2.07879 0.762914 2.21984 0.903968C2.36089 1.04502 2.44014 1.23633 2.44014 1.43581Z" stroke="none"></path>
    </symbol>

    <symbol viewBox="0 0 18 18" id="phone">
        <path d="M4.11115 1.49428C4.04474 1.40886 3.96091 1.33854 3.86524 1.28799C3.76956 1.23745 3.66422 1.20785 3.55623 1.20114C3.44823 1.19444 3.34004 1.21079 3.23885 1.24911C3.13766 1.28744 3.04578 1.34685 2.96931 1.42341L1.8061 2.58775C1.26274 3.13223 1.0625 3.90283 1.29986 4.57894C2.28615 7.37685 3.88858 9.91735 5.98872 12.0127C8.08407 14.1128 10.6246 15.7153 13.4225 16.7016C14.0986 16.9389 14.8692 16.7387 15.4137 16.1953L16.5769 15.0321C16.6534 14.9556 16.7129 14.8638 16.7512 14.7626C16.7895 14.6614 16.8059 14.5532 16.7992 14.4452C16.7924 14.3372 16.7628 14.2319 16.7123 14.1362C16.6618 14.0405 16.5914 13.9567 16.506 13.8903L13.9107 11.8721C13.8194 11.8014 13.7132 11.7524 13.6002 11.7286C13.4872 11.7049 13.3703 11.707 13.2582 11.7348L10.7946 12.3502C10.4657 12.4318 10.1213 12.4272 9.79475 12.3367C9.46818 12.2463 9.1705 12.0731 8.9305 11.8338L6.16759 9.0698C5.92817 8.82991 5.75474 8.53228 5.66408 8.20571C5.57343 7.87914 5.56861 7.5347 5.6501 7.20573L6.26658 4.74206C6.29444 4.62999 6.29656 4.51308 6.27279 4.40008C6.24902 4.28708 6.19998 4.18092 6.12934 4.08958L4.11115 1.49428ZM2.11996 0.575189C2.31683 0.378263 2.55333 0.225471 2.81377 0.126959C3.07422 0.0284471 3.35264 -0.0135314 3.63055 0.00381142C3.90846 0.0211542 4.1795 0.0974213 4.42567 0.227549C4.67184 0.357676 4.88752 0.538685 5.05837 0.758558L7.07656 3.35273C7.44667 3.82859 7.57717 4.44844 7.43092 5.03342L6.81557 7.4971C6.78397 7.62471 6.7858 7.75832 6.82088 7.88502C6.85595 8.01172 6.92309 8.12725 7.01581 8.22045L9.77985 10.9845C9.87316 11.0774 9.98888 11.1446 10.1158 11.1797C10.2427 11.2148 10.3765 11.2165 10.5043 11.1847L12.9669 10.5694C13.2556 10.4976 13.5568 10.4922 13.8479 10.5536C14.139 10.615 14.4124 10.7415 14.6476 10.9237L17.2417 12.9419C18.1743 13.6675 18.2598 15.0456 17.4251 15.8792L16.2619 17.0424C15.4294 17.8749 14.1852 18.2405 13.0254 17.8321C10.0562 16.7888 7.36066 15.0892 5.13937 12.8598C2.91011 10.6388 1.21049 7.94367 0.167025 4.97493C-0.240213 3.81621 0.125401 2.57088 0.957875 1.7384L2.11996 0.575189Z" stroke="none"></path>
    </symbol>

    <symbol viewBox="0 0 16 16" id="mail">
        <path d="M0 4a2 2 0 0 1 2-2h12a2 2 0 0 1 2 2v8a2 2 0 0 1-2 2H2a2 2 0 0 1-2-2zm2-1a1 1 0 0 0-1 1v.217l7 4.2 7-4.2V4a1 1 0 0 0-1-1zm13 2.383-4.708 2.825L15 11.105zm-.034 6.876-5.64-3.471L8 9.583l-1.326-.795-5.64 3.47A1 1 0 0 0 2 13h12a1 1 0 0 0 .966-.741M1 11.105l4.708-2.897L1 5.383z" stroke="none"></path>
    </symbol>

    <symbol viewBox="0 0 16 16" id="copy">
        <path fill-rule="evenodd" d="M4 2a2 2 0 0 1 2-2h8a2 2 0 0 1 2 2v8a2 2 0 0 1-2 2H6a2 2 0 0 1-2-2zm2-1a1 1 0 0 0-1 1v8a1 1 0 0 0 1 1h8a1 1 0 0 0 1-1V2a1 1 0 0 0-1-1zM2 5a1 1 0 0 0-1 1v8a1 1 0 0 0 1 1h8a1 1 0 0 0 1-1v-1h1v1a2 2 0 0 1-2 2H2a2 2 0 0 1-2-2V6a2 2 0 0 1 2-2h1v1z" stroke="none"></path>
    </symbol>

    <symbol viewBox="0 0 15 18" id="remove">
        <path d="M15.0001 3.12169C15.0002 3.2146 14.985 3.3069 14.9552 3.3949L12.9104 15.664C12.8158 16.2313 12.5229 16.7466 12.084 17.1182C11.645 17.4897 11.0885 17.6935 10.5134 17.6931H4.91428C4.33939 17.6932 3.78312 17.4893 3.34443 17.1178C2.90573 16.7462 2.61307 16.2311 2.5185 15.664L0.47364 3.3949C0.443831 3.3069 0.428654 3.2146 0.428711 3.12169C0.428711 1.7799 3.69028 0.693115 7.71443 0.693115C11.7386 0.693115 15.0001 1.7799 15.0001 3.12169ZM1.90407 4.58733L3.717 15.4637C3.76414 15.7472 3.91032 16.0048 4.12956 16.1907C4.34879 16.3766 4.62685 16.4787 4.91428 16.4788H10.5146C10.802 16.4787 11.0801 16.3766 11.2993 16.1907C11.5185 16.0048 11.6647 15.7472 11.7119 15.4637L13.5248 4.58733C12.1951 5.17262 10.0871 5.55026 7.71443 5.55026C5.34171 5.55026 3.23371 5.17262 1.90407 4.58733Z" stroke="none"></path>
    </symbol>

    <symbol viewBox="0 0 16 16" id="user">
          <path d="M11 5a3 3 0 1 1-6 0 3 3 0 0 1 6 0M8 7a2 2 0 1 0 0-4 2 2 0 0 0 0 4m0 5.996V14H3s-1 0-1-1 1-4 6-4q.845.002 1.544.107a4.5 4.5 0 0 0-.803.918A11 11 0 0 0 8 10c-2.29 0-3.516.68-4.168 1.332-.678.678-.83 1.418-.832 1.664zM9 13a1 1 0 0 1 1-1v-1a2 2 0 1 1 4 0v1a1 1 0 0 1 1 1v2a1 1 0 0 1-1 1h-4a1 1 0 0 1-1-1zm3-3a1 1 0 0 0-1 1v1h2v-1a1 1 0 0 0-1-1" stroke="none"></path>
    </symbol>

    <symbol viewBox="0 0 16 16" id="user-auth">
            <path d="M11 5a3 3 0 1 1-6 0 3 3 0 0 1 6 0M8 7a2 2 0 1 0 0-4 2 2 0 0 0 0 4m.256 7a4.5 4.5 0 0 1-.229-1.004H3c.001-.246.154-.986.832-1.664C4.484 10.68 5.711 10 8 10q.39 0 .74.025c.226-.341.496-.65.804-.918Q8.844 9.002 8 9c-5 0-6 3-6 4s1 1 1 1zm3.63-4.54c.18-.613 1.048-.613 1.229 0l.043.148a.64.64 0 0 0 .921.382l.136-.074c.561-.306 1.175.308.87.869l-.075.136a.64.64 0 0 0 .382.92l.149.045c.612.18.612 1.048 0 1.229l-.15.043a.64.64 0 0 0-.38.921l.074.136c.305.561-.309 1.175-.87.87l-.136-.075a.64.64 0 0 0-.92.382l-.045.149c-.18.612-1.048.612-1.229 0l-.043-.15a.64.64 0 0 0-.921-.38l-.136.074c-.561.305-1.175-.309-.87-.87l.075-.136a.64.64 0 0 0-.382-.92l-.148-.045c-.613-.18-.613-1.048 0-1.229l.148-.043a.64.64 0 0 0 .382-.921l-.074-.136c-.306-.561.308-1.175.869-.87l.136.075a.64.64 0 0 0 .92-.382zM14 12.5a1.5 1.5 0 1 0-3 0 1.5 1.5 0 0 0 3 0" stroke="none"></path>
    </symbol>

    <symbol viewBox="0 0 16 16" id="wishlist">
        <path d="m8 2.748-.717-.737C5.6.281 2.514.878 1.4 3.053c-.523 1.023-.641 2.5.314 4.385.92 1.815 2.834 3.989 6.286 6.357 3.452-2.368 5.365-4.542 6.286-6.357.955-1.886.838-3.362.314-4.385C13.486.878 10.4.28 8.717 2.01zM8 15C-7.333 4.868 3.279-3.04 7.824 1.143q.09.083.176.171a3 3 0 0 1 .176-.17C12.72-3.042 23.333 4.867 8 15" stroke="none"></path>
    </symbol>

    <symbol viewBox="0 0 16 16" id="wishlist-active">
        <path fill-rule="evenodd" d="M8 1.314C12.438-3.248 23.534 4.735 8 15-7.534 4.736 3.562-3.248 8 1.314" stroke="none"></path>
    </symbol>

    <symbol viewBox="0 0 26 25" id="cart">
        <path d="M0 1.23163C0 1.00178 0.0913101 0.781336 0.253843 0.618803C0.416376 0.45627 0.636818 0.36496 0.866675 0.36496H3.4667C3.66002 0.365013 3.84778 0.429701 4.0001 0.548738C4.15243 0.667774 4.26059 0.834323 4.30737 1.0219L5.00938 3.83166H25.1336C25.2652 3.83169 25.3951 3.86172 25.5134 3.91946C25.6317 3.97719 25.7353 4.06112 25.8164 4.16488C25.8974 4.26863 25.9537 4.38948 25.9811 4.51825C26.0084 4.64702 26.0061 4.78033 25.9742 4.90807L23.3742 15.3082C23.3274 15.4957 23.2193 15.6623 23.0669 15.7813C22.9146 15.9004 22.7269 15.965 22.5335 15.9651H6.9334C6.74007 15.965 6.55232 15.9004 6.39999 15.7813C6.24766 15.6623 6.13951 15.4957 6.09272 15.3082L2.79069 2.09831H0.866675C0.636818 2.09831 0.416376 2.007 0.253843 1.84447C0.0913101 1.68193 0 1.46149 0 1.23163ZM5.44272 5.56501L7.6094 14.2318H21.8575L24.0242 5.56501H5.44272ZM8.66675 19.4318C8.20703 19.4318 7.76615 19.6144 7.44108 19.9395C7.11602 20.2646 6.9334 20.7054 6.9334 21.1652C6.9334 21.6249 7.11602 22.0657 7.44108 22.3908C7.76615 22.7159 8.20703 22.8985 8.66675 22.8985C9.12646 22.8985 9.56734 22.7159 9.89241 22.3908C10.2175 22.0657 10.4001 21.6249 10.4001 21.1652C10.4001 20.7054 10.2175 20.2646 9.89241 19.9395C9.56734 19.6144 9.12646 19.4318 8.66675 19.4318ZM5.20005 21.1652C5.20005 20.2457 5.56529 19.364 6.21542 18.7138C6.86555 18.0637 7.74732 17.6985 8.66675 17.6985C9.58617 17.6985 10.4679 18.0637 11.1181 18.7138C11.7682 19.364 12.1334 20.2457 12.1334 21.1652C12.1334 22.0846 11.7682 22.9663 11.1181 23.6165C10.4679 24.2666 9.58617 24.6318 8.66675 24.6318C7.74732 24.6318 6.86555 24.2666 6.21542 23.6165C5.56529 22.9663 5.20005 22.0846 5.20005 21.1652ZM20.8002 19.4318C20.3405 19.4318 19.8996 19.6144 19.5745 19.9395C19.2495 20.2646 19.0668 20.7054 19.0668 21.1652C19.0668 21.6249 19.2495 22.0657 19.5745 22.3908C19.8996 22.7159 20.3405 22.8985 20.8002 22.8985C21.2599 22.8985 21.7008 22.7159 22.0259 22.3908C22.3509 22.0657 22.5335 21.6249 22.5335 21.1652C22.5335 20.7054 22.3509 20.2646 22.0259 19.9395C21.7008 19.6144 21.2599 19.4318 20.8002 19.4318ZM17.3335 21.1652C17.3335 20.2457 17.6987 19.364 18.3489 18.7138C18.999 18.0637 19.8808 17.6985 20.8002 17.6985C21.7196 17.6985 22.6014 18.0637 23.2515 18.7138C23.9016 19.364 24.2669 20.2457 24.2669 21.1652C24.2669 22.0846 23.9016 22.9663 23.2515 23.6165C22.6014 24.2666 21.7196 24.6318 20.8002 24.6318C19.8808 24.6318 18.999 24.2666 18.3489 23.6165C17.6987 22.9663 17.3335 22.0846 17.3335 21.1652Z" stroke="none"></path>
    </symbol>

    <symbol viewBox="0 0 17 17" id="star">
        <path d="M7.23988 1.27637L5.26014 5.29043L0.83072 5.9362C0.0363957 6.05141 -0.28194 7.03067 0.294096 7.59155L3.49868 10.7143L2.74073 15.1255C2.60431 15.9229 3.44411 16.5201 4.14748 16.1472L8.11 14.0644L12.0725 16.1472C12.7759 16.5171 13.6157 15.9229 13.4793 15.1255L12.7213 10.7143L15.9259 7.59155C16.5019 7.03067 16.1836 6.05141 15.3893 5.9362L10.9599 5.29043L8.98012 1.27637C8.6254 0.56087 7.59763 0.551774 7.23988 1.27637Z" stroke="none"></path>
    </symbol>

     <!-- Marketplace -->
    <symbol viewBox="0 0 28 28" id="ozon">
        <path d="M5.83333 0H22.1667C25.3882 0 28 2.61178 28 5.83333V22.1667C28 25.3882 25.3882 28 22.1667 28H5.83333C2.61178 28 0 25.3882 0 22.1667V5.83333C0 2.61178 2.61178 0 5.83333 0Z" fill="#2962FF" stroke="none"></path>
        <path d="M12.0548 15.6233H10.0536L12.6086 12.243C12.6646 12.1692 12.6491 12.0603 12.5744 12.005C12.5464 11.9833 12.5091 11.9708 12.4725 11.9708H8.7765C8.45139 11.9708 8.18617 12.2368 8.18617 12.5612C8.18617 12.8855 8.45217 13.1515 8.7765 13.1515H10.4371L7.8735 16.5348C7.81439 16.6087 7.82995 16.7145 7.90461 16.7728C7.93572 16.7977 7.97228 16.8102 8.00961 16.807H12.0517C12.3768 16.7915 12.6273 16.513 12.6117 16.1856C12.5962 15.8823 12.3551 15.6412 12.0517 15.6256V15.6225L12.0548 15.6233ZM24.9698 11.9708C24.6447 11.9708 24.3795 12.2368 24.3795 12.5612V14.5437L21.1875 12.0105C21.1167 11.9514 21.0078 11.9607 20.9495 12.0354C20.9246 12.0665 20.9122 12.103 20.9122 12.1435V16.2167C20.9122 16.5418 21.1782 16.807 21.5025 16.807C21.8268 16.807 22.0928 16.5442 22.0928 16.2167V14.2342L25.2848 16.7705C25.3587 16.8296 25.4676 16.8172 25.5259 16.7425C25.5508 16.7114 25.5633 16.6748 25.5633 16.6375V12.5612C25.5609 12.2337 25.2981 11.9708 24.9698 11.9708ZM16.5239 15.7345C15.1722 15.7345 14.1642 15.0228 14.1642 14.3858C14.1642 13.7488 15.1753 13.0372 16.5239 13.0372C17.8757 13.0372 18.8837 13.7488 18.8837 14.3858C18.8837 15.0228 17.8781 15.7345 16.5239 15.7345ZM16.5239 11.8557C14.5694 11.8557 12.9827 12.9874 12.9827 14.3858C12.9827 15.7843 14.5694 16.9159 16.5239 16.9159C18.4785 16.9159 20.0652 15.7843 20.0652 14.3858C20.0652 12.9874 18.4785 11.8557 16.5239 11.8557ZM4.89772 15.7376C4.15261 15.7376 3.54595 15.1348 3.54595 14.3889C3.54595 13.643 4.14872 13.0372 4.89461 13.0372C5.6405 13.0372 6.24639 13.6399 6.24639 14.3858V14.3889C6.24639 15.1317 5.64361 15.7345 4.89772 15.7376ZM4.89772 11.8557C3.50006 11.8557 2.36761 12.9874 2.3645 14.3858C2.3645 15.7835 3.49617 16.9159 4.89461 16.919C6.29228 16.919 7.42473 15.7874 7.42784 14.3889V14.3858C7.42473 12.9882 6.29306 11.8557 4.89772 11.8557Z" fill="white" stroke="none"></path>
    </symbol>

    <symbol viewBox="0 0 48 48" id="wb">
        <path d="M0 12C0 5.37258 5.37258 0 12 0H36C42.6274 0 48 5.37258 48 12V36C48 42.6274 42.6274 48 36 48H12C5.37258 48 0 42.6274 0 36V12Z" fill="#D02BD9" stroke="none"></path>
        <path d="M13.85 32.5H10.6958L6 16H8.86965L12.3559 28.8936L16.1268 16H18.6407L22.3878 28.8936L25.8741 16H28.7437L24.0479 32.5H20.8937L17.3837 20.455L13.85 32.5ZM39.6758 23.9436C41.1225 24.6979 42 26.065 42 27.7857C42 29.1293 41.5257 30.2607 40.5533 31.1564C39.581 32.0521 38.4189 32.5 37.0196 32.5H29.9048V16H36.4979C37.8497 16 39.0118 16.4479 39.9367 17.32C40.8853 18.1921 41.3597 19.2764 41.3597 20.5729C41.3597 22.0107 40.7905 23.1186 39.6758 23.9436ZM36.4979 18.5457H32.6321V22.8829H36.4979C37.7074 22.8829 38.6323 21.94 38.6323 20.7143C38.6323 19.4886 37.7074 18.5457 36.4979 18.5457ZM32.6321 29.9543H37.0196C38.2766 29.9543 39.2727 28.9407 39.2727 27.6443C39.2727 26.3479 38.2766 25.3343 37.0196 25.3343H32.6321V29.9543Z" fill="white" stroke="none"></path>
    </symbol>

    <symbol viewBox="0 0 12 17" id="yandex">
        <path d="M7.19524 10.3673L3.03333 16.4985H0L4.57143 9.94229C2.42381 9.22666 0.990476 7.92979 0.990476 5.53291C0.985714 2.17666 4.22857 0.498535 8.08095 0.498535H12V16.4985H9.37619V10.3673H7.19524ZM9.37619 1.95166H7.97619C5.8619 1.95166 3.81429 2.87041 3.81429 5.53291C3.81429 8.10479 5.69048 8.93291 7.97619 8.93291H9.37619V1.95166Z" stroke="none"></path>
    </symbol>

    <symbol viewBox="0 0 23 14" id="vk">
        <path d="M21.9986 1.35011C22.1497 0.839603 21.9986 0.463867 21.2716 0.463867H18.8661C18.2535 0.463867 17.9717 0.78651 17.8206 1.14591C17.8206 1.14591 16.5954 4.13137 14.8637 6.06723C14.3042 6.62675 14.0469 6.80645 13.7406 6.80645C13.5895 6.80645 13.3567 6.62675 13.3567 6.11624V1.35011C13.3567 0.737501 13.1852 0.463867 12.6787 0.463867H8.89687C8.51297 0.463867 8.28426 0.749753 8.28426 1.01522C8.28426 1.59516 9.15009 1.72993 9.23993 3.36357V6.90855C9.23993 7.68453 9.10108 7.82747 8.79477 7.82747C7.97795 7.82747 5.99309 4.82975 4.81687 1.39912C4.58 0.733417 4.34721 0.463867 3.73051 0.463867H1.32498C0.638859 0.463867 0.5 0.78651 0.5 1.14591C0.5 1.78303 1.31682 4.94819 4.30228 9.13029C6.29123 11.9851 9.09291 13.5329 11.6414 13.5329C13.1729 13.5329 13.3608 13.1899 13.3608 12.5977C13.3608 9.86951 13.2219 9.61222 13.9897 9.61222C14.345 9.61222 14.9577 9.79192 16.3871 11.1683C18.0207 12.8019 18.2903 13.5329 19.2051 13.5329H21.6106C22.2967 13.5329 22.6439 13.1899 22.4438 12.5119C21.9864 11.0866 18.8947 8.1542 18.7558 7.95816C18.4005 7.50074 18.5026 7.29654 18.7558 6.88813C18.7599 6.88405 21.6964 2.75095 21.9986 1.35011Z" stroke="none"></path>
    </symbol>

    <symbol viewBox="0 0 21 18" id="telegram">
        <path d="M20.3783 2.18353L17.3798 16.3244C17.1536 17.3224 16.5637 17.5708 15.7253 17.1006L11.1566 13.734L8.95206 15.8542C8.7081 16.0982 8.50405 16.3022 8.03387 16.3022L8.36211 11.6492L16.8298 3.99771C17.198 3.66947 16.75 3.48761 16.2576 3.81585L5.78943 10.4072L1.28279 8.9967C0.302513 8.69064 0.28477 8.01642 1.48683 7.54624L19.1142 0.755244C19.9303 0.449183 20.6445 0.937106 20.3783 2.18353Z" stroke="none"></path>
    </symbol>

    <symbol viewBox="0 0 23 16" id="youtube">
        <path fill-rule="evenodd" clip-rule="evenodd" d="M9.28728 10.8431V4.67007C11.4787 5.70124 13.176 6.69737 15.1833 7.77134C13.5277 8.68952 11.4787 9.71975 9.28728 10.8431ZM21.5001 1.59995C21.1221 1.10192 20.4778 0.714238 19.7919 0.58589C17.7758 0.203035 5.19808 0.201946 3.18307 0.58589C2.63302 0.689004 2.14322 0.938245 1.72247 1.32549C-0.0503987 2.97098 0.505133 11.7952 0.932462 13.2246C1.11216 13.8433 1.34446 14.2895 1.63701 14.5824C2.01394 14.9697 2.53001 15.2363 3.12279 15.3559C4.7828 15.6992 13.3348 15.8912 19.7568 15.4074C20.3485 15.3043 20.8722 15.0291 21.2853 14.6254C22.9245 12.9865 22.8128 3.66669 21.5001 1.59995Z" stroke="none"></path>
    </symbol>

    <symbol viewBox="0 0 39 13" id="visa">
        <path fill-rule="evenodd" clip-rule="evenodd" d="M27.954 0.880244C27.0626 0.537583 26.115 0.364284 25.16 0.369244C22.084 0.369244 19.918 2.00924 19.905 4.35424C19.879 6.08424 21.455 7.04624 22.635 7.62224C23.84 8.21224 24.249 8.59724 24.249 9.12224C24.237 9.92924 23.276 10.3022 22.379 10.3022C21.135 10.3022 20.469 10.1092 19.456 9.66024L19.046 9.46824L18.61 12.1722C19.34 12.5052 20.687 12.8002 22.084 12.8132C25.352 12.8132 27.48 11.1982 27.506 8.69924C27.518 7.32824 26.686 6.27724 24.891 5.41924C23.801 4.86724 23.134 4.49624 23.134 3.93224C23.147 3.41924 23.699 2.89424 24.928 2.89424C25.7262 2.87094 26.5193 3.02854 27.248 3.35524L27.53 3.48324L27.954 0.882244V0.880244ZM16.662 12.6342H13.548L15.495 0.586244H18.609L16.661 12.6332L16.662 12.6342ZM33.337 4.99624L32.094 8.36624H34.683C34.555 7.76424 33.965 4.88024 33.965 4.88024L33.747 3.84224C33.656 4.10924 33.523 4.47624 33.434 4.72424C33.374 4.89324 33.331 5.00624 33.337 4.99624ZM33.53 0.586244H35.94L38.453 12.6332H35.569C35.569 12.6332 35.286 11.2492 35.197 10.8262H31.197L30.544 12.6332H27.276L31.903 1.58624C32.223 0.804244 32.787 0.586244 33.53 0.586244ZM10.947 0.586244L7.897 8.80124L7.563 7.13524L6.473 1.59924C6.294 0.829244 5.743 0.612244 5.063 0.586244H0.053L0 0.830244C1.222 1.14224 2.316 1.59324 3.273 2.15324L6.05 12.6202H9.344L14.24 0.586244H10.947Z" fill="#1A1F71" stroke="none"></path>
    </symbol>

    <symbol viewBox="0 0 22 14" id="mastercard">
        <path d="M14.3688 1.78711H7.98779V12.2091H14.3688V1.78711Z" fill="#FF5F00" stroke="none"></path>
        <path d="M8.64484 6.99907C8.64416 5.9955 8.87177 5.00491 9.31043 4.10228C9.7491 3.19966 10.3873 2.40863 11.1768 1.78907C10.1991 1.02055 9.0248 0.54262 7.78825 0.409916C6.5517 0.277211 5.30276 0.495084 4.18418 1.03863C3.0656 1.58218 2.12251 2.42947 1.46271 3.48367C0.802901 4.53786 0.453003 5.75642 0.453003 7.00007C0.453003 8.24372 0.802901 9.46229 1.46271 10.5165C2.12251 11.5707 3.0656 12.418 4.18418 12.9615C5.30276 13.5051 6.5517 13.7229 7.78825 13.5902C9.0248 13.4575 10.1991 12.9796 11.1768 12.2111C10.3871 11.5913 9.74877 10.7999 9.31009 9.89692C8.87142 8.99393 8.64393 8.00298 8.64484 6.99907Z" fill="#EB001B" stroke="none"></path>
        <path d="M21.2688 11.107V10.893H21.3608V10.849H21.1408V10.893H21.2278V11.107H21.2688ZM21.6938 11.107V10.849H21.6278L21.5498 11.033L21.4728 10.849H21.4068V11.107H21.4548V10.911L21.5258 11.079H21.5758L21.6478 10.911V11.107H21.6938ZM21.9018 6.999C21.9017 8.24277 21.5518 9.46144 20.8918 10.5157C20.2319 11.5699 19.2886 12.4172 18.1699 12.9607C17.0511 13.5042 15.802 13.7219 14.5654 13.589C13.3287 13.456 12.1544 12.9778 11.1768 12.209C11.9657 11.5886 12.6034 10.7972 13.0419 9.89442C13.4805 8.99167 13.7083 8.00113 13.7083 6.9975C13.7083 5.99387 13.4805 5.00334 13.0419 4.10058C12.6034 3.19783 11.9657 2.40641 11.1768 1.786C12.1546 1.01754 13.329 0.539658 14.5656 0.406976C15.8021 0.274294 17.0511 0.492161 18.1698 1.03568C19.2884 1.5792 20.2316 2.42645 20.8915 3.4806C21.5515 4.53476 21.9015 5.75331 21.9018 6.997V6.999Z" fill="#F79E1B" stroke="none"></path>
    </symbol>

    <symbol viewBox="0 0 46 13" id="mir">
        <path fill-rule="evenodd" clip-rule="evenodd" d="M12.9737 0.369141V0.374141C12.9687 0.374141 11.2237 0.369141 10.7587 2.00414C10.3327 3.50414 9.13073 7.64514 9.09773 7.75914H8.76373C8.76373 7.75914 7.53473 3.52614 7.10373 1.99914C6.63773 0.363141 4.88773 0.369141 4.88773 0.369141H0.901733V12.8131H4.88873V5.42314H5.22073L7.54673 12.8131H10.3157L12.6417 5.42814H12.9737V12.8131H16.9607V0.369141H12.9737ZM27.5377 0.369141C27.5377 0.369141 26.3697 0.472141 25.8207 1.67314L22.9967 7.75914H22.6647V0.369141H18.6777V12.8131H22.4427C22.4427 12.8131 23.6667 12.7051 24.2147 11.5091L26.9847 5.42314H27.3157V12.8131H31.3037V0.369141H27.5377ZM33.0757 6.02114V12.8131H37.0627V8.84614H41.3827C42.2694 8.85098 43.1361 8.5822 43.8644 8.07647C44.5928 7.57073 45.1474 6.85265 45.4527 6.02014H33.0747L33.0757 6.02114Z" fill="#4DB45E" stroke="none"></path>
        <path fill-rule="evenodd" clip-rule="evenodd" d="M41.3817 0.369141H32.5167C32.9597 2.73914 34.7697 4.64014 37.1127 5.25914C37.6447 5.40114 38.2027 5.47714 38.7797 5.47714H45.6127C45.6737 5.19414 45.7017 4.90714 45.7017 4.60714C45.7017 2.26514 43.7687 0.369141 41.3817 0.369141Z" fill="#00B4E6" stroke="none"></path>
    </symbol>

    <symbol viewBox="0 0 17 14" id="next">
        <path fill-rule="evenodd" clip-rule="evenodd" d="M0.82666 7.00003C0.82666 6.73484 0.932005 6.48052 1.11952 6.293C1.30704 6.10549 1.56136 6.00014 1.82655 6.00014H13.4113L9.11773 1.70862C8.92998 1.52086 8.8245 1.26622 8.8245 1.00069C8.8245 0.735173 8.92998 0.480526 9.11773 0.292773C9.30549 0.105021 9.56013 -0.000457764 9.82565 -0.000457764C10.0912 -0.000457764 10.3458 0.105021 10.5336 0.292773L16.5329 6.29211C16.626 6.38499 16.6999 6.49533 16.7503 6.61681C16.8007 6.73828 16.8267 6.86851 16.8267 7.00003C16.8267 7.13155 16.8007 7.26178 16.7503 7.38325C16.6999 7.50473 16.626 7.61507 16.5329 7.70795L10.5336 13.7073C10.3458 13.895 10.0912 14.0005 9.82565 14.0005C9.56013 14.0005 9.30549 13.895 9.11773 13.7073C8.92998 13.5195 8.8245 13.2649 8.8245 12.9994C8.8245 12.7338 8.92998 12.4792 9.11773 12.2914L13.4113 7.99992H1.82655C1.56136 7.99992 1.30704 7.89457 1.11952 7.70706C0.932005 7.51954 0.82666 7.26522 0.82666 7.00003Z" stroke="none"></path>
    </symbol>

    <symbol viewBox="0 0 17 14" id="prev">
        <path fill-rule="evenodd" clip-rule="evenodd" d="M16.1732 7.00003C16.1732 6.73484 16.0679 6.48052 15.8804 6.293C15.6929 6.10549 15.4385 6.00014 15.1734 6.00014H3.58865L7.88217 1.70862C8.06993 1.52086 8.17541 1.26622 8.17541 1.00069C8.17541 0.735173 8.06993 0.480526 7.88217 0.292773C7.69442 0.105021 7.43978 -0.000457764 7.17425 -0.000457764C6.90873 -0.000457764 6.65409 0.105021 6.46633 0.292773L0.467002 6.29211C0.373886 6.38499 0.30001 6.49533 0.249602 6.6168C0.199195 6.73828 0.173248 6.86851 0.173248 7.00003C0.173248 7.13155 0.199195 7.26178 0.249602 7.38325C0.30001 7.50473 0.373886 7.61507 0.467002 7.70795L6.46633 13.7073C6.65409 13.895 6.90873 14.0005 7.17425 14.0005C7.43978 14.0005 7.69442 13.895 7.88217 13.7073C8.06993 13.5195 8.17541 13.2649 8.17541 12.9994C8.17541 12.7338 8.06993 12.4792 7.88217 12.2914L3.58865 7.99992H15.1734C15.4385 7.99992 15.6929 7.89457 15.8804 7.70706C16.0679 7.51954 16.1732 7.26522 16.1732 7.00003Z" stroke="none"></path>
    </symbol>

    <symbol viewBox="0 0 16 16" id="offline">
        <path d="M5.525 3.025a3.5 3.5 0 0 1 4.95 0 .5.5 0 1 0 .707-.707 4.5 4.5 0 0 0-6.364 0 .5.5 0 0 0 .707.707"></path>
        <path d="M6.94 4.44a1.5 1.5 0 0 1 2.12 0 .5.5 0 0 0 .708-.708 2.5 2.5 0 0 0-3.536 0 .5.5 0 0 0 .707.707ZM2.5 11a.5.5 0 1 1 0-1 .5.5 0 0 1 0 1m4.5-.5a.5.5 0 1 0 1 0 .5.5 0 0 0-1 0m2.5.5a.5.5 0 1 1 0-1 .5.5 0 0 1 0 1m1.5-.5a.5.5 0 1 0 1 0 .5.5 0 0 0-1 0m2 0a.5.5 0 1 0 1 0 .5.5 0 0 0-1 0"></path>
        <path d="M2.974 2.342a.5.5 0 1 0-.948.316L3.806 8H1.5A1.5 1.5 0 0 0 0 9.5v2A1.5 1.5 0 0 0 1.5 13H2a.5.5 0 0 0 .5.5h2A.5.5 0 0 0 5 13h6a.5.5 0 0 0 .5.5h2a.5.5 0 0 0 .5-.5h.5a1.5 1.5 0 0 0 1.5-1.5v-2A1.5 1.5 0 0 0 14.5 8h-2.306l1.78-5.342a.5.5 0 1 0-.948-.316L11.14 8H4.86zM14.5 9a.5.5 0 0 1 .5.5v2a.5.5 0 0 1-.5.5h-13a.5.5 0 0 1-.5-.5v-2a.5.5 0 0 1 .5-.5z"></path>
        <path d="M8.5 5.5a.5.5 0 1 1-1 0 .5.5 0 0 1 1 0"></path>
    </symbol>

    <symbol viewBox="0 0 14 14" id="more">
        <path d="M9.79984 1.86494C10.6662 1.86494 11.4972 2.20912 12.1098 2.82175C12.7225 3.43439 13.0666 4.2653 13.0666 5.1317V9.79851C13.0666 10.6649 12.7225 11.4958 12.1098 12.1085C11.4972 12.7211 10.6662 13.0653 9.79984 13.0653H5.133C4.26659 13.0653 3.43567 12.7211 2.82303 12.1085C2.21039 11.4958 1.86621 10.6649 1.86621 9.79851V7.46511C1.86621 7.34133 1.81704 7.22263 1.72952 7.13511C1.642 7.04759 1.5233 6.99842 1.39952 6.99842C1.27575 6.99842 1.15705 7.04759 1.06953 7.13511C0.982006 7.22263 0.932838 7.34133 0.932838 7.46511V9.79851C0.932838 10.9124 1.37535 11.9808 2.16304 12.7684C2.95072 13.5561 4.01905 13.9986 5.133 13.9986H9.79984C10.9138 13.9986 11.9821 13.5561 12.7698 12.7684C13.5575 11.9808 14 10.9124 14 9.79851V5.1317C14 4.01776 13.5575 2.94944 12.7698 2.16177C11.9821 1.37409 10.9138 0.93158 9.79984 0.93158H7.46642C7.34265 0.93158 7.22394 0.980748 7.13642 1.06827C7.0489 1.15579 6.99973 1.27449 6.99973 1.39826C6.99973 1.52203 7.0489 1.64073 7.13642 1.72825C7.22394 1.81577 7.34265 1.86494 7.46642 1.86494H9.79984Z" stroke="none"></path>
        <path d="M3.76701e-05 2.79831C3.76701e-05 3.54094 0.295048 4.25315 0.820169 4.77827C1.34529 5.30339 2.05751 5.5984 2.80014 5.5984C3.54278 5.5984 4.255 5.30339 4.78012 4.77827C5.30524 4.25315 5.60025 3.54094 5.60025 2.79831C5.60025 2.05569 5.30524 1.34347 4.78012 0.818355C4.255 0.293238 3.54278 -0.00177002 2.80014 -0.00177002C2.05751 -0.00177002 1.34529 0.293238 0.820169 0.818355C0.295048 1.34347 3.76701e-05 2.05569 3.76701e-05 2.79831Z" stroke="none"></path>
    </symbol>

    <symbol viewBox="0 0 16 8" id="back">
        <path d="M4.75193 5.41787H15.4546C15.6895 5.41787 15.88 5.22742 15.88 4.99252V3.00752C15.88 2.77261 15.6895 2.58216 15.4546 2.58216H4.75193V0.949537C4.75193 0.191622 3.83561 -0.187937 3.29966 0.347976L0.249179 3.39846C-0.0830597 3.7307 -0.0830597 4.26934 0.249179 4.60154L3.29966 7.65202C3.83557 8.18793 4.75193 7.80838 4.75193 7.05046V5.41787Z" stroke="none"></path>
    </symbol>

    <symbol viewBox="0 0 8 12" id="arrow-left">
        <path fill-rule="evenodd" clip-rule="evenodd" d="M7.09541 0.133992C7.13838 0.176859 7.17248 0.227785 7.19574 0.283851C7.21901 0.339916 7.23098 0.400021 7.23098 0.460722C7.23098 0.521424 7.21901 0.581528 7.19574 0.637594C7.17248 0.69366 7.13838 0.744586 7.09541 0.787453L1.8834 5.99853L7.09541 11.2096C7.18206 11.2963 7.23074 11.4138 7.23074 11.5363C7.23074 11.6589 7.18206 11.7764 7.09541 11.8631C7.00875 11.9497 6.89122 11.9984 6.76868 11.9984C6.64613 11.9984 6.5286 11.9497 6.44194 11.8631L0.904133 6.32527C0.861156 6.2824 0.827059 6.23147 0.803794 6.17541C0.78053 6.11934 0.768555 6.05924 0.768555 5.99853C0.768555 5.93783 0.78053 5.87773 0.803794 5.82166C0.827059 5.7656 0.861156 5.71467 0.904133 5.6718L6.44194 0.133992C6.48481 0.0910151 6.53574 0.056918 6.5918 0.0336532C6.64787 0.0103885 6.70797 -0.00158691 6.76868 -0.00158691C6.82938 -0.00158691 6.88948 0.0103885 6.94555 0.0336532C7.00161 0.056918 7.05254 0.0910151 7.09541 0.133992Z" stroke="none"></path>
    </symbol>

    <symbol viewBox="0 0 8 12" id="arrow-right">
        <path fill-rule="evenodd" clip-rule="evenodd" d="M0.905508 0.586423C0.862547 0.625984 0.828463 0.672981 0.805207 0.724722C0.781951 0.776463 0.76998 0.831931 0.76998 0.887949C0.76998 0.943968 0.781951 0.999436 0.805207 1.05118C0.828463 1.10292 0.862547 1.14991 0.905508 1.18948L6.11555 5.99856L0.905508 10.8076C0.818886 10.8876 0.770222 10.9961 0.770222 11.1092C0.770222 11.2223 0.818886 11.3307 0.905508 11.4107C0.992129 11.4907 1.10961 11.5356 1.23212 11.5356C1.35462 11.5356 1.4721 11.4907 1.55872 11.4107L7.09445 6.30008C7.13741 6.26052 7.1715 6.21353 7.19475 6.16179C7.21801 6.11004 7.22998 6.05458 7.22998 5.99856C7.22998 5.94254 7.21801 5.88707 7.19475 5.83533C7.1715 5.78359 7.13741 5.73659 7.09445 5.69703L1.55872 0.586423C1.51587 0.546762 1.46497 0.515295 1.40892 0.493825C1.35288 0.472355 1.29279 0.461304 1.23212 0.461304C1.17144 0.461304 1.11136 0.472355 1.05531 0.493825C0.999266 0.515295 0.948359 0.546762 0.905508 0.586423Z" stroke="none"></path>
    </symbol>

    <symbol viewBox="0 0 18 19" id="dashboard">
        <path d="M9 9.4984C10.1935 9.4984 11.3381 9.02429 12.182 8.18038C13.0259 7.33646 13.5 6.19187 13.5 4.9984C13.5 3.80492 13.0259 2.66033 12.182 1.81642C11.3381 0.972504 10.1935 0.498398 9 0.498398C7.80653 0.498398 6.66193 0.972504 5.81802 1.81642C4.97411 2.66033 4.5 3.80492 4.5 4.9984C4.5 6.19187 4.97411 7.33646 5.81802 8.18038C6.66193 9.02429 7.80653 9.4984 9 9.4984ZM12 4.9984C12 5.79405 11.6839 6.55711 11.1213 7.11972C10.5587 7.68233 9.79565 7.9984 9 7.9984C8.20435 7.9984 7.44129 7.68233 6.87868 7.11972C6.31607 6.55711 6 5.79405 6 4.9984C6 4.20275 6.31607 3.43969 6.87868 2.87708C7.44129 2.31447 8.20435 1.9984 9 1.9984C9.79565 1.9984 10.5587 2.31447 11.1213 2.87708C11.6839 3.43969 12 4.20275 12 4.9984ZM18 16.9984C18 18.4984 16.5 18.4984 16.5 18.4984H1.5C1.5 18.4984 0 18.4984 0 16.9984C0 15.4984 1.5 10.9984 9 10.9984C16.5 10.9984 18 15.4984 18 16.9984ZM16.5 16.9924C16.4985 16.6234 16.269 15.5134 15.252 14.4964C14.274 13.5184 12.4335 12.4984 9 12.4984C5.5665 12.4984 3.726 13.5184 2.748 14.4964C1.731 15.5134 1.503 16.6234 1.5 16.9924H16.5Z" stroke="none"></path>
    </symbol>

    <symbol viewBox="0 0 20 15" id="dashboard-orders">
        <path d="M2.72988e-09 1.8707C2.72988e-09 1.37342 0.197544 0.896503 0.549175 0.544872C0.900805 0.193241 1.37772 -0.00430298 1.875 -0.00430298H13.125C13.6223 -0.00430298 14.0992 0.193241 14.4508 0.544872C14.8025 0.896503 15 1.37342 15 1.8707V3.7457H16.275C16.5559 3.74595 16.8332 3.80932 17.0863 3.93113C17.3395 4.05294 17.562 4.23008 17.7375 4.44945L19.5887 6.76195C19.8551 7.09468 20.0002 7.50823 20 7.93445V10.6207C20 11.118 19.8025 11.5949 19.4508 11.9465C19.0992 12.2982 18.6223 12.4957 18.125 12.4957H17.5C17.5 13.1587 17.2366 13.7946 16.7678 14.2635C16.2989 14.7323 15.663 14.9957 15 14.9957C14.337 14.9957 13.7011 14.7323 13.2322 14.2635C12.7634 13.7946 12.5 13.1587 12.5 12.4957H6.25C6.25072 12.8289 6.18481 13.1589 6.05615 13.4663C5.92749 13.7737 5.73868 14.0523 5.50081 14.2857C5.26294 14.519 4.98082 14.7025 4.67102 14.8253C4.36123 14.948 4.03002 15.0076 3.69687 15.0005C3.36371 14.9934 3.03533 14.9198 2.73104 14.784C2.42674 14.6482 2.15267 14.4529 1.92494 14.2096C1.6972 13.9664 1.5204 13.68 1.40492 13.3674C1.28944 13.0549 1.23762 12.7223 1.2525 12.3894C0.88631 12.2606 0.569154 12.0212 0.344805 11.7044C0.120457 11.3876 -2.09399e-05 11.0089 2.72988e-09 10.6207L2.72988e-09 1.8707ZM1.6175 11.1907C1.84374 10.821 2.16221 10.5165 2.54166 10.307C2.92111 10.0975 3.3485 9.99029 3.78189 9.99584C4.21529 10.0014 4.6398 10.1195 5.01376 10.3386C5.38772 10.5577 5.6983 10.8703 5.915 11.2457H12.835C13.0544 10.8657 13.37 10.5501 13.75 10.3307V1.8707C13.75 1.70494 13.6842 1.54597 13.5669 1.42876C13.4497 1.31155 13.2908 1.2457 13.125 1.2457H1.875C1.70924 1.2457 1.55027 1.31155 1.43306 1.42876C1.31585 1.54597 1.25 1.70494 1.25 1.8707V10.6207C1.2499 10.741 1.28452 10.8588 1.34971 10.9599C1.4149 11.061 1.50788 11.1411 1.6175 11.1907ZM15 9.9957C15.4388 9.99571 15.8699 10.1112 16.25 10.3306C16.63 10.5501 16.9456 10.8657 17.165 11.2457H18.125C18.2908 11.2457 18.4497 11.1798 18.5669 11.0626C18.6842 10.9454 18.75 10.7865 18.75 10.6207V7.9332C18.7497 7.79136 18.7013 7.65383 18.6125 7.5432L16.7625 5.2307C16.704 5.1575 16.6299 5.09837 16.5455 5.0577C16.4611 5.01702 16.3687 4.99583 16.275 4.9957H15V9.9957ZM3.75 11.2457C3.41848 11.2457 3.10054 11.3774 2.86612 11.6118C2.6317 11.8462 2.5 12.1642 2.5 12.4957C2.5 12.8272 2.6317 13.1452 2.86612 13.3796C3.10054 13.614 3.41848 13.7457 3.75 13.7457C4.08152 13.7457 4.39946 13.614 4.63388 13.3796C4.8683 13.1452 5 12.8272 5 12.4957C5 12.1642 4.8683 11.8462 4.63388 11.6118C4.39946 11.3774 4.08152 11.2457 3.75 11.2457ZM15 11.2457C14.6685 11.2457 14.3505 11.3774 14.1161 11.6118C13.8817 11.8462 13.75 12.1642 13.75 12.4957C13.75 12.8272 13.8817 13.1452 14.1161 13.3796C14.3505 13.614 14.6685 13.7457 15 13.7457C15.3315 13.7457 15.6495 13.614 15.8839 13.3796C16.1183 13.1452 16.25 12.8272 16.25 12.4957C16.25 12.1642 16.1183 11.8462 15.8839 11.6118C15.6495 11.3774 15.3315 11.2457 15 11.2457Z" stroke="none"></path>
    </symbol>
 
    <symbol viewBox="0 0 20 13" id="dashboard-balance">
        <path d="M4.6 4.24842V8.74842M15.4 4.24842V8.74842M2 1.09842H18C18.5523 1.09842 19 1.58195 19 2.17842V10.8184C19 11.4148 18.5523 11.8984 18 11.8984H2C1.44771 11.8984 1 11.4148 1 10.8184V2.17842C1 1.58195 1.44771 1.09842 2 1.09842ZM12.25 6.49842C12.25 7.74105 11.2426 8.74842 10 8.74842C8.75737 8.74842 7.75 7.74105 7.75 6.49842C7.75 5.25579 8.75737 4.24842 10 4.24842C11.2426 4.24842 12.25 5.25579 12.25 6.49842Z" fill="none" stroke-width="1.2" stroke-linecap="round" stroke-linejoin="round"></path>
    </symbol>

    <symbol viewBox="0 0 18 17" id="dashboard-wishlist">
          <path d="m8 2.748-.717-.737C5.6.281 2.514.878 1.4 3.053c-.523 1.023-.641 2.5.314 4.385.92 1.815 2.834 3.989 6.286 6.357 3.452-2.368 5.365-4.542 6.286-6.357.955-1.886.838-3.362.314-4.385C13.486.878 10.4.28 8.717 2.01zM8 15C-7.333 4.868 3.279-3.04 7.824 1.143q.09.083.176.171a3 3 0 0 1 .176-.17C12.72-3.042 23.333 4.867 8 15" stroke="none"></path>
    </symbol>

    <symbol viewBox="0 0 18 19" id="dashboard-setting">
        <path d="M11.0199 2.00927C10.4271 -0.00447512 7.57181 -0.00447512 6.97894 2.00927L6.87319 2.36815C6.83178 2.50872 6.75945 2.63825 6.66148 2.74723C6.56352 2.85621 6.4424 2.94189 6.30702 2.99798C6.17164 3.05408 6.02542 3.07917 5.87909 3.07141C5.73275 3.06365 5.59 3.02324 5.46131 2.95315L5.13281 2.77315C3.28781 1.76965 1.27069 3.7879 2.27531 5.63177L2.45419 5.96027C2.52428 6.08897 2.56469 6.23171 2.57244 6.37805C2.5802 6.52438 2.55512 6.6706 2.49902 6.80598C2.44293 6.94136 2.35725 7.06248 2.24827 7.16044C2.13928 7.25841 2.00976 7.33075 1.86919 7.37215L1.51031 7.4779C-0.503438 8.07077 -0.503438 10.926 1.51031 11.5189L1.86919 11.6247C2.00976 11.6661 2.13928 11.7384 2.24827 11.8364C2.35725 11.9343 2.44293 12.0554 2.49902 12.1908C2.55512 12.3262 2.5802 12.4724 2.57244 12.6188C2.56469 12.7651 2.52428 12.9078 2.45419 13.0365L2.27419 13.365C1.27069 15.21 3.28781 17.2283 5.13281 16.2225L5.46131 16.0436C5.59 15.9736 5.73275 15.9332 5.87909 15.9254C6.02542 15.9176 6.17164 15.9427 6.30702 15.9988C6.4424 16.0549 6.56352 16.1406 6.66148 16.2496C6.75945 16.3586 6.83178 16.4881 6.87319 16.6287L6.97894 16.9875C7.57181 19.0013 10.4271 19.0013 11.0199 16.9875L11.1257 16.6287C11.1671 16.4881 11.2394 16.3586 11.3374 16.2496C11.4354 16.1406 11.5565 16.0549 11.6919 15.9988C11.8272 15.9427 11.9735 15.9176 12.1198 15.9254C12.2661 15.9332 12.4089 15.9736 12.5376 16.0436L12.8661 16.2236C14.7111 17.2283 16.7293 15.2089 15.7236 13.365L15.5447 13.0365C15.4746 12.9078 15.4342 12.7651 15.4264 12.6188C15.4187 12.4724 15.4438 12.3262 15.4999 12.1908C15.5559 12.0554 15.6416 11.9343 15.7506 11.8364C15.8596 11.7384 15.9891 11.6661 16.1297 11.6247L16.4886 11.5189C18.5023 10.926 18.5023 8.07077 16.4886 7.4779L16.1297 7.37215C15.9891 7.33075 15.8596 7.25841 15.7506 7.16044C15.6416 7.06248 15.5559 6.94136 15.4999 6.80598C15.4438 6.6706 15.4187 6.52438 15.4264 6.37805C15.4342 6.23171 15.4746 6.08897 15.5447 5.96027L15.7247 5.63177C16.7293 3.78677 14.7099 1.76965 12.8661 2.77427L12.5376 2.95315C12.4089 3.02324 12.2661 3.06365 12.1198 3.07141C11.9735 3.07917 11.8272 3.05408 11.6919 2.99798C11.5565 2.94189 11.4354 2.85621 11.3374 2.74723C11.2394 2.63825 11.1671 2.50872 11.1257 2.36815L11.0199 2.00927ZM8.05781 2.32765C8.33456 1.38827 9.66431 1.38827 9.94106 2.32765L10.0468 2.68652C10.1357 2.98812 10.291 3.266 10.5012 3.49979C10.7115 3.73357 10.9714 3.91735 11.2619 4.03763C11.5524 4.15791 11.8662 4.21165 12.1801 4.19491C12.4941 4.17818 12.8004 4.09138 13.0764 3.9409L13.4038 3.7609C14.2633 3.29402 15.2038 4.2334 14.7358 5.09402L14.5569 5.42252C14.4067 5.69863 14.3201 6.00486 14.3035 6.31876C14.287 6.63267 14.3409 6.9463 14.4613 7.23668C14.5816 7.52706 14.7655 7.78683 14.9993 7.99695C15.2331 8.20707 15.5109 8.36222 15.8124 8.45102L16.1702 8.55678C17.1096 8.83352 17.1096 10.1633 16.1702 10.44L15.8113 10.5458C15.5097 10.6347 15.2318 10.7899 14.9981 11.0002C14.7643 11.2104 14.5805 11.4704 14.4602 11.7609C14.3399 12.0514 14.2862 12.3651 14.3029 12.6791C14.3197 12.9931 14.4065 13.2993 14.5569 13.5754L14.7369 13.9028C15.2038 14.7623 14.2644 15.7028 13.4038 15.2348L13.0764 15.0559C12.8003 14.9054 12.494 14.8187 12.1799 14.802C11.8659 14.7853 11.5521 14.8392 11.2616 14.9596C10.971 15.08 10.7112 15.2639 10.501 15.4978C10.2908 15.7317 10.1356 16.0097 10.0468 16.3114L9.94106 16.6691C9.66431 17.6085 8.33456 17.6085 8.05781 16.6691L7.95206 16.3103C7.86313 16.0088 7.70788 15.7311 7.49771 15.4974C7.28754 15.2638 7.02775 15.0801 6.73739 14.9598C6.44702 14.8395 6.13343 14.7858 5.81959 14.8024C5.50574 14.819 5.19959 14.9056 4.92356 15.0559L4.59506 15.2359C3.73556 15.7028 2.79506 14.7634 3.26306 13.9028L3.44194 13.5754C3.59263 13.2993 3.67959 12.9929 3.69644 12.6788C3.71329 12.3647 3.6596 12.0508 3.5393 11.7601C3.419 11.4695 3.23516 11.2095 3.00125 10.9991C2.76735 10.7888 2.48932 10.6335 2.18756 10.5447L1.82869 10.4389C0.889313 10.1622 0.889313 8.8324 1.82869 8.55565L2.18756 8.4499C2.48884 8.36092 2.76642 8.20571 2.99997 7.99561C3.23353 7.78552 3.41715 7.52586 3.5374 7.23564C3.65765 6.94542 3.71149 6.63198 3.69497 6.31827C3.67845 6.00456 3.592 5.69851 3.44194 5.42252L3.26194 5.09402C2.79506 4.23452 3.73444 3.29402 4.59506 3.76202L4.92356 3.9409C5.19959 4.09117 5.50574 4.17779 5.81959 4.19442C6.13343 4.21105 6.44702 4.15726 6.73739 4.03699C7.02775 3.91673 7.28754 3.73303 7.49771 3.49936C7.70788 3.26569 7.86313 2.98796 7.95206 2.68652L8.05781 2.32765Z" stroke="none"></path>
        <path d="M8.99941 5.84665C8.51985 5.84665 8.04499 5.9411 7.60194 6.12462C7.15889 6.30814 6.75633 6.57713 6.41723 6.91622C6.07813 7.25532 5.80915 7.65788 5.62563 8.10093C5.44211 8.54399 5.34766 9.01884 5.34766 9.4984C5.34766 9.97795 5.44211 10.4528 5.62563 10.8959C5.80915 11.3389 6.07813 11.7415 6.41723 12.0806C6.75633 12.4197 7.15889 12.6887 7.60194 12.8722C8.04499 13.0557 8.51985 13.1501 8.99941 13.1501C9.96791 13.1501 10.8967 12.7654 11.5816 12.0806C12.2664 11.3957 12.6512 10.4669 12.6512 9.4984C12.6512 8.52989 12.2664 7.60106 11.5816 6.91622C10.8967 6.23139 9.96791 5.84665 8.99941 5.84665ZM6.47266 9.4984C6.47266 8.82826 6.73887 8.18557 7.21272 7.71172C7.68658 7.23786 8.32927 6.97165 8.99941 6.97165C9.66954 6.97165 10.3122 7.23786 10.7861 7.71172C11.2599 8.18557 11.5262 8.82826 11.5262 9.4984C11.5262 10.1685 11.2599 10.8112 10.7861 11.2851C10.3122 11.7589 9.66954 12.0251 8.99941 12.0251C8.32927 12.0251 7.68658 11.7589 7.21272 11.2851C6.73887 10.8112 6.47266 10.1685 6.47266 9.4984Z" stroke="none"></path>
    </symbol>
 

    <symbol viewBox="0 0 16 16" id="logout">
        <path fill-rule="evenodd" d="M6 12.5a.5.5 0 0 0 .5.5h8a.5.5 0 0 0 .5-.5v-9a.5.5 0 0 0-.5-.5h-8a.5.5 0 0 0-.5.5v2a.5.5 0 0 1-1 0v-2A1.5 1.5 0 0 1 6.5 2h8A1.5 1.5 0 0 1 16 3.5v9a1.5 1.5 0 0 1-1.5 1.5h-8A1.5 1.5 0 0 1 5 12.5v-2a.5.5 0 0 1 1 0z" stroke="none"></path>
        <path fill-rule="evenodd" d="M.146 8.354a.5.5 0 0 1 0-.708l3-3a.5.5 0 1 1 .708.708L1.707 7.5H10.5a.5.5 0 0 1 0 1H1.707l2.147 2.146a.5.5 0 0 1-.708.708z" stroke="none"></path>
    </symbol>

    <symbol viewBox="0 0 16 16" id="download">
        <path d="M8.5 6.5a.5.5 0 0 0-1 0v3.793L6.354 9.146a.5.5 0 1 0-.708.708l2 2a.5.5 0 0 0 .708 0l2-2a.5.5 0 0 0-.708-.708L8.5 10.293V6.5z" stroke="none"></path>
        <path d="M14 14V4.5L9.5 0H4a2 2 0 0 0-2 2v12a2 2 0 0 0 2 2h8a2 2 0 0 0 2-2zM9.5 3A1.5 1.5 0 0 0 11 4.5h2V14a1 1 0 0 1-1 1H4a1 1 0 0 1-1-1V2a1 1 0 0 1 1-1h5.5v2z" stroke="none"></path>
    </symbol>

    <symbol viewBox="0 0 17 14" id="repeat">
        <path d="M12.3931 5.83136H16.7247C16.777 5.83138 16.8283 5.8472 16.8724 5.87696C16.9166 5.90672 16.9518 5.94919 16.974 5.9994C16.9962 6.0496 17.0044 6.10547 16.9977 6.16046C16.991 6.21544 16.9697 6.26727 16.9362 6.30987L14.7704 9.06422C14.7446 9.09705 14.7122 9.12347 14.6757 9.1416C14.6391 9.15973 14.5993 9.16912 14.5589 9.16912C14.5186 9.16912 14.4787 9.15973 14.4421 9.1416C14.4056 9.12347 14.3732 9.09705 14.3474 9.06422L12.1816 6.30987C12.1481 6.26727 12.1268 6.21544 12.1201 6.16046C12.1134 6.10547 12.1216 6.0496 12.1438 5.9994C12.166 5.94919 12.2012 5.90672 12.2454 5.87696C12.2896 5.8472 12.3408 5.83138 12.3931 5.83136ZM0.275302 8.16555H4.60687C4.6592 8.16553 4.71045 8.14972 4.7546 8.11996C4.79875 8.0902 4.83399 8.04773 4.85618 7.99752C4.87838 7.94731 4.88661 7.89144 4.87991 7.83646C4.87322 7.78147 4.85188 7.72964 4.81839 7.68704L2.6526 4.9327C2.62675 4.89986 2.59441 4.87344 2.55786 4.85531C2.52131 4.83719 2.48145 4.82779 2.44109 4.82779C2.40073 4.82779 2.36087 4.83719 2.32432 4.85531C2.28777 4.87344 2.25542 4.89986 2.22958 4.9327L0.0637909 7.68704C0.0302991 7.72964 0.00895666 7.78147 0.00226265 7.83646C-0.00443136 7.89144 0.00380018 7.94731 0.0259934 7.99752C0.0481866 8.04773 0.0834229 8.0902 0.127576 8.11996C0.171729 8.14972 0.222971 8.16553 0.275302 8.16555Z" stroke="none"></path>
        <path fill-rule="evenodd" clip-rule="evenodd" d="M8.50266 1.16293C6.79295 1.16293 5.2639 1.98807 4.25371 3.28471C4.20861 3.34665 4.1522 3.39835 4.08785 3.43674C4.02351 3.47512 3.95253 3.49941 3.87915 3.50815C3.80577 3.51689 3.73148 3.50991 3.66069 3.48762C3.58991 3.46533 3.52407 3.42819 3.46711 3.37841C3.41014 3.32862 3.36321 3.26721 3.3291 3.19783C3.29498 3.12844 3.27439 3.0525 3.26853 2.97451C3.26268 2.89652 3.27169 2.81808 3.29502 2.74386C3.31836 2.66963 3.35554 2.60114 3.40436 2.54244C4.21096 1.50784 5.28107 0.740456 6.48743 0.331557C7.69378 -0.0773413 8.98561 -0.110545 10.2093 0.235894C11.4329 0.582334 12.5369 1.29384 13.3899 2.28578C14.2429 3.27772 14.809 4.50836 15.021 5.83132H13.9006C13.6463 4.51344 12.9701 3.32905 11.9866 2.47842C11.003 1.62778 9.77234 1.1631 8.50266 1.16293ZM3.10472 8.16551C3.31327 9.24463 3.80574 10.2392 4.52524 11.0344C5.24473 11.8296 6.1619 12.3928 7.17076 12.6592C8.17963 12.9255 9.23903 12.884 10.2266 12.5394C11.2141 12.1949 12.0895 11.5614 12.7516 10.7121C12.7967 10.6502 12.8531 10.5985 12.9175 10.5601C12.9818 10.5217 13.0528 10.4974 13.1262 10.4887C13.1996 10.4799 13.2739 10.4869 13.3446 10.5092C13.4154 10.5315 13.4813 10.5686 13.5382 10.6184C13.5952 10.6682 13.6421 10.7296 13.6762 10.799C13.7103 10.8684 13.7309 10.9443 13.7368 11.0223C13.7426 11.1003 13.7336 11.1787 13.7103 11.253C13.687 11.3272 13.6498 11.3957 13.601 11.4544C12.7944 12.489 11.7243 13.2564 10.5179 13.6653C9.31154 14.0742 8.01971 14.1074 6.79606 13.7609C5.57241 13.4145 4.46843 12.703 3.61542 11.711C2.76242 10.7191 2.19629 9.48847 1.98438 8.16551H3.10472Z" stroke="none"></path>
    </symbol>

</svg>