<svg width="170" height="72" viewBox="0 0 170 72" fill="none" xmlns="http://www.w3.org/2000/svg">
<g clip-path="url(#clip0_2056_12824)">
<path fill-rule="evenodd" clip-rule="evenodd" d="M7.95442 35.7684C7.95442 37.37 7.98479 38.447 7.95442 39.5516C7.92404 41.3465 6.861 42.4787 4.97788 42.7824C3.18589 43.0586 1.84949 42.2854 1.18128 40.5733C0.178983 38.0328 -0.185491 35.3818 0.0878641 32.7032C0.573829 27.4289 1.87986 22.3479 4.0667 17.4602C4.61341 16.2636 5.29173 15.1314 6.10168 14.0637C8.04553 11.4955 11.508 11.4127 13.6341 13.8427C14.5453 14.8645 15.2743 15.9966 15.9121 17.1841C15.9931 17.3682 16.0741 17.5522 16.1551 17.7363C16.2766 17.9849 16.3981 18.2334 16.7322 18.2334C17.127 18.2334 17.1877 17.9573 17.2789 17.7087C17.7345 16.6042 18.3419 15.5548 19.0709 14.5607C19.2733 14.2662 19.4961 13.99 19.7391 13.7323C21.8044 11.5508 24.8113 11.5231 26.8767 13.6771C28.456 15.3339 29.3672 17.2945 30.1569 19.338C31.9793 24.0876 32.9208 28.9477 32.6171 34.0011C32.4956 36.4312 32.1008 38.7508 30.5214 40.7942C29.4583 42.1197 28.0916 42.8653 26.2388 42.81C24.5987 42.7824 23.4445 41.8988 23.2623 40.4076C23.0193 38.3089 22.8371 36.2102 22.6852 34.1116C22.5637 32.151 22.0474 30.2732 21.6829 28.3678C21.6222 28.0641 21.5007 27.8431 21.1362 27.8708C20.7414 27.8708 20.6502 28.1745 20.5591 28.4507C20.0124 30.1351 19.4657 31.8472 18.9494 33.5593C18.676 34.4982 18.2204 35.4094 17.7345 36.2655C17.0966 37.37 15.9425 37.591 14.6972 37.5357C13.5126 37.4805 12.9052 36.7901 12.6015 35.8237C11.994 33.8354 11.508 31.792 10.7183 29.859C10.4754 29.3067 10.2324 28.8096 9.98939 28.285C9.8679 27.9536 9.65529 27.7327 9.26045 27.7603C8.80485 27.8155 8.77448 28.1469 8.68336 28.4507C8.04553 31.0188 7.83293 33.6145 7.95442 35.7684ZM56.4294 28.6716C56.5509 32.2614 56.1864 35.9893 55.1537 39.6344C54.9411 40.4352 54.5766 41.2084 54.0299 41.8712C53.4225 42.6167 52.6328 42.9481 51.6305 42.7824C50.6282 42.6167 49.9296 42.0921 49.6866 41.1532C49.474 40.2972 49.2918 39.4135 49.0792 38.5298C49.0184 38.3089 49.0792 38.0328 48.7451 37.9499C48.3806 37.8395 48.1376 38.0052 47.9554 38.2537C47.4087 38.9717 46.862 39.6896 46.2849 40.4076C45.8293 40.9599 45.3433 41.4846 44.7055 41.9264C42.4275 43.5004 39.7851 42.9757 38.4791 40.6561C37.6894 39.303 37.2338 37.8671 36.8997 36.3759C36.11 32.8689 35.8366 29.3343 36.5352 25.7445C37.0515 23.1763 39.694 21.6023 42.4275 22.2651C43.3691 22.5136 43.9158 23.0107 44.0677 23.8943C44.4018 25.6892 44.5536 27.5394 45.07 29.3067C45.2218 29.8866 45.4344 30.4389 45.6167 31.0188C45.7685 31.3778 46.0115 31.7091 46.4671 31.7644C46.9227 31.8196 47.1961 31.5158 47.439 31.1845C48.1376 30.3008 48.3502 29.3343 47.9554 28.285C47.4694 27.0976 47.5302 25.8549 47.7124 24.6399C47.925 23.342 48.8666 22.5412 50.2637 22.3203C51.5697 22.0994 52.8454 22.0718 54.1211 22.4031C55.6397 22.845 56.3686 23.7286 56.4294 25.1646C56.4294 25.2198 56.4294 25.2842 56.4294 25.3579C56.4294 26.4072 56.4294 27.4565 56.4294 28.6716ZM122.855 29.0029C122.703 32.7585 122.521 36.3483 121.397 39.8277C121.184 40.4905 120.911 41.1532 120.486 41.7331C119.909 42.5063 119.119 42.9205 118.086 42.81C117.084 42.6996 116.446 42.1473 116.082 41.2913C115.687 40.38 115.596 39.4135 115.383 38.4746C115.322 38.2813 115.353 38.0328 115.049 37.9499C114.745 37.8947 114.472 37.9776 114.29 38.2261C114.067 38.5206 113.844 38.8244 113.621 39.1374C112.953 40.0486 112.255 40.9047 111.374 41.6226C109.065 43.5556 106.241 43.0862 104.813 40.5733C103.659 38.5851 103.143 36.4312 102.839 34.222C102.535 32.0957 102.353 29.9694 102.505 27.8155C102.596 26.7386 102.778 25.6892 103.234 24.6951C104.236 22.4584 106.453 21.9337 108.397 22.0994C109.491 22.1822 110.25 22.983 110.432 24.0876C110.797 26.2415 111.04 28.423 111.738 30.5217C111.829 30.7979 111.92 31.074 112.072 31.3225C112.437 31.8472 113.287 31.8748 113.682 31.3778C114.32 30.4941 114.806 29.5552 114.35 28.423C113.834 27.208 113.773 25.9101 114.047 24.6123C114.29 23.4525 114.988 22.6517 116.294 22.3755C117.661 22.0994 119.058 22.0994 120.425 22.3755C121.822 22.6793 122.49 23.5629 122.703 24.8056C122.976 26.2415 122.794 27.7327 122.855 29.0029ZM136.158 22.1822C137.585 22.127 138.983 22.4584 140.289 23.1487C141.139 23.5906 141.655 24.1981 141.625 25.1646C141.625 25.8273 141.929 26.1034 142.688 26.1311C144.116 26.2139 144.51 26.49 144.936 27.7327C145.695 29.997 146.272 32.2614 145.938 34.6362C145.482 38.3089 143.235 42.313 137.1 42.7272C135.004 42.8377 132.999 42.8377 131.116 41.9264C128.443 40.6561 126.742 38.6955 126.013 36.0446C125.376 33.6974 125.376 31.3501 126.074 29.0306C127.441 24.6123 130.964 22.2375 136.158 22.1822ZM140.441 28.7268C140.41 28.4783 140.349 28.0364 140.319 27.5946C140.319 27.0147 140.015 26.6557 139.408 26.49C138.8 26.3428 138.203 26.1863 137.616 26.0206C136.492 25.6892 135.52 25.993 134.7 26.6833C133.607 27.6775 133.333 28.9201 133.789 30.1903C134.214 31.4882 135.247 32.3166 136.705 32.648C136.978 32.7309 137.221 32.6756 137.494 32.6204C139.286 32.2614 140.471 30.7979 140.441 28.7268ZM169.325 27.926C169.112 32.0957 168.626 36.2103 167.563 40.2695C167.503 40.5089 167.412 40.739 167.29 40.9599C166.895 41.7331 166.257 42.2854 165.255 42.2854C164.222 42.2854 163.463 41.8159 163.068 40.9323C162.491 39.7173 162.248 38.3918 162.127 37.0663C162.005 36.155 161.944 35.2714 161.853 34.3877C161.793 33.7526 161.367 33.4212 160.669 33.5041C159.606 33.5869 158.543 33.6697 157.449 33.5317C156.903 33.4764 156.538 33.7802 156.477 34.3049C156.234 35.7408 156.001 37.1859 155.779 38.6403C155.637 39.4687 155.414 40.2695 155.111 41.0427C154.746 41.9816 154.23 42.2578 152.984 42.2578C151.891 42.2854 151.223 41.9264 150.889 41.0704C150.372 39.7173 150.038 38.3089 149.795 36.873C149.249 33.6697 148.793 30.4665 148.854 27.208C148.854 26.2415 148.945 25.275 149.309 24.3638C150.069 22.5136 152.073 21.6852 154.351 22.2651C156.204 22.7345 157.419 24.5294 157.115 26.2967C156.781 28.0641 157.024 28.3402 159.029 28.2297C159.251 28.2297 159.464 28.2113 159.666 28.1745C160.669 28.0088 160.79 27.8984 160.881 27.0147C160.912 26.4072 160.881 25.7997 161.003 25.2474C161.489 22.9002 163.25 21.7956 165.832 22.2375C167.837 22.5964 168.657 23.342 169.052 25.1922C169.234 26.1034 169.355 27.0147 169.325 27.926ZM78.723 37.6186C78.7534 39.1926 78.2067 40.5733 76.9918 41.7331C76.0198 42.672 74.8353 42.9757 73.4381 42.7272C72.3751 42.5339 71.6765 41.9816 71.2817 41.0427C70.249 38.6127 69.3378 36.1826 68.0014 33.8907C67.8192 33.6145 67.6673 33.3108 67.4243 33.0622C66.9687 32.5652 66.6346 32.5928 66.3005 33.2003C65.7235 34.2496 65.5108 35.4371 65.2679 36.5968C64.9641 38.1156 64.9338 39.6896 64.3871 41.1808C63.8707 42.6444 62.5951 43.2243 61.1372 42.6444C60.0741 42.2301 59.8008 41.3741 59.8008 40.4352C59.8615 38.447 60.1956 36.4864 60.8031 34.5534C61.775 31.3778 62.8988 28.2297 64.6908 25.3302C65.0249 24.8056 65.4197 24.3085 65.8146 23.8115C67.5762 21.6023 70.0668 21.9061 71.9499 23.0935C72.4966 23.4249 72.9218 23.8943 73.2863 24.3914C75.7465 27.7879 77.6903 31.4054 78.48 35.4647C78.561 35.8697 78.6218 36.2839 78.6623 36.7073C78.6926 37.0111 78.6926 37.3148 78.723 37.6186ZM80.8491 39.9106C80.8491 38.088 81.1528 36.2931 81.6995 34.5534C82.7322 31.4054 83.7953 28.2574 85.5873 25.3855C85.9517 24.8056 86.377 24.2533 86.8629 23.7286C88.7764 21.6576 91.6314 21.6299 93.5753 23.701C94.5169 24.6951 95.2762 25.7721 95.9444 26.9043C97.6149 29.7761 98.9209 32.7309 99.5284 35.9341C99.8625 37.8119 99.6499 39.662 98.4046 41.2636C97.463 42.4511 96.1874 42.8929 94.6384 42.7824C93.3323 42.672 92.573 41.954 92.1174 40.9047C91.4492 39.165 90.7506 37.4529 89.9306 35.7684C89.5357 34.9676 89.1105 34.1944 88.6853 33.4212C88.4727 33.0622 88.1993 32.8137 87.7133 32.8413C87.197 32.8689 87.1059 33.2279 86.9844 33.6145C86.2251 35.796 85.9821 38.0604 85.6176 40.2972C85.5265 40.8218 85.405 41.3465 85.1317 41.7883C84.585 42.672 83.613 42.9757 82.3677 42.672C81.244 42.3958 80.8491 41.8988 80.8491 40.7666C80.8694 40.4904 80.8694 40.2051 80.8491 39.9106Z" fill="#9D0DC3"/>
<path fill-rule="evenodd" clip-rule="evenodd" d="M26.7248 48.4712C26.6944 47.8913 26.8159 47.3942 27.2715 46.98C27.5145 46.7867 27.7575 46.6486 28.0612 46.7315C28.4257 46.8419 28.5472 47.0904 28.5775 47.3942C28.6079 48.1122 28.5168 48.8025 28.6383 49.4929C28.6686 49.6033 28.6686 49.7138 28.699 49.8243C28.9116 50.3213 28.9724 50.9841 29.7621 51.0393C30.5821 51.0945 30.8251 50.487 31.0681 49.9347C31.2807 49.5205 31.1288 49.1339 30.734 48.8854C30.3999 48.6368 30.0354 48.4712 29.6709 48.2779C29.2154 48.0293 28.7901 47.698 28.699 47.2285C28.5775 46.7315 28.4864 46.1516 29.0635 45.8202C29.6406 45.4336 30.2784 45.4336 30.8859 45.765C31.2807 45.9583 31.5844 46.2896 31.8578 46.6486C32.6779 47.698 33.7409 47.7808 34.7432 46.9524C35.4418 46.3449 35.8366 46.3725 36.3833 47.1181C37.0212 47.9465 37.3249 48.8854 37.7501 49.7966C37.8716 50.1004 37.8109 50.5698 38.2968 50.5975C38.722 50.6251 38.8132 50.1832 39.0258 49.9071C39.5421 49.2167 40.0281 48.4712 40.5748 47.8084C41.3645 46.8419 42.0934 46.8972 42.6401 48.0017C43.0653 48.8301 43.3691 49.6862 43.7639 50.487C44.098 51.1774 44.341 51.2326 44.8573 50.6527C45.4344 50.0176 45.89 49.2996 46.4367 48.6368C46.6493 48.3607 46.8923 48.0846 47.1657 47.8636C47.925 47.2837 48.8969 47.5047 49.2614 48.3607C49.5347 48.9682 49.7474 49.5757 50.0207 50.1832C50.5067 51.2602 50.9015 51.4535 52.1164 51.0945C52.572 50.9564 52.9972 50.846 53.2098 51.3707C53.4528 51.9506 53.058 52.1991 52.5416 52.3372C50.4459 52.9999 48.8665 52.2543 48.2287 50.2661C48.1376 50.0176 48.168 49.6862 47.8035 49.631C47.4086 49.6033 47.3479 49.9347 47.196 50.1556C46.7101 50.7631 46.2545 51.3983 45.647 51.9505C44.584 52.8894 43.3994 52.7514 42.6401 51.5916C42.306 51.0393 42.0934 50.4594 41.8201 49.8795C41.7289 49.6862 41.6986 49.4377 41.4252 49.41C41.1822 49.3824 41.0607 49.6033 40.9392 49.769C40.4229 50.4594 39.9673 51.1774 39.3295 51.7572C38.3879 52.6409 37.5071 52.5581 36.8389 51.4811C36.4137 50.8184 36.1707 50.128 35.9277 49.41C35.6848 48.7473 35.1988 48.4988 34.4698 48.6092C34.1357 48.6645 33.832 48.6921 33.4979 48.7473C32.9816 48.8578 32.6475 49.1063 32.5867 49.6586C32.526 50.2661 32.4045 50.9012 32.0704 51.4535C31.3414 52.5857 29.7924 52.917 28.6383 52.1162C27.3322 51.205 26.8767 49.9071 26.7248 48.4712ZM71.1905 52.6409C71.4943 51.9505 71.4943 51.2878 71.6765 50.6251C71.9195 49.7966 72.1928 48.9958 72.5877 48.2226C73.4381 46.6762 75.1694 46.262 76.7488 47.2285C77.6296 47.7808 78.237 48.5816 78.8445 49.3548C79.1482 49.7138 79.3912 50.1004 79.7253 50.4318C80.4846 51.2602 81.4565 51.5087 82.5803 51.205C82.8841 51.1221 83.1878 50.9841 83.5219 51.1774C83.7345 51.3154 83.8256 51.5363 83.7952 51.7572C83.7345 52.0334 83.5219 52.1715 83.2485 52.2543C81.6691 52.8066 80.2112 52.5581 78.9052 51.5916C78.1459 51.0393 77.6296 50.2937 76.9917 49.631C76.8702 49.5205 76.7488 49.3548 76.5969 49.2444C75.5035 48.2318 74.5923 48.3515 73.8633 49.6033C73.104 50.9012 72.8914 52.3371 72.7395 53.7731C72.2536 57.9981 72.3751 62.223 72.4358 66.4756C72.4358 66.9727 72.4966 67.525 71.7372 67.5802C71.0083 67.6354 70.7957 67.1384 70.7349 66.6137C70.6438 65.5091 70.5831 64.3769 70.5527 63.2724C70.4616 60.1244 70.3705 56.9763 69.7934 53.8835C69.3682 51.702 68.6088 49.631 67.3636 47.7256C66.8472 46.9524 66.8472 46.5658 67.4243 46.2896C67.971 45.9859 68.6088 46.2344 69.0341 46.9524C70.0364 48.6368 70.6438 50.4594 71.0994 52.3095C71.0994 52.3924 71.1298 52.5028 71.1905 52.6409ZM137.646 49.769C137.13 50.4318 136.705 51.1497 136.067 51.702C134.913 52.6961 133.91 52.4752 133.424 51.0945C133.212 50.4318 133.242 49.769 133.333 49.1063C133.394 48.6921 133.242 48.5264 132.756 48.5816C131.389 48.7197 130.812 48.913 130.812 50.2385C130.782 51.3154 129.992 52.1715 128.96 52.4476C127.897 52.7237 126.925 52.3648 126.165 51.4259C125.345 50.4042 124.981 49.272 125.072 48.0017C125.133 47.0076 125.892 46.5105 126.773 46.9248C126.864 46.1792 127.228 45.6269 128.079 45.5441C128.899 45.4612 129.567 45.8754 130.053 46.4829C130.205 46.6486 130.296 46.8419 130.387 47.0076C130.478 47.1733 130.569 47.3114 130.752 47.4218C131.329 47.7256 133.394 47.1457 133.637 46.5934C133.789 46.2068 134.001 45.8754 134.518 45.9859C135.034 46.0963 135.125 46.4829 135.095 46.9248C135.004 47.8913 134.761 48.8578 134.852 49.8243C134.852 50.0452 134.73 50.3765 135.064 50.4594C135.399 50.5146 135.49 50.1832 135.642 49.9899C136.765 48.4988 137.707 46.8972 139.195 45.6545C139.681 45.2403 140.197 44.9089 140.896 44.9365C141.352 44.9642 141.716 45.1022 141.838 45.5441C141.959 45.9859 141.655 46.2896 141.261 46.4553C140.41 46.7867 139.681 47.2561 139.043 47.8636C138.679 48.2502 138.588 48.554 138.983 48.9682C139.317 49.2996 139.56 49.7138 139.833 50.0728C140.592 51.1221 141.412 51.4535 142.779 51.205C142.901 51.1866 143.022 51.1681 143.144 51.1497C143.569 51.0945 143.842 51.2326 143.933 51.5916C144.055 51.9782 143.812 52.1439 143.417 52.2819C141.412 52.917 139.377 52.2543 138.223 50.5975C138.071 50.3213 137.98 50.0176 137.646 49.769ZM126.894 47.2561C126.894 48.3607 126.682 49.41 127.259 50.4042C127.502 50.7908 127.775 51.1774 128.352 51.0393C129.051 50.8736 129.263 50.2937 129.354 49.7138C129.446 49.2444 129.476 48.8025 128.838 48.6092C128.018 48.3883 127.35 47.9465 126.894 47.2561ZM93.0286 47.5875C92.8159 47.5875 92.8159 47.5875 92.7856 47.5875C92.4211 47.6151 91.9655 47.339 91.7529 47.698C91.5707 48.0293 92.0263 48.2502 92.2085 48.4988C92.816 49.3272 93.3627 50.1832 93.2108 51.2326C93.0286 52.7237 91.7225 53.5246 90.1128 53.276C88.8371 53.0551 87.8348 52.4476 87.0451 51.5363C86.8021 51.2326 86.5288 50.9841 86.1339 50.9012C85.7391 50.8184 85.4961 50.5698 85.7391 50.2109C86.0428 49.7414 85.9517 49.2444 85.8302 48.7473C85.6176 47.7808 85.9213 46.8971 86.4073 46.0411C86.8629 45.2955 87.5918 45.047 88.4119 45.2955C89.2016 45.5441 89.6268 46.1792 89.5357 46.98C89.4446 47.7532 89.1408 48.4159 88.6853 49.0511C88.3512 49.4653 87.7133 49.7966 88.0778 50.4318C88.503 51.1497 89.1408 51.6744 90.052 51.8125C90.5987 51.8953 91.2062 51.9505 91.5403 51.4811C91.9048 51.0393 91.6922 50.5146 91.4188 50.0728C91.0543 49.5205 90.6291 48.9682 90.2039 48.4159C89.809 47.8913 89.6572 47.3666 89.9913 46.7867C90.3558 46.2068 90.9025 46.0687 91.5707 46.0687C93.2412 46.124 94.9117 46.262 96.4607 46.8695C97.8882 47.4494 98.3438 48.2226 98.1008 49.6033C98.0806 49.6402 98.0704 49.6862 98.0704 49.7414C97.7667 51.205 97.8882 51.3154 99.498 51.0669C99.8928 51.0117 100.197 51.0945 100.318 51.4535C100.47 51.8677 100.227 52.1162 99.8321 52.2267C99.498 52.3371 99.1335 52.4476 98.769 52.4752C97.2504 52.6685 96.3392 51.8677 96.4303 50.4318C96.4607 50.0176 96.4911 49.631 96.5518 49.2167C96.6125 48.6092 96.2785 48.2502 95.671 48.0569C94.7598 47.7808 93.8183 47.5875 93.0286 47.5875ZM87.4096 48.1674C87.7741 47.836 87.8348 47.477 87.8956 47.1457C87.9259 47.0352 87.9259 46.8971 87.7741 46.8695C87.6222 46.8419 87.5918 46.9524 87.5311 47.0628C87.3489 47.3942 87.3185 47.7256 87.4096 48.1674ZM118.906 52.5581C117.266 52.5305 116.294 51.7572 115.778 50.2385C115.717 49.9899 115.747 49.6586 115.322 49.631C114.988 49.631 114.927 49.9071 114.775 50.1004C114.35 50.6251 113.986 51.1774 113.53 51.702C112.437 52.917 110.888 52.779 110.068 51.3983C109.825 50.9564 109.642 50.487 109.43 50.0176C109.308 49.7966 109.308 49.4377 108.944 49.41C108.671 49.41 108.549 49.6862 108.367 49.8795C107.972 50.4318 107.577 50.9841 107.152 51.4811C105.998 52.779 104.995 52.6409 104.206 51.1497C104.125 50.9841 104.044 50.8184 103.963 50.6527C103.507 49.6862 103.112 48.6921 102.414 47.8636C102.049 47.4218 102.11 47.0076 102.596 46.6762C103.082 46.3449 103.477 46.5658 103.811 46.9524C104.206 47.4218 104.509 47.9465 104.783 48.5264C104.935 48.913 105.087 49.3272 105.269 49.7138C105.421 50.0176 105.39 50.5422 105.815 50.5698C106.332 50.6251 106.423 50.1004 106.636 49.8243C107.03 49.2996 107.365 48.7473 107.79 48.2502C108.154 47.7808 108.488 47.0904 109.248 47.1733C110.037 47.2561 110.189 47.9741 110.463 48.5264C110.736 49.1063 110.948 49.6862 111.191 50.2661C111.343 50.5698 111.343 50.9841 111.829 51.0117C112.285 51.0393 112.437 50.7079 112.649 50.4318C112.983 49.9899 113.318 49.5205 113.652 49.0787C113.804 48.8578 113.955 48.6368 114.138 48.4159C115.353 47.0904 116.324 47.2285 117.023 48.8578C117.205 49.2996 117.388 49.769 117.6 50.2385C118.025 51.1774 118.39 51.343 119.483 51.1497C120.03 51.0393 120.698 50.7631 120.88 51.5087C121.032 52.2819 120.273 52.2267 119.757 52.3648C119.422 52.4752 119.088 52.5028 118.906 52.5581ZM59.74 49.769C59.2844 50.3213 58.8896 50.8184 58.4947 51.3154C58.3125 51.564 58.0391 51.7572 57.7658 51.9505C56.7938 52.5581 56.0649 52.3924 55.6093 51.3983C55.1537 50.4318 55.2752 49.41 55.3359 48.4159C55.3967 47.8636 55.5182 47.339 55.6093 46.8143C55.7004 46.3449 55.8827 45.9306 56.5509 46.0135C57.1583 46.0963 57.2191 46.5105 57.1583 46.98C57.0672 47.8913 56.9761 48.8025 56.885 49.7138C56.885 49.9899 56.7635 50.3213 57.1279 50.4318C57.462 50.5422 57.5835 50.2109 57.7354 49.9899C58.7984 48.4712 59.7704 46.8971 61.2283 45.6821C61.6839 45.2955 62.1394 44.9918 62.7773 44.9365C63.2936 44.9089 63.7188 45.0194 63.8707 45.5164C64.0226 46.0135 63.7492 46.2896 63.2632 46.4553C62.3521 46.7867 61.6231 47.3666 60.9853 48.0293C60.8334 48.1674 60.5601 48.3331 60.803 48.5816C61.3801 49.1615 61.6535 49.9347 62.2609 50.5146C62.9595 51.1774 63.7796 51.4811 64.7819 51.205C64.8831 51.1866 64.9844 51.1681 65.0856 51.1497C65.5412 51.0669 65.8753 51.1497 65.9968 51.5916C66.1183 52.0334 65.7842 52.1715 65.4197 52.2819C63.4151 52.8894 61.6535 52.3372 60.4082 50.6803C60.1956 50.4042 59.983 50.128 59.74 49.769Z" fill="#FFCE22"/>
<path d="M54.2606 16.987C53.7016 16.987 53.2203 16.855 52.8166 16.5911C52.4129 16.3271 52.1024 15.9636 51.885 15.5003C51.6676 15.0371 51.559 14.5079 51.559 13.9128C51.559 13.3072 51.6702 12.7729 51.8928 12.3097C52.1179 11.8439 52.431 11.4803 52.8321 11.2189C53.2358 10.955 53.7068 10.823 54.245 10.823C54.6642 10.823 55.0421 10.9006 55.3785 11.0559C55.7149 11.2112 55.9905 11.4285 56.2052 11.708C56.42 11.9875 56.5533 12.3135 56.6051 12.6862H55.689C55.6191 12.4145 55.4639 12.1738 55.2232 11.9642C54.9851 11.752 54.6642 11.6459 54.2606 11.6459C53.9034 11.6459 53.5903 11.7391 53.3212 11.9254C53.0547 12.1091 52.8464 12.3692 52.6963 12.7056C52.5488 13.0394 52.475 13.4314 52.475 13.8817C52.475 14.3423 52.5475 14.7434 52.6924 15.085C52.8399 15.4266 53.0469 15.6918 53.3134 15.8807C53.5826 16.0696 53.8983 16.1641 54.2606 16.1641C54.4986 16.1641 54.7147 16.1227 54.9088 16.0399C55.1029 15.9571 55.2672 15.838 55.4018 15.6828C55.5363 15.5275 55.6321 15.3412 55.689 15.1238H56.6051C56.5533 15.4758 56.4252 15.7928 56.2208 16.0748C56.0189 16.3543 55.7511 16.5768 55.4173 16.7425C55.086 16.9055 54.7005 16.987 54.2606 16.987ZM63.7977 8.91325V16.8628H62.835V9.92247H62.7885L60.8477 11.2112V10.233L62.835 8.91325H63.7977ZM68.6148 8.80456C68.9408 8.80715 69.2669 8.86925 69.5929 8.99088C69.919 9.1125 70.2166 9.31435 70.4857 9.59641C70.7548 9.87589 70.9709 10.2576 71.1339 10.7415C71.297 11.2254 71.3785 11.8322 71.3785 12.562C71.3785 13.2684 71.3112 13.8959 71.1766 14.4445C71.0447 14.9906 70.8532 15.4512 70.6022 15.8264C70.3537 16.2016 70.051 16.4863 69.6939 16.6804C69.3393 16.8744 68.9382 16.9715 68.4906 16.9715C68.0455 16.9715 67.6482 16.8835 67.2989 16.7075C66.9521 16.529 66.6675 16.2818 66.4449 15.9661C66.225 15.6478 66.084 15.2791 66.0218 14.8599H66.969C67.0544 15.2248 67.2239 15.5262 67.4775 15.7643C67.7336 15.9998 68.0713 16.1175 68.4906 16.1175C69.1038 16.1175 69.5878 15.8497 69.9423 15.314C70.2994 14.7784 70.4779 14.0215 70.4779 13.0433H70.4158C70.2709 13.2607 70.0988 13.4483 69.8996 13.6061C69.7003 13.764 69.4791 13.8856 69.2358 13.971C68.9926 14.0564 68.7338 14.0991 68.4595 14.0991C68.0041 14.0991 67.5861 13.9865 67.2057 13.7614C66.8279 13.5337 66.5252 13.2218 66.2974 12.8259C66.0723 12.4274 65.9597 11.972 65.9597 11.4596C65.9597 10.9731 66.0684 10.528 66.2858 10.1243C66.5058 9.71803 66.8137 9.39457 67.2096 9.15391C67.6081 8.91325 68.0765 8.7968 68.6148 8.80456ZM68.6148 9.65852C68.2887 9.65852 67.995 9.74003 67.7336 9.90306C67.4749 10.0635 67.2691 10.2809 67.1165 10.5552C66.9664 10.8269 66.8913 11.1284 66.8913 11.4596C66.8913 11.7908 66.9638 12.0923 67.1087 12.364C67.2562 12.6331 67.4568 12.8479 67.7103 13.0083C67.9665 13.1662 68.2577 13.2451 68.5837 13.2451C68.8295 13.2451 69.0586 13.1973 69.2708 13.1015C69.483 13.0032 69.668 12.8699 69.8258 12.7017C69.9863 12.5309 70.1118 12.3381 70.2023 12.1233C70.2929 11.906 70.3382 11.6795 70.3382 11.4441C70.3382 11.1335 70.2632 10.8424 70.1131 10.5707C69.9656 10.299 69.7611 10.079 69.4998 9.91082C69.241 9.74262 68.946 9.65852 68.6148 9.65852ZM75.4357 8.80456C75.7618 8.80715 76.0878 8.86925 76.4139 8.99088C76.74 9.1125 77.0375 9.31435 77.3067 9.59641C77.5758 9.87589 77.7919 10.2576 77.9549 10.7415C78.1179 11.2254 78.1994 11.8322 78.1994 12.562C78.1994 13.2684 78.1322 13.8959 77.9976 14.4445C77.8656 14.9906 77.6741 15.4512 77.4231 15.8264C77.1747 16.2016 76.8719 16.4863 76.5148 16.6804C76.1603 16.8744 75.7592 16.9715 75.3115 16.9715C74.8664 16.9715 74.4692 16.8835 74.1199 16.7075C73.7731 16.529 73.4885 16.2818 73.2659 15.9661C73.046 15.6478 72.9049 15.2791 72.8428 14.8599H73.7899C73.8753 15.2248 74.0448 15.5262 74.2984 15.7643C74.5546 15.9998 74.8923 16.1175 75.3115 16.1175C75.9248 16.1175 76.4087 15.8497 76.7632 15.314C77.1204 14.7784 77.2989 14.0215 77.2989 13.0433H77.2368C77.0919 13.2607 76.9198 13.4483 76.7205 13.6061C76.5213 13.764 76.3 13.8856 76.0568 13.971C75.8135 14.0564 75.5548 14.0991 75.2805 14.0991C74.825 14.0991 74.4071 13.9865 74.0267 13.7614C73.6489 13.5337 73.3461 13.2218 73.1184 12.8259C72.8933 12.4274 72.7807 11.972 72.7807 11.4596C72.7807 10.9731 72.8894 10.528 73.1068 10.1243C73.3267 9.71803 73.6347 9.39457 74.0306 9.15391C74.4291 8.91325 74.8975 8.7968 75.4357 8.80456ZM75.4357 9.65852C75.1097 9.65852 74.816 9.74003 74.5546 9.90306C74.2958 10.0635 74.0901 10.2809 73.9374 10.5552C73.7873 10.8269 73.7123 11.1284 73.7123 11.4596C73.7123 11.7908 73.7848 12.0923 73.9297 12.364C74.0772 12.6331 74.2777 12.8479 74.5313 13.0083C74.7875 13.1662 75.0786 13.2451 75.4047 13.2451C75.6505 13.2451 75.8795 13.1973 76.0917 13.1015C76.3039 13.0032 76.4889 12.8699 76.6468 12.7017C76.8072 12.5309 76.9327 12.3381 77.0233 12.1233C77.1139 11.906 77.1592 11.6795 77.1592 11.4441C77.1592 11.1335 77.0841 10.8424 76.934 10.5707C76.7865 10.299 76.5821 10.079 76.3207 9.91082C76.062 9.74262 75.767 9.65852 75.4357 9.65852ZM82.3654 16.9715C82.0393 16.9663 81.7133 16.9042 81.3872 16.7852C81.0612 16.6661 80.7636 16.4656 80.4944 16.1835C80.2253 15.8989 80.0092 15.5146 79.8462 15.0307C79.6832 14.5442 79.6017 13.9335 79.6017 13.1985C79.6017 12.4947 79.6677 11.871 79.7996 11.3276C79.9316 10.7816 80.1231 10.3223 80.3741 9.94964C80.6251 9.57442 80.9279 9.28976 81.2824 9.09568C81.6395 8.9016 82.0419 8.80456 82.4896 8.80456C82.9347 8.80456 83.3306 8.89384 83.6774 9.07239C84.0267 9.24836 84.3114 9.49419 84.5313 9.8099C84.7513 10.1256 84.8936 10.4892 84.9583 10.9006H84.0112C83.9232 10.5435 83.7524 10.2472 83.4988 10.0117C83.2452 9.77626 82.9088 9.65852 82.4896 9.65852C81.8737 9.65852 81.3885 9.92635 81.034 10.462C80.6821 10.9977 80.5048 11.7494 80.5022 12.7172H80.5643C80.7092 12.4973 80.8813 12.3097 81.0806 12.1544C81.2824 11.9965 81.505 11.8749 81.7482 11.7895C81.9915 11.7041 82.2489 11.6614 82.5206 11.6614C82.9761 11.6614 83.3927 11.7753 83.7705 12.003C84.1483 12.2281 84.4511 12.54 84.6788 12.9385C84.9065 13.3344 85.0204 13.7886 85.0204 14.3009C85.0204 14.7926 84.9104 15.2429 84.6905 15.6517C84.4705 16.058 84.1613 16.3815 83.7628 16.6221C83.3668 16.8602 82.901 16.9767 82.3654 16.9715ZM82.3654 16.1175C82.6914 16.1175 82.9839 16.036 83.2426 15.873C83.504 15.71 83.7097 15.4913 83.8598 15.217C84.0125 14.9427 84.0888 14.6373 84.0888 14.3009C84.0888 13.9723 84.0151 13.6734 83.8676 13.4043C83.7227 13.1326 83.5221 12.9165 83.2659 12.756C83.0123 12.5956 82.7225 12.5154 82.3964 12.5154C82.1506 12.5154 81.9216 12.5646 81.7094 12.6629C81.4972 12.7586 81.3109 12.8906 81.1504 13.0588C80.9926 13.227 80.8684 13.4198 80.7778 13.6372C80.6872 13.852 80.6419 14.0784 80.6419 14.3165C80.6419 14.6322 80.7157 14.9272 80.8632 15.2015C81.0133 15.4758 81.2177 15.697 81.4765 15.8652C81.7379 16.0334 82.0342 16.1175 82.3654 16.1175ZM93.3164 10.9006V11.7546H90.5527V16.8628H89.6366V10.9006H93.3164ZM96.7662 16.987C96.2279 16.987 95.7557 16.8589 95.3494 16.6027C94.9457 16.3465 94.63 15.9881 94.4023 15.5275C94.1771 15.0669 94.0646 14.5286 94.0646 13.9128C94.0646 13.2917 94.1771 12.7496 94.4023 12.2864C94.63 11.8232 94.9457 11.4635 95.3494 11.2073C95.7557 10.9511 96.2279 10.823 96.7662 10.823C97.3044 10.823 97.7754 10.9511 98.1791 11.2073C98.5854 11.4635 98.9011 11.8232 99.1262 12.2864C99.3539 12.7496 99.4678 13.2917 99.4678 13.9128C99.4678 14.5286 99.3539 15.0669 99.1262 15.5275C98.9011 15.9881 98.5854 16.3465 98.1791 16.6027C97.7754 16.8589 97.3044 16.987 96.7662 16.987ZM96.7662 16.1641C97.175 16.1641 97.5114 16.0593 97.7754 15.8497C98.0393 15.6401 98.2347 15.3645 98.3615 15.0229C98.4883 14.6813 98.5517 14.3113 98.5517 13.9128C98.5517 13.5143 98.4883 13.1429 98.3615 12.7987C98.2347 12.4546 98.0393 12.1764 97.7754 11.9642C97.5114 11.752 97.175 11.6459 96.7662 11.6459C96.3573 11.6459 96.0209 11.752 95.757 11.9642C95.493 12.1764 95.2976 12.4546 95.1708 12.7987C95.044 13.1429 94.9806 13.5143 94.9806 13.9128C94.9806 14.3113 95.044 14.6813 95.1708 15.0229C95.2976 15.3645 95.493 15.6401 95.757 15.8497C96.0209 16.0593 96.3573 16.1641 96.7662 16.1641ZM100.23 18.5707V16.0088H100.726C100.848 15.882 100.953 15.7449 101.041 15.5974C101.129 15.4499 101.205 15.2752 101.27 15.0734C101.337 14.8689 101.394 14.6205 101.441 14.3281C101.487 14.0331 101.529 13.6773 101.565 13.2607L101.767 10.9006H105.555V16.0088H106.471V18.5707H105.555V16.8628H101.146V18.5707H100.23ZM101.767 16.0088H104.639V11.7546H102.621L102.465 13.2607C102.401 13.8843 102.32 14.429 102.225 14.8948C102.129 15.3606 101.976 15.7319 101.767 16.0088ZM109.442 17.0025C109.064 17.0025 108.721 16.9314 108.413 16.789C108.105 16.6441 107.86 16.4358 107.679 16.1641C107.498 15.8898 107.408 15.5586 107.408 15.1704C107.408 14.8288 107.475 14.5519 107.609 14.3397C107.744 14.125 107.924 13.9568 108.149 13.8351C108.374 13.7135 108.623 13.6229 108.894 13.5634C109.169 13.5013 109.444 13.4521 109.721 13.4159C110.083 13.3693 110.377 13.3344 110.602 13.3111C110.83 13.2852 110.996 13.2425 111.099 13.183C111.205 13.1235 111.258 13.02 111.258 12.8725V12.8414C111.258 12.4585 111.153 12.1609 110.944 11.9487C110.737 11.7365 110.422 11.6304 110.001 11.6304C109.563 11.6304 109.22 11.7261 108.972 11.9176C108.723 12.1091 108.549 12.3135 108.448 12.5309L107.578 12.2204C107.734 11.8581 107.941 11.576 108.199 11.3742C108.461 11.1698 108.745 11.0274 109.053 10.9472C109.364 10.8644 109.669 10.823 109.969 10.823C110.161 10.823 110.381 10.8463 110.629 10.8929C110.88 10.9369 111.122 11.0287 111.355 11.1685C111.591 11.3082 111.786 11.5191 111.941 11.8012C112.097 12.0832 112.174 12.461 112.174 12.9346V16.8628H111.258V16.0554H111.212C111.149 16.1848 111.046 16.3232 110.901 16.4707C110.756 16.6183 110.563 16.7438 110.323 16.8473C110.082 16.9508 109.788 17.0025 109.442 17.0025ZM109.581 16.1796C109.944 16.1796 110.249 16.1085 110.497 15.9661C110.748 15.8238 110.937 15.6401 111.064 15.415C111.193 15.1898 111.258 14.953 111.258 14.7046V13.8662C111.219 13.9128 111.134 13.9555 111.002 13.9943C110.873 14.0305 110.723 14.0629 110.552 14.0913C110.384 14.1172 110.219 14.1405 110.059 14.1612C109.901 14.1793 109.773 14.1948 109.674 14.2078C109.436 14.2388 109.214 14.2893 109.007 14.3592C108.802 14.4264 108.637 14.5286 108.51 14.6658C108.386 14.8004 108.324 14.9841 108.324 15.217C108.324 15.5353 108.441 15.7759 108.677 15.939C108.915 16.0994 109.216 16.1796 109.581 16.1796Z" fill="#ADADAD"/>
<rect x="33" y="59" width="103" height="13" rx="6.5" fill="#394E61"/>
<path d="M48.3105 65.2207V65.6699C48.3105 66.2038 48.2438 66.6823 48.1104 67.1055C47.9769 67.5286 47.7848 67.8883 47.5342 68.1846C47.2835 68.4808 46.9824 68.707 46.6309 68.8633C46.2826 69.0195 45.8919 69.0977 45.459 69.0977C45.0391 69.0977 44.6533 69.0195 44.3018 68.8633C43.9535 68.707 43.6507 68.4808 43.3936 68.1846C43.1396 67.8883 42.9427 67.5286 42.8027 67.1055C42.6628 66.6823 42.5928 66.2038 42.5928 65.6699V65.2207C42.5928 64.6868 42.6611 64.21 42.7979 63.79C42.9378 63.3669 43.1348 63.0072 43.3887 62.7109C43.6426 62.4115 43.9437 62.1836 44.292 62.0273C44.6436 61.8711 45.0293 61.793 45.4492 61.793C45.8822 61.793 46.2728 61.8711 46.6211 62.0273C46.9727 62.1836 47.2738 62.4115 47.5244 62.7109C47.7783 63.0072 47.972 63.3669 48.1055 63.79C48.2422 64.21 48.3105 64.6868 48.3105 65.2207ZM47.3779 65.6699V65.2109C47.3779 64.7878 47.334 64.4134 47.2461 64.0879C47.1615 63.7624 47.0361 63.4889 46.8701 63.2676C46.7041 63.0462 46.5007 62.8786 46.2598 62.7646C46.0221 62.6507 45.752 62.5938 45.4492 62.5938C45.1562 62.5938 44.891 62.6507 44.6533 62.7646C44.4189 62.8786 44.2171 63.0462 44.0479 63.2676C43.8818 63.4889 43.7533 63.7624 43.6621 64.0879C43.571 64.4134 43.5254 64.7878 43.5254 65.2109V65.6699C43.5254 66.0964 43.571 66.474 43.6621 66.8027C43.7533 67.1283 43.8835 67.4033 44.0527 67.6279C44.2253 67.8493 44.4287 68.0169 44.6631 68.1309C44.9007 68.2448 45.166 68.3018 45.459 68.3018C45.765 68.3018 46.0368 68.2448 46.2744 68.1309C46.512 68.0169 46.7122 67.8493 46.875 67.6279C47.041 67.4033 47.1663 67.1283 47.251 66.8027C47.3356 66.474 47.3779 66.0964 47.3779 65.6699ZM55.7514 61.8906V69H54.8139V62.6621H51.308V69H50.3656V61.8906H55.7514ZM60.6873 61.8906V69H59.7596V61.8906H60.6873ZM62.9725 61.8906V62.6621H57.4793V61.8906H62.9725ZM67.1363 66.417V66.3047C67.1363 65.9238 67.1917 65.5706 67.3023 65.2451C67.413 64.9163 67.5725 64.6315 67.7809 64.3906C67.9892 64.1465 68.2415 63.9577 68.5377 63.8242C68.8339 63.6875 69.166 63.6191 69.5338 63.6191C69.9049 63.6191 70.2385 63.6875 70.5348 63.8242C70.8342 63.9577 71.0882 64.1465 71.2965 64.3906C71.5081 64.6315 71.6692 64.9163 71.7799 65.2451C71.8906 65.5706 71.9459 65.9238 71.9459 66.3047V66.417C71.9459 66.7979 71.8906 67.151 71.7799 67.4766C71.6692 67.8021 71.5081 68.0869 71.2965 68.3311C71.0882 68.5719 70.8359 68.7607 70.5396 68.8975C70.2467 69.0309 69.9146 69.0977 69.5436 69.0977C69.1725 69.0977 68.8388 69.0309 68.5426 68.8975C68.2464 68.7607 67.9924 68.5719 67.7809 68.3311C67.5725 68.0869 67.413 67.8021 67.3023 67.4766C67.1917 67.151 67.1363 66.7979 67.1363 66.417ZM68.0396 66.3047V66.417C68.0396 66.6807 68.0706 66.9297 68.1324 67.1641C68.1943 67.3952 68.287 67.6003 68.4107 67.7793C68.5377 67.9583 68.6956 68.0999 68.8844 68.2041C69.0732 68.305 69.2929 68.3555 69.5436 68.3555C69.791 68.3555 70.0074 68.305 70.193 68.2041C70.3818 68.0999 70.538 67.9583 70.6617 67.7793C70.7854 67.6003 70.8782 67.3952 70.94 67.1641C71.0051 66.9297 71.0377 66.6807 71.0377 66.417V66.3047C71.0377 66.0443 71.0051 65.7985 70.94 65.5674C70.8782 65.333 70.7838 65.1263 70.6568 64.9473C70.5331 64.765 70.3769 64.6217 70.1881 64.5176C70.0025 64.4134 69.7844 64.3613 69.5338 64.3613C69.2864 64.3613 69.0683 64.4134 68.8795 64.5176C68.6939 64.6217 68.5377 64.765 68.4107 64.9473C68.287 65.1263 68.1943 65.333 68.1324 65.5674C68.0706 65.7985 68.0396 66.0443 68.0396 66.3047ZM75.7246 63.7168V69H74.8164V63.7168H75.7246ZM77.4971 63.7168V64.4492H73.0781V63.7168H77.4971ZM86.6268 68.2578V69H81.9734V68.3506L84.3025 65.7578C84.589 65.4388 84.8104 65.1686 84.9666 64.9473C85.1261 64.7227 85.2368 64.5225 85.2986 64.3467C85.3637 64.1676 85.3963 63.9854 85.3963 63.7998C85.3963 63.5654 85.3475 63.3538 85.2498 63.165C85.1554 62.973 85.0154 62.82 84.8299 62.7061C84.6443 62.5921 84.4197 62.5352 84.1561 62.5352C83.8403 62.5352 83.5766 62.597 83.365 62.7207C83.1567 62.8411 83.0005 63.0104 82.8963 63.2285C82.7921 63.4466 82.74 63.6973 82.74 63.9805H81.8367C81.8367 63.5801 81.9246 63.2139 82.1004 62.8818C82.2762 62.5498 82.5366 62.2861 82.8816 62.0908C83.2267 61.8923 83.6515 61.793 84.1561 61.793C84.6053 61.793 84.9894 61.8727 85.3084 62.0322C85.6274 62.1885 85.8716 62.4098 86.0408 62.6963C86.2133 62.9795 86.2996 63.3115 86.2996 63.6924C86.2996 63.9007 86.2638 64.1123 86.1922 64.3271C86.1238 64.5387 86.0278 64.7503 85.9041 64.9619C85.7837 65.1735 85.6421 65.3818 85.4793 65.5869C85.3198 65.792 85.1489 65.9938 84.9666 66.1924L83.0623 68.2578H86.6268ZM92.6564 64.8789V65.9629C92.6564 66.5456 92.6044 67.0371 92.5002 67.4375C92.396 67.8379 92.2463 68.1602 92.051 68.4043C91.8557 68.6484 91.6197 68.8258 91.343 68.9365C91.0695 69.0439 90.7603 69.0977 90.4152 69.0977C90.1418 69.0977 89.8895 69.0635 89.6584 68.9951C89.4273 68.9268 89.2189 68.8177 89.0334 68.668C88.8511 68.515 88.6949 68.3164 88.5646 68.0723C88.4344 67.8281 88.3352 67.5319 88.2668 67.1836C88.1984 66.8353 88.1643 66.4284 88.1643 65.9629V64.8789C88.1643 64.2962 88.2163 63.8079 88.3205 63.4141C88.4279 63.0202 88.5793 62.7044 88.7746 62.4668C88.9699 62.2259 89.2043 62.0534 89.4777 61.9492C89.7544 61.8451 90.0637 61.793 90.4055 61.793C90.6822 61.793 90.9361 61.8271 91.1672 61.8955C91.4016 61.9606 91.6099 62.0664 91.7922 62.2129C91.9745 62.3561 92.1291 62.5482 92.2561 62.7891C92.3863 63.0267 92.4855 63.318 92.5539 63.6631C92.6223 64.0081 92.6564 64.4134 92.6564 64.8789ZM91.7482 66.1094V64.7275C91.7482 64.4085 91.7287 64.1286 91.6896 63.8877C91.6538 63.6436 91.6001 63.4352 91.5285 63.2627C91.4569 63.0902 91.3658 62.9502 91.2551 62.8428C91.1477 62.7354 91.0223 62.6572 90.8791 62.6084C90.7391 62.5563 90.5812 62.5303 90.4055 62.5303C90.1906 62.5303 90.0002 62.571 89.8342 62.6523C89.6682 62.7305 89.5282 62.8558 89.4143 63.0283C89.3036 63.2008 89.2189 63.4271 89.1604 63.707C89.1018 63.987 89.0725 64.3271 89.0725 64.7275V66.1094C89.0725 66.4284 89.0904 66.71 89.1262 66.9541C89.1652 67.1982 89.2222 67.4098 89.2971 67.5889C89.3719 67.7646 89.4631 67.9095 89.5705 68.0234C89.6779 68.1374 89.8016 68.222 89.9416 68.2773C90.0848 68.3294 90.2427 68.3555 90.4152 68.3555C90.6366 68.3555 90.8303 68.3132 90.9963 68.2285C91.1623 68.1439 91.3007 68.012 91.4113 67.833C91.5253 67.6507 91.6099 67.418 91.6652 67.1348C91.7206 66.8483 91.7482 66.5065 91.7482 66.1094ZM98.8814 64.8789V65.9629C98.8814 66.5456 98.8294 67.0371 98.7252 67.4375C98.621 67.8379 98.4713 68.1602 98.276 68.4043C98.0807 68.6484 97.8447 68.8258 97.568 68.9365C97.2945 69.0439 96.9853 69.0977 96.6402 69.0977C96.3668 69.0977 96.1145 69.0635 95.8834 68.9951C95.6523 68.9268 95.4439 68.8177 95.2584 68.668C95.0761 68.515 94.9199 68.3164 94.7896 68.0723C94.6594 67.8281 94.5602 67.5319 94.4918 67.1836C94.4234 66.8353 94.3893 66.4284 94.3893 65.9629V64.8789C94.3893 64.2962 94.4413 63.8079 94.5455 63.4141C94.6529 63.0202 94.8043 62.7044 94.9996 62.4668C95.1949 62.2259 95.4293 62.0534 95.7027 61.9492C95.9794 61.8451 96.2887 61.793 96.6305 61.793C96.9072 61.793 97.1611 61.8271 97.3922 61.8955C97.6266 61.9606 97.8349 62.0664 98.0172 62.2129C98.1995 62.3561 98.3541 62.5482 98.4811 62.7891C98.6113 63.0267 98.7105 63.318 98.7789 63.6631C98.8473 64.0081 98.8814 64.4134 98.8814 64.8789ZM97.9732 66.1094V64.7275C97.9732 64.4085 97.9537 64.1286 97.9146 63.8877C97.8788 63.6436 97.8251 63.4352 97.7535 63.2627C97.6819 63.0902 97.5908 62.9502 97.4801 62.8428C97.3727 62.7354 97.2473 62.6572 97.1041 62.6084C96.9641 62.5563 96.8063 62.5303 96.6305 62.5303C96.4156 62.5303 96.2252 62.571 96.0592 62.6523C95.8932 62.7305 95.7532 62.8558 95.6393 63.0283C95.5286 63.2008 95.4439 63.4271 95.3854 63.707C95.3268 63.987 95.2975 64.3271 95.2975 64.7275V66.1094C95.2975 66.4284 95.3154 66.71 95.3512 66.9541C95.3902 67.1982 95.4472 67.4098 95.5221 67.5889C95.5969 67.7646 95.6881 67.9095 95.7955 68.0234C95.9029 68.1374 96.0266 68.222 96.1666 68.2773C96.3098 68.3294 96.4677 68.3555 96.6402 68.3555C96.8616 68.3555 97.0553 68.3132 97.2213 68.2285C97.3873 68.1439 97.5257 68.012 97.6363 67.833C97.7503 67.6507 97.8349 67.418 97.8902 67.1348C97.9456 66.8483 97.9732 66.5065 97.9732 66.1094ZM105.106 64.8789V65.9629C105.106 66.5456 105.054 67.0371 104.95 67.4375C104.846 67.8379 104.696 68.1602 104.501 68.4043C104.306 68.6484 104.07 68.8258 103.793 68.9365C103.52 69.0439 103.21 69.0977 102.865 69.0977C102.592 69.0977 102.34 69.0635 102.108 68.9951C101.877 68.9268 101.669 68.8177 101.483 68.668C101.301 68.515 101.145 68.3164 101.015 68.0723C100.884 67.8281 100.785 67.5319 100.717 67.1836C100.648 66.8353 100.614 66.4284 100.614 65.9629V64.8789C100.614 64.2962 100.666 63.8079 100.771 63.4141C100.878 63.0202 101.029 62.7044 101.225 62.4668C101.42 62.2259 101.654 62.0534 101.928 61.9492C102.204 61.8451 102.514 61.793 102.855 61.793C103.132 61.793 103.386 61.8271 103.617 61.8955C103.852 61.9606 104.06 62.0664 104.242 62.2129C104.424 62.3561 104.579 62.5482 104.706 62.7891C104.836 63.0267 104.936 63.318 105.004 63.6631C105.072 64.0081 105.106 64.4134 105.106 64.8789ZM104.198 66.1094V64.7275C104.198 64.4085 104.179 64.1286 104.14 63.8877C104.104 63.6436 104.05 63.4352 103.979 63.2627C103.907 63.0902 103.816 62.9502 103.705 62.8428C103.598 62.7354 103.472 62.6572 103.329 62.6084C103.189 62.5563 103.031 62.5303 102.855 62.5303C102.641 62.5303 102.45 62.571 102.284 62.6523C102.118 62.7305 101.978 62.8558 101.864 63.0283C101.754 63.2008 101.669 63.4271 101.61 63.707C101.552 63.987 101.522 64.3271 101.522 64.7275V66.1094C101.522 66.4284 101.54 66.71 101.576 66.9541C101.615 67.1982 101.672 67.4098 101.747 67.5889C101.822 67.7646 101.913 67.9095 102.021 68.0234C102.128 68.1374 102.252 68.222 102.392 68.2773C102.535 68.3294 102.693 68.3555 102.865 68.3555C103.087 68.3555 103.28 68.3132 103.446 68.2285C103.612 68.1439 103.751 68.012 103.861 67.833C103.975 67.6507 104.06 67.418 104.115 67.1348C104.171 66.8483 104.198 66.5065 104.198 66.1094ZM110.95 64.7324V71.0312H110.042V63.7168H110.872L110.95 64.7324ZM114.51 66.3145V66.417C114.51 66.8011 114.464 67.1576 114.373 67.4863C114.282 67.8118 114.148 68.0951 113.972 68.3359C113.8 68.5768 113.587 68.764 113.333 68.8975C113.079 69.0309 112.788 69.0977 112.459 69.0977C112.123 69.0977 111.827 69.0423 111.57 68.9316C111.313 68.821 111.095 68.6598 110.916 68.4482C110.737 68.2367 110.594 67.9827 110.486 67.6865C110.382 67.3903 110.31 67.0566 110.271 66.6855V66.1387C110.31 65.748 110.384 65.3981 110.491 65.0889C110.598 64.7796 110.74 64.516 110.916 64.2979C111.095 64.0765 111.311 63.9089 111.565 63.7949C111.819 63.6777 112.112 63.6191 112.444 63.6191C112.776 63.6191 113.071 63.6842 113.328 63.8145C113.585 63.9414 113.802 64.1237 113.977 64.3613C114.153 64.599 114.285 64.8838 114.373 65.2158C114.464 65.5446 114.51 65.9108 114.51 66.3145ZM113.601 66.417V66.3145C113.601 66.0508 113.574 65.8034 113.518 65.5723C113.463 65.3379 113.377 65.1328 113.26 64.957C113.146 64.778 112.999 64.638 112.82 64.5371C112.641 64.4329 112.428 64.3809 112.18 64.3809C111.953 64.3809 111.754 64.4199 111.585 64.498C111.419 64.5762 111.277 64.682 111.16 64.8154C111.043 64.9456 110.947 65.0954 110.872 65.2646C110.8 65.4307 110.747 65.6032 110.711 65.7822V67.0469C110.776 67.2747 110.867 67.4896 110.984 67.6914C111.101 67.89 111.258 68.0511 111.453 68.1748C111.648 68.2952 111.894 68.3555 112.19 68.3555C112.434 68.3555 112.644 68.305 112.82 68.2041C112.999 68.0999 113.146 67.9583 113.26 67.7793C113.377 67.6003 113.463 67.3952 113.518 67.1641C113.574 66.9297 113.601 66.6807 113.601 66.417ZM117.688 68.4531L119.157 63.7168H120.124L118.005 69.8154C117.956 69.9456 117.891 70.0856 117.81 70.2354C117.732 70.3883 117.631 70.5332 117.507 70.6699C117.383 70.8066 117.234 70.9173 117.058 71.002C116.885 71.0898 116.679 71.1338 116.438 71.1338C116.366 71.1338 116.275 71.124 116.164 71.1045C116.054 71.085 115.975 71.0687 115.93 71.0557L115.925 70.3232C115.951 70.3265 115.992 70.3298 116.047 70.333C116.106 70.3395 116.146 70.3428 116.169 70.3428C116.374 70.3428 116.548 70.3151 116.692 70.2598C116.835 70.2077 116.955 70.1182 117.053 69.9912C117.154 69.8675 117.24 69.6966 117.312 69.4785L117.688 68.4531ZM116.609 63.7168L117.981 67.8184L118.215 68.7705L117.566 69.1025L115.622 63.7168H116.609ZM124.928 61.417H125.671C125.671 61.736 125.622 61.9899 125.524 62.1787C125.426 62.3643 125.293 62.5075 125.124 62.6084C124.958 62.7093 124.769 62.7858 124.557 62.8379C124.349 62.89 124.132 62.9404 123.908 62.9893C123.628 63.0479 123.367 63.1406 123.127 63.2676C122.889 63.3913 122.684 63.5671 122.511 63.7949C122.342 64.0228 122.217 64.319 122.135 64.6836C122.057 65.0482 122.036 65.499 122.072 66.0361V66.4854H121.33V66.0361C121.33 65.4339 121.387 64.9082 121.501 64.459C121.618 64.0098 121.782 63.6305 121.994 63.3213C122.205 63.012 122.456 62.7663 122.746 62.584C123.039 62.4017 123.361 62.2764 123.713 62.208C123.966 62.1592 124.185 62.1071 124.367 62.0518C124.549 61.9932 124.687 61.915 124.782 61.8174C124.879 61.7197 124.928 61.5863 124.928 61.417ZM123.859 64.0195C124.204 64.0195 124.512 64.0798 124.782 64.2002C125.052 64.3206 125.282 64.4883 125.47 64.7031C125.659 64.918 125.802 65.1719 125.9 65.4648C126.001 65.7546 126.051 66.0703 126.051 66.4121V66.5195C126.051 66.8874 125.998 67.2292 125.89 67.5449C125.786 67.8574 125.631 68.1309 125.426 68.3652C125.225 68.5964 124.977 68.777 124.684 68.9072C124.394 69.0374 124.064 69.1025 123.693 69.1025C123.322 69.1025 122.99 69.0374 122.697 68.9072C122.407 68.777 122.16 68.5964 121.955 68.3652C121.75 68.1309 121.593 67.8574 121.486 67.5449C121.382 67.2292 121.33 66.8874 121.33 66.5195V66.4121C121.33 66.3307 121.344 66.251 121.374 66.1729C121.403 66.0947 121.439 66.015 121.481 65.9336C121.527 65.8522 121.567 65.766 121.603 65.6748C121.724 65.3818 121.888 65.11 122.096 64.8594C122.308 64.6087 122.56 64.4069 122.853 64.2539C123.149 64.0977 123.485 64.0195 123.859 64.0195ZM123.683 64.7568C123.351 64.7568 123.078 64.8333 122.863 64.9863C122.651 65.1393 122.493 65.3428 122.389 65.5967C122.285 65.8473 122.233 66.1191 122.233 66.4121V66.5195C122.233 66.7669 122.262 67.0013 122.321 67.2227C122.379 67.444 122.467 67.641 122.585 67.8135C122.705 67.9827 122.856 68.1162 123.039 68.2139C123.224 68.3115 123.442 68.3604 123.693 68.3604C123.944 68.3604 124.16 68.3115 124.342 68.2139C124.525 68.1162 124.674 67.9827 124.792 67.8135C124.909 67.641 124.997 67.444 125.055 67.2227C125.114 67.0013 125.143 66.7669 125.143 66.5195V66.4121C125.143 66.1908 125.114 65.9808 125.055 65.7822C124.997 65.5837 124.907 65.4079 124.787 65.2549C124.67 65.1019 124.518 64.9814 124.333 64.8936C124.15 64.8024 123.934 64.7568 123.683 64.7568Z" fill="white"/>
</g>
<defs>
<clipPath id="clip0_2056_12824">
<rect width="170" height="72" fill="white" transform="translate(0 -0.00146484)"/>
</clipPath>
</defs>
</svg>
