<svg width="170" height="70" viewBox="0 0 170 70" fill="none" xmlns="http://www.w3.org/2000/svg">
<g clip-path="url(#clip0_2056_12429)">
<path fill-rule="evenodd" clip-rule="evenodd" d="M7.95442 43.5121C7.95442 45.1119 7.98479 46.1876 7.95442 47.2909C7.92404 49.0838 6.861 50.2147 4.97788 50.5181C3.18589 50.7939 1.84949 50.0216 1.18128 48.3115C0.178983 45.7739 -0.185491 43.1259 0.0878641 40.4504C0.573829 35.1821 1.87986 30.1069 4.0667 25.2248C4.61341 24.0295 5.29173 22.8986 6.10168 21.8321C8.04553 19.2669 11.508 19.1842 13.6341 21.6114C14.5453 22.632 15.2743 23.7629 15.9121 24.9489C15.9931 25.1328 16.0741 25.3167 16.1551 25.5006C16.2766 25.7488 16.398 25.9971 16.7322 25.9971C17.127 25.9971 17.1877 25.7212 17.2789 25.473C17.7345 24.3697 18.3419 23.3216 19.0709 22.3286C19.2733 22.0344 19.4961 21.7585 19.7391 21.5011C21.8044 19.3221 24.8113 19.2945 26.8767 21.4459C28.456 23.1009 29.3672 25.0593 30.1569 27.1004C31.9793 31.8446 32.9208 36.6992 32.6171 41.7468C32.4956 44.1741 32.1008 46.491 30.5214 48.5321C29.4583 49.8561 28.0916 50.6008 26.2388 50.5457C24.5987 50.5181 23.4445 49.6354 23.2623 48.146C23.0193 46.0497 22.8371 43.9534 22.6852 41.8571C22.5637 39.8988 22.0474 38.0231 21.6829 36.1199C21.6222 35.8165 21.5007 35.5959 21.1362 35.6234C20.7414 35.6234 20.6502 35.9268 20.5591 36.2027C20.0124 37.8852 19.4657 39.5953 18.9494 41.3055C18.676 42.2433 18.2204 43.1535 17.7345 44.0086C17.0966 45.1119 15.9425 45.3325 14.6972 45.2774C13.5126 45.2222 12.9052 44.5326 12.6015 43.5672C11.994 41.5813 11.508 39.5402 10.7183 37.6094C10.4754 37.0577 10.2324 36.5612 9.98939 36.0372C9.8679 35.7062 9.65529 35.4855 9.26045 35.5131C8.80485 35.5683 8.77448 35.8993 8.68336 36.2027C8.04553 38.7679 7.83293 41.3606 7.95442 43.5121ZM56.4294 36.4233C56.5509 40.0091 56.1864 43.7327 55.1537 47.3737C54.9411 48.1736 54.5766 48.9459 54.0299 49.6079C53.4225 50.3526 52.6328 50.6836 51.6305 50.5181C50.6282 50.3526 49.9296 49.8285 49.6866 48.8907C49.474 48.0356 49.2918 47.153 49.0792 46.2704C49.0184 46.0497 49.0792 45.7739 48.7451 45.6911C48.3806 45.5808 48.1376 45.7463 47.9554 45.9945C47.4087 46.7117 46.862 47.4288 46.2849 48.146C45.8293 48.6976 45.3433 49.2217 44.7055 49.663C42.4275 51.2352 39.7851 50.7112 38.4791 48.3942C37.6894 47.0427 37.2338 45.6084 36.8997 44.1189C36.11 40.6159 35.8366 37.0853 36.5352 33.4996C37.0515 30.9344 39.694 29.3622 42.4275 30.0241C43.3691 30.2724 43.9158 30.7689 44.0677 31.6515C44.4018 33.4444 44.5536 35.2924 45.07 37.0577C45.2218 37.637 45.4344 38.1886 45.6167 38.7679C45.7685 39.1264 46.0115 39.4574 46.4671 39.5126C46.9227 39.5678 47.1961 39.2643 47.439 38.9334C48.1376 38.0507 48.3502 37.0853 47.9554 36.0372C47.4694 34.8511 47.5302 33.6099 47.7124 32.3963C47.925 31.0999 48.8666 30.3 50.2637 30.0793C51.5697 29.8587 52.8454 29.8311 54.1211 30.1621C55.6397 30.6034 56.3686 31.486 56.4294 32.9203C56.4294 32.9755 56.4294 33.0399 56.4294 33.1134C56.4294 34.1616 56.4294 35.2097 56.4294 36.4233ZM122.855 36.7543C122.703 40.5056 122.521 44.0913 121.397 47.5667C121.184 48.2287 120.911 48.8907 120.486 49.4699C119.909 50.2423 119.119 50.656 118.086 50.5457C117.084 50.4353 116.446 49.8837 116.082 49.0286C115.687 48.1184 115.596 47.153 115.383 46.2152C115.322 46.0221 115.353 45.7739 115.049 45.6911C114.745 45.6359 114.472 45.7187 114.29 45.9669C114.067 46.2612 113.844 46.5646 113.621 46.8772C112.953 47.7874 112.255 48.6425 111.374 49.3596C109.065 51.2904 106.241 50.8215 104.813 48.3115C103.659 46.3255 103.143 44.1741 102.839 41.9675C102.535 39.8436 102.353 37.7197 102.505 35.5683C102.596 34.4925 102.778 33.4444 103.234 32.4514C104.236 30.2172 106.453 29.6932 108.397 29.8587C109.491 29.9414 110.25 30.7413 110.432 31.8446C110.797 33.9961 111.04 36.1751 111.738 38.2714C111.829 38.5472 111.92 38.823 112.072 39.0713C112.437 39.5953 113.287 39.6229 113.682 39.1264C114.32 38.2438 114.806 37.306 114.35 36.1751C113.834 34.9614 113.773 33.6651 114.047 32.3687C114.29 31.2102 114.988 30.4103 116.294 30.1345C117.661 29.8587 119.058 29.8587 120.425 30.1345C121.822 30.4379 122.49 31.3205 122.703 32.5618C122.976 33.9961 122.794 35.4855 122.855 36.7543ZM136.158 29.9414C137.585 29.8862 138.983 30.2172 140.289 30.9068C141.139 31.3481 141.655 31.9549 141.625 32.9203C141.625 33.5823 141.929 33.8581 142.688 33.8857C144.116 33.9685 144.51 34.2443 144.936 35.4855C145.695 37.7473 146.272 40.0091 145.938 42.3812C145.482 46.0497 143.235 50.0492 137.1 50.4629C135.004 50.5733 132.999 50.5733 131.116 49.663C128.443 48.3942 126.742 46.4358 126.013 43.7879C125.376 41.4434 125.376 39.0989 126.074 36.7819C127.441 32.3687 130.964 29.9966 136.158 29.9414ZM140.441 36.4785C140.41 36.2303 140.349 35.7889 140.319 35.3476C140.319 34.7684 140.015 34.4098 139.408 34.2443C138.8 34.0972 138.203 33.9409 137.616 33.7754C136.492 33.4444 135.52 33.7478 134.7 34.4374C133.607 35.4304 133.333 36.6716 133.789 37.9404C134.214 39.2368 135.247 40.0642 136.705 40.3952C136.978 40.478 137.221 40.4228 137.494 40.3677C139.286 40.0091 140.471 38.5472 140.441 36.4785ZM169.325 35.6786C169.112 39.8436 168.626 43.9534 167.563 48.0081C167.503 48.2471 167.412 48.477 167.29 48.6976C166.895 49.4699 166.257 50.0216 165.255 50.0216C164.222 50.0216 163.463 49.5527 163.068 48.67C162.491 47.4564 162.248 46.1324 162.127 44.8085C162.005 43.8982 161.944 43.0156 161.853 42.1329C161.793 41.4985 161.367 41.1676 160.669 41.2503C159.606 41.3331 158.543 41.4158 157.449 41.2779C156.903 41.2227 156.538 41.5261 156.477 42.0502C156.234 43.4845 156.002 44.928 155.779 46.3807C155.637 47.2082 155.414 48.0081 155.111 48.7804C154.746 49.7182 154.23 49.994 152.984 49.994C151.891 50.0216 151.223 49.663 150.889 48.808C150.372 47.4564 150.038 46.0497 149.795 44.6154C149.249 41.4158 148.793 38.2162 148.854 34.9615C148.854 33.9961 148.945 33.0307 149.309 32.1204C150.069 30.2724 152.073 29.4449 154.351 30.0241C156.204 30.4931 157.419 32.2859 157.115 34.0512C156.781 35.8165 157.024 36.0923 159.029 35.982C159.251 35.982 159.464 35.9636 159.666 35.9268C160.669 35.7613 160.79 35.651 160.881 34.7684C160.912 34.1616 160.881 33.5547 161.003 33.0031C161.489 30.6585 163.25 29.5552 165.832 29.9966C167.837 30.3551 168.657 31.0999 169.052 32.9479C169.234 33.8581 169.355 34.7684 169.325 35.6786ZM78.723 45.3601C78.7534 46.9323 78.2067 48.3115 76.9918 49.4699C76.0198 50.4078 74.8353 50.7112 73.4381 50.4629C72.3751 50.2698 71.6765 49.7182 71.2817 48.7804C70.249 46.3531 69.3378 43.9258 68.0014 41.6365C67.8192 41.3606 67.6673 41.0572 67.4243 40.809C66.9687 40.3125 66.6346 40.3401 66.3005 40.9469C65.7235 41.995 65.5108 43.1811 65.2679 44.3396C64.9641 45.8566 64.9338 47.4288 64.3871 48.9183C63.8707 50.3802 62.5951 50.9594 61.1372 50.3802C60.0741 49.9664 59.8008 49.1114 59.8008 48.1736C59.8615 46.1876 60.1956 44.2292 60.8031 42.2984C61.775 39.1264 62.8988 35.982 64.6908 33.0858C65.0249 32.5618 65.4197 32.0653 65.8146 31.5688C67.5762 29.3622 70.0668 29.6656 71.9499 30.8516C72.4966 31.1826 72.9218 31.6515 73.2863 32.148C75.7465 35.5407 77.6903 39.154 78.48 43.2087C78.561 43.6132 78.6218 44.027 78.6623 44.4499C78.6926 44.7533 78.6926 45.0567 78.723 45.3601ZM80.8491 47.6495C80.8491 45.829 81.1528 44.0362 81.6995 42.2984C82.7322 39.154 83.7953 36.0096 85.5873 33.141C85.9517 32.5618 86.377 32.0101 86.8629 31.486C88.7764 29.4173 91.6314 29.3897 93.5753 31.4584C94.5169 32.4514 95.2762 33.5271 95.9444 34.658C97.6149 37.5266 98.9209 40.478 99.5284 43.6776C99.8625 45.5532 99.6499 47.4012 98.4046 49.001C97.463 50.1871 96.1874 50.6284 94.6384 50.5181C93.3323 50.4078 92.573 49.6906 92.1174 48.6425C91.4492 46.9048 90.7506 45.1946 89.9306 43.5121C89.5357 42.7122 89.1105 41.9399 88.6853 41.1676C88.4727 40.809 88.1993 40.5607 87.7134 40.5883C87.197 40.6159 87.1059 40.9745 86.9844 41.3606C86.2251 43.5397 85.9821 45.8014 85.6176 48.0356C85.5265 48.5597 85.405 49.0838 85.1317 49.5251C84.585 50.4078 83.613 50.7112 82.3677 50.4078C81.244 50.1319 80.8491 49.6354 80.8491 48.5045C80.8694 48.2287 80.8694 47.9437 80.8491 47.6495Z" fill="#9D0DC3"/>
<path fill-rule="evenodd" clip-rule="evenodd" d="M26.7248 56.2C26.6944 55.6208 26.8159 55.1243 27.2715 54.7105C27.5145 54.5175 27.7575 54.3796 28.0612 54.4623C28.4257 54.5726 28.5472 54.8209 28.5775 55.1243C28.6079 55.8414 28.5168 56.531 28.6383 57.2206C28.6686 57.3309 28.6686 57.4412 28.699 57.5516C28.9116 58.0481 28.9724 58.71 29.7621 58.7652C30.5821 58.8204 30.8251 58.2136 31.0681 57.6619C31.2807 57.2482 31.1288 56.862 30.734 56.6138C30.3999 56.3655 30.0354 56.2 29.6709 56.0069C29.2154 55.7587 28.7901 55.4277 28.699 54.9588C28.5775 54.4623 28.4864 53.8831 29.0635 53.5521C29.6406 53.1659 30.2784 53.1659 30.8859 53.4969C31.2807 53.69 31.5844 54.021 31.8578 54.3796C32.6779 55.4277 33.7409 55.5104 34.7432 54.683C35.4418 54.0761 35.8366 54.1037 36.3833 54.8485C37.0212 55.6759 37.3249 56.6138 37.7501 57.524C37.8716 57.8274 37.8109 58.2963 38.2968 58.3239C38.722 58.3515 38.8132 57.9101 39.0258 57.6343C39.5421 56.9447 40.0281 56.2 40.5748 55.538C41.3645 54.5726 42.0934 54.6278 42.6401 55.7311C43.0653 56.5586 43.3691 57.4137 43.7639 58.2136C44.098 58.9031 44.341 58.9583 44.8573 58.379C45.4344 57.7446 45.89 57.0275 46.4367 56.3655C46.6493 56.0897 46.8923 55.8139 47.1657 55.5932C47.925 55.014 48.8969 55.2346 49.2614 56.0897C49.5347 56.6965 49.7474 57.3033 50.0207 57.9101C50.5067 58.9859 50.9015 59.1789 52.1164 58.8204C52.572 58.6825 52.9972 58.5721 53.2098 59.0962C53.4528 59.6754 53.058 59.9237 52.5416 60.0616C50.4459 60.7236 48.8665 59.9788 48.2287 57.9929C48.1376 57.7446 48.168 57.4137 47.8035 57.3585C47.4086 57.3309 47.3479 57.6619 47.196 57.8826C46.7101 58.4894 46.2545 59.1238 45.647 59.6754C44.584 60.6132 43.3994 60.4753 42.6401 59.3169C42.306 58.7652 42.0934 58.186 41.8201 57.6067C41.7289 57.4137 41.6986 57.1654 41.4252 57.1378C41.1822 57.1102 41.0607 57.3309 40.9392 57.4964C40.4229 58.186 39.9673 58.9031 39.3295 59.4824C38.3879 60.365 37.5071 60.2823 36.8389 59.2065C36.4137 58.5445 36.1707 57.855 35.9277 57.1378C35.6848 56.4758 35.1988 56.2276 34.4698 56.3379C34.1357 56.3931 33.832 56.4207 33.4979 56.4758C32.9816 56.5862 32.6475 56.8344 32.5867 57.3861C32.526 57.9929 32.4045 58.6273 32.0704 59.1789C31.3414 60.3098 29.7924 60.6408 28.6383 59.8409C27.3322 58.9307 26.8767 57.6343 26.7248 56.2ZM71.1905 60.365C71.4943 59.6754 71.4943 59.0135 71.6765 58.3515C71.9195 57.524 72.1928 56.7241 72.5877 55.9518C73.4381 54.4071 75.1694 53.9934 76.7488 54.9588C77.6296 55.5104 78.237 56.3103 78.8445 57.0827C79.1482 57.4412 79.3912 57.8274 79.7253 58.1584C80.4846 58.9859 81.4565 59.2341 82.5803 58.9307C82.8841 58.848 83.1878 58.71 83.5219 58.9031C83.7345 59.041 83.8256 59.2617 83.7952 59.4824C83.7345 59.7582 83.5219 59.8961 83.2485 59.9788C81.6691 60.5305 80.2112 60.2823 78.9052 59.3169C78.1459 58.7652 77.6296 58.0205 76.9917 57.3585C76.8702 57.2482 76.7488 57.0827 76.5969 56.9723C75.5035 55.961 74.5923 56.0805 73.8633 57.3309C73.104 58.6273 72.8914 60.0616 72.7395 61.4959C72.2536 65.716 72.3751 69.9362 72.4358 74.1839C72.4358 74.6804 72.4966 75.2321 71.7372 75.2872C71.0083 75.3424 70.7957 74.8459 70.7349 74.3218C70.6438 73.2185 70.5831 72.0876 70.5527 70.9843C70.4616 67.8399 70.3705 64.6955 69.7934 61.6062C69.3682 59.4272 68.6088 57.3585 67.3636 55.4553C66.8472 54.683 66.8472 54.2968 67.4243 54.021C67.971 53.7176 68.6088 53.9658 69.0341 54.683C70.0364 56.3655 70.6438 58.186 71.0994 60.034C71.0994 60.1168 71.1298 60.2271 71.1905 60.365ZM137.646 57.4964C137.13 58.1584 136.705 58.8755 136.067 59.4272C134.913 60.4202 133.91 60.1995 133.424 58.8204C133.212 58.1584 133.242 57.4964 133.333 56.8344C133.394 56.4207 133.242 56.2552 132.756 56.3103C131.389 56.4483 130.812 56.6413 130.812 57.9653C130.782 59.041 129.992 59.8961 128.96 60.1719C127.897 60.4477 126.925 60.0892 126.165 59.1514C125.345 58.1308 124.981 56.9999 125.072 55.7311C125.133 54.7381 125.892 54.2416 126.773 54.6554C126.864 53.9106 127.228 53.359 128.079 53.2762C128.899 53.1935 129.567 53.6072 130.053 54.2141C130.205 54.3796 130.296 54.5726 130.387 54.7381C130.478 54.9036 130.569 55.0415 130.752 55.1519C131.329 55.4553 133.394 54.876 133.637 54.3244C133.789 53.9382 134.001 53.6072 134.518 53.7176C135.034 53.8279 135.125 54.2141 135.095 54.6554C135.004 55.6208 134.761 56.5862 134.852 57.5516C134.852 57.7722 134.73 58.1032 135.064 58.186C135.399 58.2411 135.49 57.9101 135.642 57.7171C136.765 56.2276 137.707 54.6278 139.195 53.3866C139.681 52.9728 140.197 52.6418 140.896 52.6694C141.352 52.697 141.716 52.8349 141.838 53.2762C141.959 53.7176 141.655 54.021 141.261 54.1865C140.41 54.5175 139.681 54.9864 139.043 55.5932C138.679 55.9794 138.588 56.2828 138.983 56.6965C139.317 57.0275 139.56 57.4412 139.833 57.7998C140.592 58.848 141.412 59.1789 142.779 58.9307C142.901 58.9123 143.022 58.8939 143.144 58.8755C143.569 58.8204 143.842 58.9583 143.933 59.3169C144.055 59.703 143.812 59.8685 143.417 60.0064C141.412 60.6408 139.377 59.9788 138.223 58.3239C138.071 58.0481 137.98 57.7446 137.646 57.4964ZM126.894 54.9864C126.894 56.0897 126.682 57.1378 127.259 58.1308C127.502 58.517 127.775 58.9031 128.352 58.7652C129.051 58.5997 129.263 58.0205 129.354 57.4412C129.446 56.9723 129.476 56.531 128.838 56.3379C128.018 56.1173 127.35 55.6759 126.894 54.9864ZM93.0286 55.3174C92.8159 55.3174 92.816 55.3174 92.7856 55.3174C92.4211 55.345 91.9655 55.0691 91.7529 55.4277C91.5707 55.7587 92.0263 55.9794 92.2085 56.2276C92.816 57.0551 93.3627 57.9101 93.2108 58.9583C93.0286 60.4477 91.7225 61.2476 90.1128 60.9994C88.8371 60.7787 87.8348 60.1719 87.0451 59.2617C86.8021 58.9583 86.5288 58.71 86.1339 58.6273C85.7391 58.5445 85.4961 58.2963 85.7391 57.9377C86.0428 57.4688 85.9517 56.9723 85.8302 56.4758C85.6176 55.5104 85.9213 54.6278 86.4073 53.7727C86.8629 53.028 87.5918 52.7798 88.4119 53.028C89.2016 53.2762 89.6268 53.9106 89.5357 54.7105C89.4446 55.4829 89.1408 56.1448 88.6853 56.7792C88.3512 57.193 87.7133 57.524 88.0778 58.1584C88.503 58.8755 89.1408 59.3996 90.052 59.5375C90.5987 59.6203 91.2062 59.6754 91.5403 59.2065C91.9048 58.7652 91.6922 58.2411 91.4188 57.7998C91.0543 57.2482 90.6291 56.6965 90.2039 56.1449C89.809 55.6208 89.6572 55.0967 89.9913 54.5175C90.3558 53.9382 90.9025 53.8003 91.5707 53.8003C93.2412 53.8555 94.9117 53.9934 96.4607 54.6002C97.8882 55.1795 98.3438 55.9518 98.1008 57.3309C98.0806 57.3677 98.0704 57.4137 98.0704 57.4688C97.7667 58.9307 97.8882 59.041 99.498 58.7928C99.8928 58.7376 100.197 58.8204 100.318 59.1789C100.47 59.5927 100.227 59.8409 99.8321 59.9513C99.498 60.0616 99.1335 60.1719 98.769 60.1995C97.2504 60.3926 96.3392 59.5927 96.4303 58.1584C96.4607 57.7446 96.4911 57.3585 96.5518 56.9447C96.6125 56.3379 96.2784 55.9794 95.671 55.7863C94.7598 55.5104 93.8182 55.3174 93.0286 55.3174ZM87.4096 55.8966C87.7741 55.5656 87.8348 55.207 87.8956 54.876C87.9259 54.7657 87.9259 54.6278 87.7741 54.6002C87.6222 54.5726 87.5918 54.683 87.5311 54.7933C87.3489 55.1243 87.3185 55.4553 87.4096 55.8966ZM118.906 60.2823C117.266 60.2547 116.294 59.4824 115.778 57.9653C115.717 57.7171 115.747 57.3861 115.322 57.3585C114.988 57.3585 114.927 57.6343 114.775 57.8274C114.35 58.3515 113.986 58.9031 113.53 59.4272C112.437 60.6408 110.888 60.5029 110.068 59.1238C109.825 58.6825 109.642 58.2135 109.43 57.7446C109.308 57.524 109.308 57.1654 108.944 57.1378C108.671 57.1378 108.549 57.4137 108.367 57.6067C107.972 58.1584 107.577 58.71 107.152 59.2065C105.998 60.5029 104.995 60.365 104.206 58.8755C104.125 58.71 104.044 58.5445 103.963 58.379C103.507 57.4137 103.112 56.4207 102.414 55.5932C102.049 55.1519 102.11 54.7381 102.596 54.4071C103.082 54.0761 103.477 54.2968 103.811 54.683C104.206 55.1519 104.509 55.6759 104.783 56.2552C104.935 56.6413 105.087 57.0551 105.269 57.4412C105.421 57.7446 105.39 58.2687 105.815 58.2963C106.332 58.3515 106.423 57.8274 106.636 57.5516C107.03 57.0275 107.365 56.4758 107.79 55.9794C108.154 55.5104 108.488 54.8209 109.248 54.9036C110.037 54.9864 110.189 55.7035 110.463 56.2552C110.736 56.8344 110.948 57.4137 111.191 57.9929C111.343 58.2963 111.343 58.71 111.829 58.7376C112.285 58.7652 112.437 58.4342 112.649 58.1584C112.983 57.7171 113.318 57.2482 113.652 56.8068C113.804 56.5862 113.955 56.3655 114.138 56.1449C115.353 54.8209 116.324 54.9588 117.023 56.5862C117.205 57.0275 117.388 57.4964 117.6 57.9653C118.025 58.9031 118.39 59.0686 119.483 58.8755C120.03 58.7652 120.698 58.4894 120.88 59.2341C121.032 60.0064 120.273 59.9513 119.757 60.0892C119.422 60.1995 119.088 60.2271 118.906 60.2823ZM59.74 57.4964C59.2844 58.0481 58.8896 58.5445 58.4947 59.041C58.3125 59.2893 58.0391 59.4824 57.7658 59.6754C56.7938 60.2823 56.0649 60.1168 55.6093 59.1238C55.1537 58.1584 55.2752 57.1378 55.3359 56.1449C55.3967 55.5932 55.5182 55.0691 55.6093 54.5451C55.7004 54.0761 55.8827 53.6624 56.5509 53.7452C57.1583 53.8279 57.2191 54.2416 57.1583 54.7105C57.0672 55.6208 56.9761 56.531 56.885 57.4412C56.885 57.7171 56.7635 58.0481 57.1279 58.1584C57.462 58.2687 57.5835 57.9377 57.7354 57.7171C58.7984 56.2 59.7704 54.6278 61.2283 53.4142C61.6839 53.028 62.1394 52.7246 62.7773 52.6694C63.2936 52.6418 63.7188 52.7522 63.8707 53.2487C64.0226 53.7452 63.7492 54.021 63.2632 54.1865C62.3521 54.5175 61.6231 55.0967 60.9853 55.7587C60.8334 55.8966 60.5601 56.0621 60.803 56.3103C61.3801 56.8896 61.6535 57.6619 62.2609 58.2411C62.9595 58.9031 63.7796 59.2065 64.7819 58.9307C64.8831 58.9123 64.9844 58.8939 65.0856 58.8755C65.5412 58.7928 65.8753 58.8755 65.9968 59.3169C66.1183 59.7582 65.7842 59.8961 65.4197 60.0064C63.4151 60.6132 61.6535 60.0616 60.4082 58.4066C60.1956 58.1308 59.983 57.855 59.74 57.4964Z" fill="#FFCE22"/>
<path d="M56.2606 24.4908C55.7016 24.4908 55.2203 24.3588 54.8166 24.0949C54.4129 23.8309 54.1024 23.4674 53.885 23.0041C53.6676 22.5409 53.559 22.0117 53.559 21.4166C53.559 20.811 53.6702 20.2767 53.8928 19.8135C54.1179 19.3477 54.431 18.9841 54.8321 18.7227C55.2358 18.4588 55.7068 18.3268 56.245 18.3268C56.6642 18.3268 57.0421 18.4044 57.3785 18.5597C57.7149 18.715 57.9905 18.9323 58.2052 19.2118C58.42 19.4913 58.5533 19.8173 58.6051 20.19H57.689C57.6191 19.9183 57.4639 19.6776 57.2232 19.468C56.9851 19.2558 56.6642 19.1497 56.2606 19.1497C55.9034 19.1497 55.5903 19.2429 55.3212 19.4292C55.0547 19.6129 54.8464 19.873 54.6963 20.2094C54.5488 20.5432 54.475 20.9352 54.475 21.3855C54.475 21.8461 54.5475 22.2472 54.6924 22.5888C54.8399 22.9304 55.0469 23.1956 55.3134 23.3845C55.5826 23.5734 55.8983 23.6679 56.2606 23.6679C56.4986 23.6679 56.7147 23.6265 56.9088 23.5437C57.1029 23.4609 57.2672 23.3418 57.4018 23.1866C57.5363 23.0313 57.6321 22.845 57.689 22.6276H58.6051C58.5533 22.9796 58.4252 23.2966 58.2208 23.5786C58.0189 23.8581 57.7511 24.0806 57.4173 24.2463C57.086 24.4093 56.7005 24.4908 56.2606 24.4908ZM65.7977 16.417V24.3666H64.835V17.4263H64.7885L62.8477 18.715V17.7368L64.835 16.417H65.7977ZM70.6148 16.3084C70.9408 16.3109 71.2669 16.3731 71.5929 16.4947C71.919 16.6163 72.2166 16.8181 72.4857 17.1002C72.7548 17.3797 72.9709 17.7614 73.1339 18.2453C73.297 18.7292 73.3785 19.336 73.3785 20.0658C73.3785 20.7722 73.3112 21.3997 73.1766 21.9483C73.0447 22.4944 72.8532 22.955 72.6022 23.3302C72.3537 23.7054 72.051 23.9901 71.6939 24.1842C71.3393 24.3782 70.9382 24.4753 70.4906 24.4753C70.0455 24.4753 69.6482 24.3873 69.2989 24.2113C68.9521 24.0328 68.6675 23.7856 68.4449 23.4699C68.225 23.1516 68.084 22.7829 68.0218 22.3637H68.969C69.0544 22.7286 69.2239 23.03 69.4775 23.2681C69.7336 23.5036 70.0713 23.6213 70.4906 23.6213C71.1038 23.6213 71.5878 23.3535 71.9423 22.8178C72.2994 22.2822 72.4779 21.5253 72.4779 20.5471H72.4158C72.2709 20.7645 72.0988 20.9521 71.8996 21.1099C71.7003 21.2678 71.4791 21.3894 71.2358 21.4748C70.9926 21.5602 70.7338 21.6029 70.4595 21.6029C70.0041 21.6029 69.5861 21.4903 69.2057 21.2652C68.8279 21.0375 68.5252 20.7256 68.2974 20.3297C68.0723 19.9312 67.9597 19.4758 67.9597 18.9634C67.9597 18.4769 68.0684 18.0318 68.2858 17.6281C68.5058 17.2218 68.8137 16.8984 69.2096 16.6577C69.6081 16.417 70.0765 16.3006 70.6148 16.3084ZM70.6148 17.1623C70.2887 17.1623 69.995 17.2438 69.7336 17.4069C69.4749 17.5673 69.2691 17.7847 69.1165 18.059C68.9664 18.3307 68.8913 18.6322 68.8913 18.9634C68.8913 19.2946 68.9638 19.5961 69.1087 19.8678C69.2562 20.1369 69.4568 20.3517 69.7103 20.5121C69.9665 20.67 70.2577 20.7489 70.5837 20.7489C70.8295 20.7489 71.0586 20.7011 71.2708 20.6053C71.483 20.507 71.668 20.3737 71.8258 20.2055C71.9863 20.0347 72.1118 19.8419 72.2023 19.6271C72.2929 19.4098 72.3382 19.1833 72.3382 18.9479C72.3382 18.6373 72.2632 18.3462 72.1131 18.0745C71.9656 17.8028 71.7611 17.5828 71.4998 17.4146C71.241 17.2464 70.946 17.1623 70.6148 17.1623ZM77.4357 16.3084C77.7618 16.3109 78.0878 16.3731 78.4139 16.4947C78.74 16.6163 79.0375 16.8181 79.3067 17.1002C79.5758 17.3797 79.7919 17.7614 79.9549 18.2453C80.1179 18.7292 80.1994 19.336 80.1994 20.0658C80.1994 20.7722 80.1322 21.3997 79.9976 21.9483C79.8656 22.4944 79.6741 22.955 79.4231 23.3302C79.1747 23.7054 78.8719 23.9901 78.5148 24.1842C78.1603 24.3782 77.7592 24.4753 77.3115 24.4753C76.8664 24.4753 76.4692 24.3873 76.1199 24.2113C75.7731 24.0328 75.4885 23.7856 75.2659 23.4699C75.046 23.1516 74.9049 22.7829 74.8428 22.3637H75.7899C75.8753 22.7286 76.0448 23.03 76.2984 23.2681C76.5546 23.5036 76.8923 23.6213 77.3115 23.6213C77.9248 23.6213 78.4087 23.3535 78.7632 22.8178C79.1204 22.2822 79.2989 21.5253 79.2989 20.5471H79.2368C79.0919 20.7645 78.9198 20.9521 78.7205 21.1099C78.5213 21.2678 78.3 21.3894 78.0568 21.4748C77.8135 21.5602 77.5548 21.6029 77.2805 21.6029C76.825 21.6029 76.4071 21.4903 76.0267 21.2652C75.6489 21.0375 75.3461 20.7256 75.1184 20.3297C74.8933 19.9312 74.7807 19.4758 74.7807 18.9634C74.7807 18.4769 74.8894 18.0318 75.1068 17.6281C75.3267 17.2218 75.6347 16.8984 76.0306 16.6577C76.4291 16.417 76.8975 16.3006 77.4357 16.3084ZM77.4357 17.1623C77.1097 17.1623 76.816 17.2438 76.5546 17.4069C76.2958 17.5673 76.0901 17.7847 75.9374 18.059C75.7873 18.3307 75.7123 18.6322 75.7123 18.9634C75.7123 19.2946 75.7848 19.5961 75.9297 19.8678C76.0772 20.1369 76.2777 20.3517 76.5313 20.5121C76.7875 20.67 77.0786 20.7489 77.4047 20.7489C77.6505 20.7489 77.8795 20.7011 78.0917 20.6053C78.3039 20.507 78.4889 20.3737 78.6468 20.2055C78.8072 20.0347 78.9327 19.8419 79.0233 19.6271C79.1139 19.4098 79.1592 19.1833 79.1592 18.9479C79.1592 18.6373 79.0841 18.3462 78.934 18.0745C78.7865 17.8028 78.5821 17.5828 78.3207 17.4146C78.062 17.2464 77.767 17.1623 77.4357 17.1623ZM84.3654 24.4753C84.0393 24.4701 83.7133 24.408 83.3872 24.289C83.0612 24.1699 82.7636 23.9694 82.4944 23.6873C82.2253 23.4027 82.0092 23.0184 81.8462 22.5345C81.6832 22.048 81.6017 21.4373 81.6017 20.7023C81.6017 19.9985 81.6677 19.3748 81.7996 18.8314C81.9316 18.2854 82.1231 17.8261 82.3741 17.4534C82.6251 17.0782 82.9279 16.7936 83.2824 16.5995C83.6395 16.4054 84.0419 16.3084 84.4896 16.3084C84.9347 16.3084 85.3306 16.3976 85.6774 16.5762C86.0267 16.7522 86.3114 16.998 86.5313 17.3137C86.7513 17.6294 86.8936 17.993 86.9583 18.4044H86.0112C85.9232 18.0473 85.7524 17.751 85.4988 17.5155C85.2452 17.2801 84.9088 17.1623 84.4896 17.1623C83.8737 17.1623 83.3885 17.4301 83.034 17.9658C82.6821 18.5015 82.5048 19.2532 82.5022 20.221H82.5643C82.7092 20.0011 82.8813 19.8135 83.0806 19.6582C83.2824 19.5003 83.505 19.3787 83.7482 19.2933C83.9915 19.2079 84.2489 19.1652 84.5206 19.1652C84.9761 19.1652 85.3927 19.2791 85.7705 19.5068C86.1483 19.7319 86.4511 20.0438 86.6788 20.4423C86.9065 20.8382 87.0204 21.2924 87.0204 21.8047C87.0204 22.2964 86.9104 22.7467 86.6905 23.1555C86.4705 23.5618 86.1613 23.8853 85.7628 24.1259C85.3668 24.364 84.901 24.4805 84.3654 24.4753ZM84.3654 23.6213C84.6914 23.6213 84.9839 23.5398 85.2426 23.3768C85.504 23.2138 85.7097 22.9951 85.8598 22.7208C86.0125 22.4465 86.0888 22.1411 86.0888 21.8047C86.0888 21.4761 86.0151 21.1772 85.8676 20.9081C85.7227 20.6364 85.5221 20.4203 85.2659 20.2598C85.0123 20.0994 84.7225 20.0192 84.3964 20.0192C84.1506 20.0192 83.9216 20.0684 83.7094 20.1667C83.4972 20.2624 83.3109 20.3944 83.1504 20.5626C82.9926 20.7308 82.8684 20.9236 82.7778 21.141C82.6872 21.3558 82.6419 21.5822 82.6419 21.8203C82.6419 22.136 82.7157 22.431 82.8632 22.7053C83.0133 22.9796 83.2177 23.2008 83.4765 23.369C83.7379 23.5372 84.0342 23.6213 84.3654 23.6213ZM95.3164 18.4044V19.2584H92.5527V24.3666H91.6366V18.4044H95.3164ZM98.7662 24.4908C98.2279 24.4908 97.7557 24.3627 97.3494 24.1065C96.9457 23.8503 96.63 23.4919 96.4023 23.0313C96.1771 22.5707 96.0646 22.0324 96.0646 21.4166C96.0646 20.7955 96.1771 20.2534 96.4023 19.7902C96.63 19.327 96.9457 18.9673 97.3494 18.7111C97.7557 18.4549 98.2279 18.3268 98.7662 18.3268C99.3044 18.3268 99.7754 18.4549 100.179 18.7111C100.585 18.9673 100.901 19.327 101.126 19.7902C101.354 20.2534 101.468 20.7955 101.468 21.4166C101.468 22.0324 101.354 22.5707 101.126 23.0313C100.901 23.4919 100.585 23.8503 100.179 24.1065C99.7754 24.3627 99.3044 24.4908 98.7662 24.4908ZM98.7662 23.6679C99.175 23.6679 99.5114 23.5631 99.7754 23.3535C100.039 23.1439 100.235 22.8683 100.362 22.5267C100.488 22.1851 100.552 21.8151 100.552 21.4166C100.552 21.0181 100.488 20.6467 100.362 20.3025C100.235 19.9584 100.039 19.6802 99.7754 19.468C99.5114 19.2558 99.175 19.1497 98.7662 19.1497C98.3573 19.1497 98.0209 19.2558 97.757 19.468C97.493 19.6802 97.2976 19.9584 97.1708 20.3025C97.044 20.6467 96.9806 21.0181 96.9806 21.4166C96.9806 21.8151 97.044 22.1851 97.1708 22.5267C97.2976 22.8683 97.493 23.1439 97.757 23.3535C98.0209 23.5631 98.3573 23.6679 98.7662 23.6679ZM102.23 26.0745V23.5126H102.726C102.848 23.3858 102.953 23.2487 103.041 23.1012C103.129 22.9537 103.205 22.779 103.27 22.5772C103.337 22.3727 103.394 22.1243 103.441 21.8319C103.487 21.5369 103.529 21.1811 103.565 20.7645L103.767 18.4044H107.555V23.5126H108.471V26.0745H107.555V24.3666H103.146V26.0745H102.23ZM103.767 23.5126H106.639V19.2584H104.621L104.465 20.7645C104.401 21.3881 104.32 21.9328 104.225 22.3986C104.129 22.8644 103.976 23.2357 103.767 23.5126ZM111.442 24.5063C111.064 24.5063 110.721 24.4352 110.413 24.2928C110.105 24.1479 109.86 23.9396 109.679 23.6679C109.498 23.3936 109.408 23.0624 109.408 22.6742C109.408 22.3326 109.475 22.0557 109.609 21.8435C109.744 21.6288 109.924 21.4606 110.149 21.3389C110.374 21.2173 110.623 21.1267 110.894 21.0672C111.169 21.0051 111.444 20.9559 111.721 20.9197C112.083 20.8731 112.377 20.8382 112.602 20.8149C112.83 20.789 112.996 20.7463 113.099 20.6868C113.205 20.6273 113.258 20.5238 113.258 20.3763V20.3452C113.258 19.9623 113.153 19.6647 112.944 19.4525C112.737 19.2403 112.422 19.1342 112.001 19.1342C111.563 19.1342 111.22 19.2299 110.972 19.4214C110.723 19.6129 110.549 19.8173 110.448 20.0347L109.578 19.7242C109.734 19.3619 109.941 19.0798 110.199 18.878C110.461 18.6736 110.745 18.5312 111.053 18.451C111.364 18.3682 111.669 18.3268 111.969 18.3268C112.161 18.3268 112.381 18.3501 112.629 18.3967C112.88 18.4407 113.122 18.5325 113.355 18.6723C113.591 18.812 113.786 19.0229 113.941 19.305C114.097 19.587 114.174 19.9648 114.174 20.4384V24.3666H113.258V23.5592H113.212C113.149 23.6886 113.046 23.827 112.901 23.9745C112.756 24.1221 112.563 24.2476 112.323 24.3511C112.082 24.4546 111.788 24.5063 111.442 24.5063ZM111.581 23.6834C111.944 23.6834 112.249 23.6123 112.497 23.4699C112.748 23.3276 112.937 23.1439 113.064 22.9188C113.193 22.6936 113.258 22.4568 113.258 22.2084V21.37C113.219 21.4166 113.134 21.4593 113.002 21.4981C112.873 21.5343 112.723 21.5667 112.552 21.5951C112.384 21.621 112.219 21.6443 112.059 21.665C111.901 21.6831 111.773 21.6986 111.674 21.7116C111.436 21.7426 111.214 21.7931 111.007 21.863C110.802 21.9302 110.637 22.0324 110.51 22.1696C110.386 22.3042 110.324 22.4879 110.324 22.7208C110.324 23.0391 110.441 23.2797 110.677 23.4428C110.915 23.6032 111.216 23.6834 111.581 23.6834Z" fill="#ADADAD"/>
</g>
<defs>
<clipPath id="clip0_2056_12429">
<rect width="170" height="70" fill="white" transform="translate(0 -0.00160217)"/>
</clipPath>
</defs>
</svg>
