<svg width="50" height="51" viewBox="0 0 50 51" fill="none" xmlns="http://www.w3.org/2000/svg">
<path d="M18.9936 11.1118C17.8485 11.1118 16.917 12.0434 16.917 13.1885C16.917 13.5931 17.2448 13.9209 17.6494 13.9209C18.054 13.9209 18.3818 13.5931 18.3818 13.1885C18.3818 12.8512 18.6562 12.5767 18.9936 12.5767C19.3309 12.5767 19.6053 12.8512 19.6053 13.1885C19.6053 13.5931 19.9331 13.9209 20.3377 13.9209C20.7422 13.9209 21.0701 13.5931 21.0701 13.1885C21.0701 12.0434 20.1387 11.1118 18.9936 11.1118Z" fill="#424F60"/>
<path d="M31.0081 11.1118C29.8631 11.1118 28.9315 12.0434 28.9315 13.1885C28.9315 13.5931 29.2594 13.9209 29.6639 13.9209C30.0685 13.9209 30.3964 13.5931 30.3964 13.1885C30.3964 12.8512 30.6708 12.5767 31.0081 12.5767C31.3454 12.5767 31.6198 12.8512 31.6198 13.1885C31.6198 13.5931 31.9476 13.9209 32.3522 13.9209C32.7568 13.9209 33.0846 13.5931 33.0846 13.1885C33.0846 12.0434 32.1532 11.1118 31.0081 11.1118Z" fill="#424F60"/>
<path d="M26.9068 14.2083C26.6018 13.9426 26.1392 13.9743 25.8734 14.2793C25.6527 14.5325 25.3343 14.6778 24.9996 14.6778C24.665 14.6778 24.3466 14.5325 24.1259 14.2793C23.86 13.9744 23.3974 13.9427 23.0925 14.2083C22.7876 14.4741 22.7558 14.9367 23.0215 15.2417C23.5204 15.8142 24.2414 16.1426 24.9995 16.1426C25.7577 16.1426 26.4786 15.8143 26.9776 15.2417C27.2435 14.9367 27.2117 14.4741 26.9068 14.2083Z" fill="#424F60"/>
<path d="M22.6738 28.7707L23.0573 27.7638H25.6794L26.0586 28.7686C26.2196 29.0875 26.468 29.3637 27.0024 29.1952C27.3809 29.0524 27.5719 28.6299 27.429 28.2514L25.1883 22.3139C25.0763 22.0275 24.799 21.7684 24.3759 21.7555C24.1239 21.7477 23.7486 21.8717 23.5661 22.312L21.3049 28.2493C21.1609 28.6272 21.3507 29.0504 21.7287 29.1944C22.1062 29.3385 22.5298 29.1488 22.6738 28.7707ZM24.3743 24.3057L25.1266 26.2989H23.6152L24.3743 24.3057Z" fill="#424F60"/>
<path d="M29.3786 21.7998C29.0727 21.8952 28.8643 22.1785 28.8643 22.499V28.5099C28.8643 28.9145 29.1921 29.2423 29.5967 29.2423C30.0012 29.2423 30.3291 28.9145 30.3291 28.5099V24.8486L33.0583 28.8008C33.2743 29.1127 33.6345 29.2456 33.9754 29.1391C34.3237 29.0303 34.5488 28.7036 34.5488 28.2999L34.4926 22.4808C34.4886 22.0762 34.1578 21.7519 33.7531 21.7554C33.3486 21.7593 33.0238 22.0905 33.0277 22.4949L33.0639 26.2312L30.1993 22.0828C30.0173 21.8191 29.685 21.7046 29.3786 21.7998Z" fill="#424F60"/>
<path d="M35.8761 28.4148C35.8651 28.6939 36.0762 29.2356 36.6231 29.2421C36.6731 29.2419 37.8533 29.2374 38.3248 29.2291C40.0811 29.1985 41.3558 27.667 41.3558 25.5877C41.3558 23.4019 40.1131 21.9333 38.2635 21.9333H36.6085C36.3056 21.9405 35.8981 22.1743 35.876 22.6718V28.4148H35.8761ZM38.2635 23.3982C39.4635 23.3982 39.891 24.5292 39.891 25.5877C39.891 26.6574 39.3988 27.7454 38.2991 27.7645C38.0811 27.7683 37.6966 27.7713 37.3503 27.7736L37.3423 23.3982H38.2635Z" fill="#424F60"/>
<path d="M11.1263 21.7554H9.37707C8.97258 21.7554 8.64465 22.0832 8.64465 22.4878V28.5099C8.65178 28.8116 8.88411 29.2187 9.3803 29.2423C9.38049 29.2423 10.9885 29.2351 11.4318 29.2351C12.7294 29.2351 13.7851 28.1794 13.7851 26.8817C13.7851 26.1361 13.4361 25.4708 12.8934 25.0394C13.1149 24.7047 13.2443 24.304 13.2443 23.8735C13.2444 22.7055 12.2942 21.7554 11.1263 21.7554ZM11.1263 23.2202C11.4864 23.2202 11.7795 23.5133 11.7795 23.8734C11.7795 24.2336 11.4864 24.5267 11.1263 24.5267C11.0061 24.5266 10.4385 24.5288 10.1095 24.5283V23.2201H11.1263V23.2202ZM11.4319 27.7703C11.1888 27.7703 10.5966 27.7724 10.1095 27.7744V25.9946C10.2311 25.9932 11.255 25.993 11.4319 25.9932C11.9217 25.9932 12.3203 26.3918 12.3203 26.8817C12.3203 27.3717 11.9217 27.7703 11.4319 27.7703Z" fill="#424F60"/>
<path d="M19.8863 24.0528C19.8863 22.7859 18.8159 21.7554 17.5002 21.7554H15.9C15.4936 21.7554 15.1658 22.0832 15.1658 22.4878V28.5099C15.1658 28.9144 15.4936 29.2423 15.8982 29.2423C16.3028 29.2423 16.6306 28.9144 16.6306 28.5099V26.7514L18.6041 28.9937C18.818 29.2333 19.1852 29.4281 19.6378 29.0597C19.9515 28.8043 19.9709 28.3296 19.7038 28.026L18.1518 26.2626C19.1515 25.9889 19.8863 25.1022 19.8863 24.0528ZM17.5002 24.8855C17.2995 24.8855 16.9562 24.887 16.6394 24.8885L16.6347 23.2202H17.5002C17.9996 23.2202 18.4214 23.6015 18.4214 24.0528C18.4214 24.5042 17.9996 24.8855 17.5002 24.8855Z" fill="#424F60"/>
<path d="M16.5966 36.2886H33.4036C33.8081 36.2886 34.136 35.9607 34.136 35.5562C34.136 35.1516 33.8081 34.8237 33.4036 34.8237H16.5966C16.1921 34.8237 15.8641 35.1516 15.8641 35.5562C15.8641 35.9607 16.192 36.2886 16.5966 36.2886Z" fill="#424F60"/>
<path d="M29.669 38.5586H20.3317C19.9272 38.5586 19.5992 38.8864 19.5992 39.291C19.5992 39.6956 19.9271 40.0234 20.3317 40.0234H29.669C30.0734 40.0234 30.4014 39.6956 30.4014 39.291C30.4014 38.8864 30.0734 38.5586 29.669 38.5586Z" fill="#424F60"/>
<path d="M48.0883 18.4911C48.3014 17.6234 48.441 16.7452 48.1023 15.9284C47.6886 14.9306 46.7248 14.3703 45.7928 13.8285C45.1675 13.465 44.521 13.0892 44.2279 12.6514C43.93 12.2063 43.828 11.4599 43.7294 10.7379C43.5843 9.67553 43.4342 8.57699 42.6778 7.82055C41.9215 7.0642 40.823 6.9141 39.7607 6.76889C39.0388 6.67016 38.2922 6.56811 37.8473 6.27026C37.4095 5.97719 37.0336 5.33071 36.6702 4.70551C36.1283 3.77339 35.5681 2.80962 34.5703 2.39595C33.5914 1.99009 32.5247 2.27065 31.4932 2.54204C30.7832 2.72866 30.049 2.92212 29.5129 2.81596C29.0088 2.71626 28.4468 2.28843 27.8519 1.8353C27.0288 1.20854 26.0959 0.498291 25.0006 0.498291C23.9053 0.498291 22.9724 1.20854 22.1494 1.8353C21.5544 2.28833 20.9925 2.71616 20.4885 2.81587C19.9529 2.92202 19.2183 2.72866 18.5081 2.54184C17.4766 2.27055 16.4099 1.98979 15.4311 2.39575C14.4334 2.80942 13.873 3.77329 13.3312 4.70532C12.9677 5.33061 12.5919 5.97709 12.1543 6.27016C11.7092 6.56811 10.9627 6.67016 10.2408 6.76869C9.17838 6.91391 8.08004 7.06401 7.3236 7.82035C6.56725 8.5767 6.41715 9.67523 6.27203 10.7376C6.1733 11.4596 6.07125 12.2061 5.7734 12.6511C5.48034 13.0889 4.83385 13.4648 4.20866 13.8283C3.27653 14.3701 2.31286 14.9304 1.89909 15.9283C1.56032 16.7451 1.69997 17.6231 1.91315 18.491C0.783273 18.8523 -0.0404564 20.0481 0.00153571 21.352C0.014524 21.7563 0.329367 22.0844 0.733957 22.0844C1.13855 22.0844 1.48444 21.7587 1.46638 21.352C1.43659 20.6824 1.97595 19.812 2.82487 19.8154H47.2168C47.9438 19.8154 48.5352 20.4068 48.5352 21.1337V25.6314C48.5352 26.036 48.863 26.3638 49.2676 26.3638C49.6721 26.3638 50 26.036 50 25.6314V21.1337C49.9998 19.9035 49.1972 18.8578 48.0883 18.4911ZM3.25202 16.4895C3.47643 15.9484 4.18962 15.5338 4.94469 15.0948C5.71373 14.6477 6.50905 14.1853 6.99049 13.4662C7.47662 12.7399 7.60201 11.823 7.7232 10.9362C7.84078 10.0762 7.95182 9.26391 8.35924 8.85639C8.76686 8.44877 9.57916 8.33774 10.439 8.22025C11.3258 8.09906 12.2427 7.97377 12.969 7.48754C13.688 7.0061 14.1503 6.21078 14.5974 5.44164C15.0365 4.68657 15.4511 3.97329 15.9921 3.74887C16.5145 3.53247 17.3017 3.7393 18.1354 3.95854C19.0058 4.18754 19.9059 4.42426 20.7726 4.25288C21.6097 4.08735 22.3351 3.53491 23.0367 3.00073C23.7375 2.46714 24.3994 1.96313 25.0006 1.96313C25.6018 1.96313 26.2637 2.46714 26.9645 3.00073C27.666 3.53501 28.3915 4.08735 29.2287 4.25288C30.0949 4.42417 30.9953 4.18754 31.8657 3.95854C32.6992 3.7393 33.4865 3.53247 34.0092 3.74897C34.5503 3.97338 34.9649 4.68667 35.4039 5.44174C35.851 6.21078 36.3133 7.00619 37.0323 7.48754C37.7586 7.97377 38.6756 8.09906 39.5623 8.22025C40.4222 8.33783 41.2345 8.44887 41.642 8.85648C42.0496 9.2641 42.1606 10.0763 42.2781 10.9363C42.3992 11.8231 42.5245 12.7401 43.0107 13.4663C43.4922 14.1854 44.2875 14.6478 45.0566 15.095C45.8117 15.5339 46.525 15.9486 46.7493 16.4895C46.9413 16.9526 46.8004 17.6238 46.6133 18.3506H42.3529C40.9881 15.0364 38.7195 12.201 35.7664 10.1284C32.6024 7.90746 28.8796 6.73364 25.0006 6.73364C21.1216 6.73364 17.3989 7.90746 14.2347 10.1283C11.2816 12.2009 9.01305 15.0364 7.6482 18.3505H3.38786C3.20085 17.6238 3.06003 16.9526 3.25202 16.4895ZM40.7568 18.3506H9.24449C12.0267 12.2366 18.2271 8.19848 25.0006 8.19848C31.7741 8.19848 37.9745 12.2366 40.7568 18.3506Z" fill="#424F60"/>
<path d="M49.267 28.3176C48.8625 28.3176 48.5346 28.6455 48.5346 29.05V29.8634C48.5346 30.5904 47.9433 31.1818 47.2162 31.1818H2.78418C2.05722 31.1818 1.46582 30.5904 1.46582 29.8634V24.7708C1.46582 24.3662 1.13799 24.0383 0.733397 24.0383C0.328808 24.0383 0.000976562 24.3662 0.000976562 24.7708V29.8634C0.000976562 31.0937 0.803612 32.1394 1.9125 32.5061C1.69941 33.3739 1.55976 34.252 1.89843 35.0688C2.3122 36.0666 3.27597 36.6269 4.208 37.1688C4.83329 37.5323 5.47978 37.908 5.77284 38.3458C6.07079 38.791 6.17275 39.5373 6.27138 40.2593C6.41649 41.3217 6.56659 42.4202 7.32294 43.1767C8.07929 43.933 9.17782 44.0831 10.2401 44.2284C10.962 44.3271 11.7086 44.4291 12.1535 44.727C12.5913 45.02 12.9672 45.6665 13.3305 46.2917C13.8724 47.2239 14.4327 48.1876 15.4304 48.6013C16.4094 49.0073 17.476 48.7266 18.5076 48.4552C19.2176 48.2685 19.9518 48.0752 20.4879 48.1813C20.992 48.281 21.554 48.7088 22.1489 49.1619C22.9718 49.7886 23.9048 50.4989 25.0001 50.4989C26.0954 50.4989 27.0283 49.7886 27.8513 49.1618C28.4462 48.7088 29.0082 48.281 29.5122 48.1813C30.0479 48.0752 30.7824 48.2685 31.4926 48.4553C32.5241 48.7266 33.5908 49.0074 34.5696 48.6014C35.5673 48.1877 36.1277 47.2239 36.6695 46.2918C37.033 45.6665 37.4087 45.02 37.8464 44.727C38.2915 44.429 39.038 44.327 39.7599 44.2284C40.8223 44.0832 41.9206 43.9331 42.6771 43.1767C43.4334 42.4203 43.5835 41.3218 43.7286 40.2595C43.8274 39.5375 43.9294 38.791 44.2273 38.346C44.5203 37.9082 45.1668 37.5324 45.792 37.1689C46.7242 36.627 47.6878 36.0667 48.1016 35.0689C48.4404 34.2521 48.3007 33.3741 48.0875 32.5061C49.1968 32.1394 49.9994 31.0937 49.9994 29.8634V29.05C49.9994 28.6456 49.6716 28.3176 49.267 28.3176ZM40.7564 32.6466C37.9742 38.7607 31.7738 42.7988 25.0003 42.7988C18.2267 42.7988 12.0264 38.7607 9.24413 32.6466H40.7564ZM46.7489 34.5078C46.5244 35.0489 45.8113 35.4634 45.0562 35.9025C44.2871 36.3496 43.4918 36.812 43.0104 37.531C42.5243 38.2574 42.3989 39.1743 42.2777 40.0611C42.1601 40.921 42.0491 41.7332 41.6416 42.1409C41.234 42.5485 40.4217 42.6595 39.5619 42.777C38.675 42.8982 37.7582 43.0235 37.0319 43.5097C36.3128 43.9911 35.8505 44.7865 35.4035 45.5556C34.9644 46.3107 34.5498 47.024 34.0087 47.2484C33.4864 47.4648 32.6992 47.2579 31.8655 47.0387C30.995 46.8097 30.0949 46.5728 29.2283 46.7444C28.3912 46.9099 27.6658 47.4623 26.9642 47.9965C26.2633 48.5301 25.6014 49.0341 25.0003 49.0341C24.3991 49.0341 23.7372 48.5301 23.0364 47.9965C22.3348 47.4622 21.6093 46.9099 20.7721 46.7444C19.9058 46.5729 19.0055 46.8096 18.1351 47.0387C17.3016 47.2578 16.5144 47.4648 15.9917 47.2483C15.4506 47.0239 15.036 46.3106 14.597 45.5555C14.1499 44.7865 13.6876 43.991 12.9685 43.5097C12.2423 43.0235 11.3253 42.8982 10.4386 42.777C9.5787 42.6594 8.76639 42.5484 8.35888 42.1408C7.95126 41.7331 7.84032 40.9209 7.72274 40.061C7.60165 39.1742 7.47636 38.2572 6.99013 37.5309C6.50868 36.8119 5.71337 36.3495 4.94423 35.9023C4.18915 35.4633 3.47587 35.0487 3.25156 34.5078C3.05957 34.0447 3.20048 33.3735 3.38759 32.6466H7.64794C9.01278 35.9609 11.2813 38.7962 14.2345 40.8689C17.3985 43.0897 21.1213 44.2636 25.0004 44.2636C28.8795 44.2636 32.6021 43.0897 35.7663 40.8689C38.7194 38.7962 40.9879 35.9608 42.3528 32.6466H46.6131C46.8 33.3735 46.9408 34.0447 46.7489 34.5078Z" fill="#424F60"/>
</svg>
