<svg width="18" height="19" viewBox="0 0 18 19" fill="none" xmlns="http://www.w3.org/2000/svg">
<path d="M5.625 10.6234C5.2695 10.6234 4.97334 10.8405 4.78125 11.0318C4.58916 10.8405 4.293 10.6234 3.9375 10.6234C3.31706 10.6234 2.8125 11.128 2.8125 11.7484C2.8125 13.0323 4.58016 13.9312 4.65553 13.9689L4.78125 14.0316L4.90697 13.9686C4.98234 13.9312 6.75 13.0323 6.75 11.7484C6.75 11.128 6.24544 10.6234 5.625 10.6234ZM4.78097 13.3982C4.29609 13.1254 3.375 12.4605 3.375 11.7484C3.375 11.4382 3.62728 11.1859 3.9375 11.1859C4.19231 11.1859 4.47075 11.5108 4.54781 11.6241L4.78125 11.9717L5.01469 11.6241C5.07684 11.5316 5.36231 11.1859 5.625 11.1859C5.93522 11.1859 6.1875 11.4382 6.1875 11.7484C6.1875 12.458 5.26584 13.1249 4.78097 13.3982Z" fill="#A2ABB7"/>
<path d="M12.0938 10.0609C12.2491 10.0609 12.375 9.93499 12.375 9.77966C12.375 9.62433 12.2491 9.49841 12.0938 9.49841C11.9384 9.49841 11.8125 9.62433 11.8125 9.77966C11.8125 9.93499 11.9384 10.0609 12.0938 10.0609Z" fill="#A2ABB7"/>
<path d="M14.3438 10.0609C14.4991 10.0609 14.625 9.93499 14.625 9.77966C14.625 9.62433 14.4991 9.49841 14.3438 9.49841C14.1884 9.49841 14.0625 9.62433 14.0625 9.77966C14.0625 9.93499 14.1884 10.0609 14.3438 10.0609Z" fill="#A2ABB7"/>
<path d="M9.84375 8.37341C9.84375 8.80766 10.0935 9.1806 10.4543 9.36819C10.2454 9.74648 10.125 10.172 10.125 10.6234C10.125 12.1742 11.513 13.4359 13.2188 13.4359C14.9245 13.4359 16.3125 12.1742 16.3125 10.6234C16.3125 10.172 16.1921 9.74648 15.9832 9.36819C16.344 9.1806 16.5938 8.80766 16.5938 8.37341C16.5938 7.75298 16.0892 7.24841 15.4688 7.24841C14.9701 7.24841 14.5513 7.57635 14.4042 8.02635C14.0389 7.88798 13.6387 7.81091 13.2188 7.81091C12.7988 7.81091 12.3986 7.88798 12.0333 8.02635C11.8862 7.57635 11.4674 7.24841 10.9688 7.24841C10.3483 7.24841 9.84375 7.75298 9.84375 8.37341ZM11.3299 12.116C11.538 11.6204 11.9641 11.1952 12.4656 10.984C12.6065 11.2638 12.8973 11.4672 13.2188 11.4672C13.5402 11.4672 13.831 11.2638 13.9719 10.9843C14.4734 11.1955 14.8995 11.6204 15.1076 12.1163C14.6436 12.5795 13.97 12.8734 13.2188 12.8734C12.4675 12.8734 11.7939 12.5795 11.3299 12.116ZM12.9423 10.6698C13.0027 10.6451 13.1251 10.624 13.2334 10.6231C13.3155 10.6181 13.439 10.6338 13.4975 10.6577C13.4772 10.7972 13.3366 10.9047 13.2188 10.9047C13.1043 10.9047 12.9684 10.8034 12.9423 10.6698ZM15.4688 7.81091C15.779 7.81091 16.0312 8.06319 16.0312 8.37341C16.0312 8.61641 15.8752 8.82229 15.6586 8.90048C15.4502 8.65691 15.2002 8.44485 14.9161 8.27469C14.9631 8.01173 15.1926 7.81091 15.4688 7.81091ZM15.75 10.6234C15.75 10.98 15.6538 11.3161 15.487 11.6162C15.1653 11.0543 14.6289 10.6102 14.011 10.4046C13.9854 10.3526 13.952 10.3042 13.9075 10.262C13.6817 10.0477 13.2817 10.0578 13.2188 10.0609C12.9097 10.0609 12.5632 10.1565 12.4321 10.4026C11.8117 10.6074 11.2733 11.0523 10.9508 11.6159C10.7837 11.3161 10.6875 10.98 10.6875 10.6234C10.6875 9.38282 11.8229 8.37341 13.2188 8.37341C14.6146 8.37341 15.75 9.38282 15.75 10.6234ZM10.9688 7.81091C11.2449 7.81091 11.4744 8.01173 11.5214 8.27469C11.2373 8.44485 10.9873 8.65719 10.7789 8.90048C10.5623 8.82229 10.4062 8.61641 10.4062 8.37341C10.4062 8.06319 10.6585 7.81091 10.9688 7.81091Z" fill="#A2ABB7"/>
<path d="M10.6875 3.02966C9.97087 3.02966 9.34453 3.41582 9 3.98957C8.65547 3.41582 8.02913 3.02966 7.3125 3.02966H4.78125V2.46716H2.53125V3.02966H0.28125V16.5297H7.3125C8.02913 16.5297 8.65547 16.1435 9 15.5698C9.34453 16.1435 9.97087 16.5297 10.6875 16.5297H17.7188V3.02966H10.6875ZM3.65625 6.31101L4.78125 7.81091V4.71716H6.75C7.21519 4.71716 7.59375 5.09573 7.59375 5.56091V13.9984C7.59375 14.4636 7.21519 14.8422 6.75 14.8422H2.8125C2.34731 14.8422 1.96875 14.4636 1.96875 13.9984V5.56091C1.96875 5.19473 2.20472 4.88535 2.53125 4.76891V7.81091L3.65625 6.31101ZM3.09375 3.02966H4.21875V6.12341L3.65625 5.37332L3.09375 6.12341V3.02966ZM7.3125 15.9672H0.84375V3.59216H2.53125V4.18307C1.89028 4.31385 1.40625 4.88198 1.40625 5.56091V13.9984C1.40625 14.7738 2.03709 15.4047 2.8125 15.4047H6.75C7.52541 15.4047 8.15625 14.7738 8.15625 13.9984V5.56091C8.15625 4.78551 7.52541 4.15466 6.75 4.15466H4.78125V3.59216H7.3125C8.08791 3.59216 8.71875 4.22301 8.71875 4.99841V14.5609C8.71875 15.3363 8.08791 15.9672 7.3125 15.9672ZM17.1562 15.9672H10.6875C9.91209 15.9672 9.28125 15.3363 9.28125 14.5609V4.99841C9.28125 4.22301 9.91209 3.59216 10.6875 3.59216H17.1562V15.9672Z" fill="#A2ABB7"/>
<path d="M2.53125 9.49841H7.03125V10.0609H2.53125V9.49841Z" fill="#A2ABB7"/>
<path d="M6.46875 8.37341H7.03125V8.93591H6.46875V8.37341Z" fill="#A2ABB7"/>
<path d="M2.53125 8.37341H5.90625V8.93591H2.53125V8.37341Z" fill="#A2ABB7"/>
<path d="M5.34375 7.24841H7.03125V7.81091H5.34375V7.24841Z" fill="#A2ABB7"/>
<path d="M16.0312 4.15466H16.5938V4.71716H16.0312V4.15466Z" fill="#A2ABB7"/>
<path d="M14.9062 4.15466H15.4688V4.71716H14.9062V4.15466Z" fill="#A2ABB7"/>
<path d="M13.7812 4.15466H14.3438V4.71716H13.7812V4.15466Z" fill="#A2ABB7"/>
</svg>
