<svg width="14" height="14" viewBox="0 0 14 14" fill="none" xmlns="http://www.w3.org/2000/svg">
<path d="M9.79984 1.86494C10.6662 1.86494 11.4972 2.20912 12.1098 2.82175C12.7225 3.43439 13.0666 4.2653 13.0666 5.1317V9.79851C13.0666 10.6649 12.7225 11.4958 12.1098 12.1085C11.4972 12.7211 10.6662 13.0653 9.79984 13.0653H5.133C4.26659 13.0653 3.43567 12.7211 2.82303 12.1085C2.21039 11.4958 1.86621 10.6649 1.86621 9.79851V7.46511C1.86621 7.34133 1.81704 7.22263 1.72952 7.13511C1.642 7.04759 1.5233 6.99842 1.39952 6.99842C1.27575 6.99842 1.15705 7.04759 1.06953 7.13511C0.982006 7.22263 0.932838 7.34133 0.932838 7.46511V9.79851C0.932838 10.9124 1.37535 11.9808 2.16304 12.7684C2.95072 13.5561 4.01905 13.9986 5.133 13.9986H9.79984C10.9138 13.9986 11.9821 13.5561 12.7698 12.7684C13.5575 11.9808 14 10.9124 14 9.79851V5.1317C14 4.01776 13.5575 2.94944 12.7698 2.16177C11.9821 1.37409 10.9138 0.93158 9.79984 0.93158H7.46642C7.34265 0.93158 7.22394 0.980748 7.13642 1.06827C7.0489 1.15579 6.99973 1.27449 6.99973 1.39826C6.99973 1.52203 7.0489 1.64073 7.13642 1.72825C7.22394 1.81577 7.34265 1.86494 7.46642 1.86494H9.79984Z" fill="#A2ABB7"/>
<path d="M3.76701e-05 2.79831C3.76701e-05 3.54094 0.295048 4.25315 0.820169 4.77827C1.34529 5.30339 2.05751 5.5984 2.80014 5.5984C3.54278 5.5984 4.255 5.30339 4.78012 4.77827C5.30524 4.25315 5.60025 3.54094 5.60025 2.79831C5.60025 2.05569 5.30524 1.34347 4.78012 0.818355C4.255 0.293238 3.54278 -0.00177002 2.80014 -0.00177002C2.05751 -0.00177002 1.34529 0.293238 0.820169 0.818355C0.295048 1.34347 3.76701e-05 2.05569 3.76701e-05 2.79831Z" fill="#A2ABB7"/>
</svg>
