<svg width="18" height="19" viewBox="0 0 18 19" fill="none" xmlns="http://www.w3.org/2000/svg">
<g clip-path="url(#clip0_2062_15483)">
<path d="M17.2293 4.25347L14.2476 1.27177C13.2201 0.244226 11.5481 0.244226 10.5206 1.27167L0.771924 11.015C0.274113 11.5127 0 12.1745 0 12.8785C0 13.5826 0.274113 14.2444 0.771924 14.7421L3.75363 17.7238C4.2514 18.2216 4.91322 18.4957 5.61718 18.4957C6.32115 18.4957 6.983 18.2216 7.48064 17.7239L17.2293 7.98073L17.2294 7.98062C18.2569 6.95301 18.2569 5.28102 17.2293 4.25347ZM8.34784 13.8421C8.24634 14.045 8.02623 14.1603 7.80183 14.1282L4.14927 13.6064L6.01283 15.4699C6.21867 15.6758 6.21867 16.0095 6.01283 16.2154C5.90989 16.3183 5.775 16.3698 5.64014 16.3698C5.50528 16.3698 5.37035 16.3183 5.26745 16.2154L2.28575 13.2337C2.12533 13.0732 2.08557 12.8281 2.187 12.6252C2.28849 12.4223 2.5085 12.3071 2.73301 12.3391L6.38559 12.8609L4.52203 10.9974C4.3162 10.7915 4.3162 10.4578 4.52203 10.252C4.72784 10.0461 5.06161 10.0461 5.26745 10.252L8.24915 13.2337C8.40957 13.3941 8.44933 13.6392 8.34784 13.8421ZM11.2308 10.9974L9.73995 12.4882C9.66275 12.5654 9.56754 12.6137 9.46791 12.633C9.43465 12.6394 9.40098 12.6427 9.36722 12.6427C9.23233 12.6427 9.09744 12.5912 8.99453 12.4883L7.50381 10.9976L7.50367 10.9974C7.50367 10.9974 7.50359 10.9974 7.50356 10.9973L6.01283 9.50658C5.80699 9.30074 5.80699 8.967 6.01283 8.76116L7.50367 7.27033C7.70947 7.06449 8.04324 7.06449 8.24908 7.27033C8.45492 7.47617 8.45492 7.80991 8.24908 8.01575L7.13094 9.13389L7.87636 9.8793L8.9945 8.76116C9.2003 8.55532 9.53404 8.55532 9.73991 8.76116C9.94572 8.967 9.94572 9.30074 9.73991 9.50658L8.62177 10.6247L9.36719 11.3701L10.4853 10.252C10.6911 10.0462 11.0249 10.0462 11.2307 10.252C11.4367 10.4578 11.4367 10.7916 11.2308 10.9974ZM14.9964 7.2274C14.8584 7.39946 14.6278 7.46738 14.4186 7.39763L13.1824 6.9856L13.5945 8.22176C13.6642 8.43101 13.5963 8.66156 13.4242 8.79959C13.3284 8.8764 13.2117 8.9155 13.0943 8.9155C13.0008 8.9155 12.9071 8.89068 12.8232 8.84037L9.0961 6.60408C8.84646 6.45432 8.76553 6.13053 8.91529 5.88092C9.06509 5.63128 9.38888 5.55035 9.63845 5.70011L12.1438 7.20329L11.8489 6.31876C11.7858 6.12937 11.835 5.92051 11.9762 5.77936C12.1174 5.63817 12.3261 5.58888 12.5156 5.65202L13.4002 5.94684L11.897 3.44168C11.7472 3.19204 11.8281 2.86828 12.0778 2.71852C12.3274 2.56868 12.6511 2.64972 12.8009 2.89933L15.0372 6.62644C15.1507 6.81555 15.1344 7.05531 14.9964 7.2274Z" fill="#4DB45E"/>
</g>
<defs>
<clipPath id="clip0_2062_15483">
<rect width="18" height="18" fill="white" transform="translate(0 0.498398)"/>
</clipPath>
</defs>
</svg>
