<svg width="18" height="17" viewBox="0 0 18 17" fill="none" xmlns="http://www.w3.org/2000/svg">
<path d="M16.65 3.39839H12.0853C12.6363 2.86106 12.8264 2.05311 12.5725 1.32638C12.3188 0.599786 11.667 0.0858296 10.9012 0.008494C10.1354 -0.06898 9.39401 0.30414 9 0.965436C8.60599 0.30414 7.86459 -0.06898 7.09884 0.008494C6.33296 0.0858296 5.68121 0.599786 5.42748 1.32638C5.17362 2.05311 5.3637 2.86106 5.91474 3.39839H1.35C0.880591 3.39839 0.5 3.77885 0.5 4.24839V6.51506C0.5 6.98447 0.880591 7.36506 1.35 7.36506H1.91667V16.1484C1.91667 16.6178 2.29726 16.9984 2.76667 16.9984H15.2333C15.7027 16.9984 16.0833 16.6178 16.0833 16.1484V7.36506H16.65C17.1194 7.36506 17.5 6.98447 17.5 6.51506V4.24839C17.5 3.77885 17.1194 3.39839 16.65 3.39839ZM10.7 0.565061C11.4823 0.565061 12.1167 1.19924 12.1167 1.98173C12.1167 2.76408 11.4823 3.39839 10.7 3.39839C9.91765 3.39839 9.28333 2.76408 9.28333 1.98173C9.2843 1.19966 9.91793 0.565892 10.7 0.565061ZM5.88333 1.98173C5.88333 1.19924 6.51765 0.565061 7.3 0.565061C8.08235 0.565061 8.71667 1.19924 8.71667 1.98173C8.71667 2.76408 8.08235 3.39839 7.3 3.39839C6.51793 3.39743 5.8843 2.76366 5.88333 1.98173ZM1.06667 6.51506V4.24839C1.06667 4.09193 1.19353 3.96506 1.35 3.96506H7.86667V6.79839H1.35C1.19353 6.79839 1.06667 6.67153 1.06667 6.51506ZM2.48333 16.1484V7.36506H7.86667V16.4317H2.76667C2.6102 16.4317 2.48333 16.3049 2.48333 16.1484ZM8.43333 3.68173C8.43333 3.65904 8.4307 3.63635 8.42545 3.61422C8.44329 3.60176 8.45934 3.58585 8.47691 3.57437C8.51039 3.54933 8.54415 3.5247 8.57583 3.49787C8.59769 3.47933 8.61803 3.45982 8.63905 3.44114C8.66742 3.41472 8.69564 3.38843 8.724 3.36035C8.7442 3.33946 8.76343 3.3176 8.78293 3.29547C8.80825 3.2671 8.83315 3.23888 8.85695 3.20789C8.87576 3.18493 8.89334 3.16141 8.90966 3.13734C8.93193 3.10648 8.95352 3.0748 8.97399 3.04243C8.98271 3.02915 8.99267 3.0167 9.00083 3.00314C9.00913 3.0167 9.01923 3.02915 9.02781 3.04271C9.04814 3.0748 9.06973 3.10621 9.09186 3.13734C9.10902 3.16127 9.12659 3.18506 9.14485 3.20817C9.16864 3.23805 9.19355 3.26683 9.21873 3.29547C9.23823 3.3176 9.2576 3.33946 9.27766 3.36035C9.30602 3.38871 9.33438 3.41472 9.36261 3.44114C9.38363 3.46037 9.40397 3.48002 9.42583 3.49787C9.45765 3.52443 9.49099 3.54933 9.52447 3.57396C9.54204 3.5871 9.5585 3.60232 9.57635 3.61422C9.57054 3.63621 9.56722 3.6589 9.56667 3.68173V16.4317H8.43333V3.68173ZM15.5167 16.1484C15.5167 16.3049 15.3898 16.4317 15.2333 16.4317H10.1333V7.36506H15.5167V16.1484ZM16.9333 6.51506C16.9333 6.67153 16.8065 6.79839 16.65 6.79839H10.1333V3.96506H16.65C16.8065 3.96506 16.9333 4.09193 16.9333 4.24839V6.51506Z" fill="#A2ABB7"/>
</svg>
