<svg width="16" height="19" viewBox="0 0 16 19" fill="none" xmlns="http://www.w3.org/2000/svg">
<path d="M6.36279 2.49212C6.56319 2.55822 6.75283 2.6428 6.92651 2.74354C6.97232 2.7701 7.02234 2.78274 7.0717 2.78274C7.17167 2.78274 7.26896 2.73094 7.32277 2.63824C7.4031 2.49974 7.35594 2.32234 7.21744 2.24198C7.00916 2.12118 6.78271 2.02009 6.54436 1.94147C6.39237 1.89137 6.22839 1.9739 6.17821 2.12597C6.12811 2.27804 6.21076 2.44198 6.36279 2.49212Z" fill="#A2ABB7"/>
<path d="M8.32861 5.59574C8.32861 6.02823 8.2784 6.47029 8.17936 6.90958C8.14415 7.06579 8.24222 7.22095 8.39843 7.25617C8.41988 7.261 8.44133 7.26332 8.46244 7.26332C8.59499 7.26332 8.71463 7.17182 8.74502 7.03711C8.85348 6.55603 8.90849 6.07109 8.90849 5.59574C8.90849 4.58335 8.6614 3.74003 8.17411 3.08933C8.07816 2.96119 7.8964 2.93506 7.76826 3.03104C7.64011 3.12702 7.61398 3.30874 7.70997 3.43689C8.12045 3.98507 8.32861 4.71141 8.32861 5.59574Z" fill="#A2ABB7"/>
<path d="M4.14176 10.0227C3.42125 9.53129 2.77701 8.58886 2.41836 7.50182C2.36819 7.34975 2.20417 7.26718 2.05218 7.31736C1.9001 7.36753 1.81753 7.53147 1.86771 7.68354C2.27085 8.90542 2.98065 9.93262 3.81504 10.5018C3.86502 10.5359 3.92188 10.5522 3.97813 10.5522C4.07075 10.5522 4.16178 10.5079 4.21791 10.4257C4.3081 10.2933 4.27404 10.1129 4.14176 10.0227Z" fill="#A2ABB7"/>
<path d="M14.2656 5.23322C13.3829 4.37355 12.1462 3.90013 10.7832 3.90013C10.4957 3.90013 10.2114 3.92147 9.93509 3.96299C9.70497 3.12759 9.28869 2.40573 8.69911 1.8315C7.81644 0.971832 6.57972 0.498413 5.21675 0.498413C3.85378 0.498413 2.61706 0.971832 1.7344 1.8315C0.788216 2.75302 0.288086 4.05468 0.288086 5.59573C0.288086 7.1652 0.802441 8.79884 1.6993 10.0778C2.46383 11.1681 3.40715 11.8697 4.41453 12.114C4.34684 12.2411 4.3083 12.386 4.3083 12.5397V13.1582C4.3083 13.3183 4.43811 13.4481 4.59822 13.4481H4.90959C4.88597 13.6264 4.84063 13.7473 4.79065 13.8806C4.70951 14.0969 4.61755 14.342 4.61755 14.8067C4.61755 15.2717 4.70947 15.517 4.79061 15.7334C4.86371 15.9283 4.92679 16.0966 4.92679 16.4565C4.92679 16.8163 4.86371 16.9846 4.79061 17.1796C4.70947 17.3959 4.61755 17.6412 4.61755 18.1062C4.61755 18.2663 4.74735 18.3961 4.90746 18.3961C5.06758 18.3961 5.19738 18.2663 5.19738 18.1062C5.19738 17.7463 5.26047 17.578 5.33353 17.3831C5.41467 17.1667 5.50663 16.9215 5.50663 16.4565C5.50663 15.9915 5.41467 15.7462 5.33353 15.5299C5.26047 15.335 5.19738 15.1667 5.19738 14.8068C5.19738 14.4473 5.26047 14.2791 5.33353 14.0844C5.39584 13.9183 5.46438 13.7347 5.49291 13.4482H5.83521C5.99532 13.4482 6.12513 13.3184 6.12513 13.1583V12.5398C6.12513 12.386 6.08659 12.2412 6.0189 12.1141C6.1651 12.0787 6.30994 12.0336 6.45312 11.9791C7.21487 13.8522 8.53567 15.1561 9.98206 15.5137C9.91367 15.6413 9.87475 15.7869 9.87475 15.9415V16.56C9.87475 16.7201 10.0046 16.8499 10.1647 16.8499H10.476C10.4524 17.0283 10.4071 17.1492 10.3571 17.2825C10.276 17.4987 10.184 17.7438 10.184 18.2086C10.184 18.3687 10.3138 18.4985 10.4739 18.4985C10.634 18.4985 10.7638 18.3687 10.7638 18.2086C10.7638 17.849 10.8269 17.6808 10.9 17.4861C10.9623 17.32 11.0308 17.1365 11.0594 16.8499H11.4017C11.5618 16.8499 11.6916 16.7201 11.6916 16.56V15.9415C11.6916 15.7878 11.653 15.6429 11.5853 15.5159C12.5927 15.2715 13.536 14.5699 14.3006 13.4796C15.1974 12.2007 15.7117 10.567 15.7117 8.99757C15.7118 7.4564 15.2117 6.15474 14.2656 5.23322ZM2.17407 9.74486C1.34401 8.56114 0.867963 7.04885 0.867963 5.59573C0.867963 4.21471 1.30748 3.0567 2.13897 2.2469C2.91274 1.49326 4.00578 1.07825 5.21675 1.07825C6.42772 1.07825 7.5208 1.49326 8.29453 2.24686C9.12602 3.0567 9.56554 4.21471 9.56554 5.5957C9.56554 7.04885 9.08949 8.56114 8.25943 9.74483C7.40637 10.9614 6.32583 11.6313 5.21675 11.6313C4.10767 11.6313 3.02709 10.9614 2.17407 9.74486ZM5.54533 12.5397V12.8683H4.88818V12.5397C4.88818 12.3585 5.03557 12.2111 5.21675 12.2111C5.39793 12.2111 5.54533 12.3585 5.54533 12.5397ZM11.1118 15.9414V16.27H10.4546V15.9414C10.4546 15.7603 10.602 15.6129 10.7832 15.6129C10.9644 15.6129 11.1118 15.7603 11.1118 15.9414ZM13.8259 13.1466C12.9728 14.3631 11.8923 15.033 10.7832 15.033C10.0015 15.033 9.21922 14.6924 8.52094 14.0479C7.8934 13.4687 7.35005 12.6511 6.97919 11.7322C7.16798 11.6262 7.35284 11.5032 7.53278 11.3636C7.94748 12.4623 8.61124 13.3781 9.38146 13.9034C9.43144 13.9375 9.4883 13.9539 9.54455 13.9539C9.63717 13.9539 9.7282 13.9096 9.78433 13.8273C9.87455 13.695 9.84046 13.5147 9.70818 13.4244C8.99834 12.9403 8.36272 12.0183 8.0011 10.9516C8.25943 10.6963 8.50494 10.4047 8.73421 10.0778C9.63102 8.79884 10.1454 7.1652 10.1454 5.59573C10.1454 5.22614 10.1163 4.87055 10.0595 4.53042C10.2953 4.4969 10.5378 4.47997 10.7832 4.47997C11.9942 4.47997 13.0872 4.89498 13.861 5.64858C14.6925 6.45842 15.132 7.61643 15.132 8.99741C15.132 10.4506 14.6559 11.9629 13.8259 13.1466Z" fill="#A2ABB7"/>
<path d="M13.7405 6.49101C13.6446 6.36286 13.4628 6.33673 13.3347 6.43271C13.2065 6.5287 13.1804 6.71042 13.2764 6.83856C13.6869 7.38674 13.8951 8.11308 13.8951 8.99742C13.8951 9.4299 13.8448 9.87197 13.7458 10.3113C13.7106 10.4675 13.8087 10.6226 13.9649 10.6578C13.9863 10.6627 14.0078 10.665 14.0289 10.665C14.1614 10.665 14.2811 10.5735 14.3115 10.4388C14.4199 9.9577 14.4749 9.47277 14.4749 8.99742C14.4749 7.98502 14.2278 7.14174 13.7405 6.49101Z" fill="#A2ABB7"/>
<path d="M12.7839 5.64371C12.5756 5.52291 12.3491 5.42183 12.1108 5.3432C11.9588 5.2931 11.7948 5.37563 11.7446 5.52771C11.6945 5.67978 11.7771 5.84368 11.9291 5.89385C12.1295 5.95996 12.3192 6.04454 12.4929 6.14527C12.5387 6.17183 12.5887 6.18447 12.6381 6.18447C12.738 6.18447 12.8353 6.13267 12.8891 6.03997C12.9695 5.90147 12.9224 5.72408 12.7839 5.64371Z" fill="#A2ABB7"/>
</svg>
