<svg width="18" height="19" viewBox="0 0 18 19" fill="none" xmlns="http://www.w3.org/2000/svg">
<path d="M9 18.2172C6.81579 18.221 4.70998 17.4034 3.10063 15.9266C1.49128 14.4499 0.496061 12.422 0.312539 10.2455C0.307877 10.1895 0.32563 10.134 0.361892 10.0912C0.398154 10.0483 0.449954 10.0216 0.505898 10.017C0.561843 10.0123 0.617347 10.0301 0.660202 10.0663C0.703057 10.1026 0.729752 10.1544 0.734414 10.2103C0.896609 12.0923 1.69615 13.8626 3.00087 15.2286C4.30559 16.5946 6.03738 17.4745 7.90995 17.7228C9.78253 17.9711 11.6838 17.573 13.2994 16.5943C14.9151 15.6156 16.1484 14.1149 16.7955 12.3402C17.4426 10.5655 17.4648 8.62315 16.8583 6.83418C16.2518 5.04521 15.0531 3.51674 13.4602 2.50143C11.8672 1.48613 9.97556 1.04477 8.09781 1.25032C6.22006 1.45587 4.46866 2.29602 3.13313 3.6319C1.77609 4.98858 0.953438 6.70807 0.750586 8.60475C0.744665 8.66041 0.716874 8.71145 0.673327 8.74662C0.62978 8.78179 0.574043 8.79823 0.518379 8.79231C0.462715 8.78639 0.411682 8.7586 0.376508 8.71505C0.341334 8.6715 0.3249 8.61577 0.33082 8.5601C0.541758 6.56639 1.40906 4.75901 2.835 3.33342C4.47011 1.69836 6.68777 0.779813 9.00012 0.779846C11.3125 0.779879 13.5301 1.69849 15.1652 3.3336C16.8002 4.9687 17.7188 7.18637 17.7188 9.49872C17.7187 11.8111 16.8001 14.0287 15.165 15.6638C14.3572 16.4758 13.3964 17.1196 12.3382 17.5579C11.28 17.9962 10.1454 18.2203 9 18.2172ZM9 16.1078C5.3557 16.1078 2.39062 13.1427 2.39062 9.49842C2.39062 5.85412 5.3557 2.88905 9 2.88905C12.6443 2.88905 15.6094 5.85412 15.6094 9.49842C15.6095 9.94467 15.5645 10.3898 15.4751 10.827C15.4654 10.8746 15.4395 10.9174 15.4018 10.9482C15.3641 10.9789 15.317 10.9957 15.2684 10.9957H11.7422C11.7067 10.9957 11.6717 10.9867 11.6406 10.9695C11.6095 10.9524 11.5832 10.9276 11.5642 10.8976C11.5452 10.8676 11.5341 10.8333 11.5319 10.7978C11.5297 10.7624 11.5365 10.7269 11.5516 10.6948C11.7282 10.3211 11.8194 9.91279 11.8188 9.49948C11.8192 9.00443 11.6892 8.51801 11.4419 8.08913C11.1947 7.66025 10.8389 7.30402 10.4103 7.05625C9.9817 6.80848 9.49544 6.67791 9.00039 6.67765C8.50534 6.6774 8.01895 6.80748 7.59011 7.05481C7.16127 7.30214 6.8051 7.658 6.55741 8.08663C6.30972 8.51526 6.17923 9.00154 6.17906 9.49659C6.1789 9.99164 6.30906 10.478 6.55647 10.9068C6.80387 11.3356 7.15981 11.6917 7.58848 11.9393C7.61201 11.953 7.63266 11.9712 7.6493 11.9928L10.4618 15.6367C10.4836 15.665 10.4979 15.6984 10.5033 15.7338C10.5087 15.7691 10.505 15.8052 10.4926 15.8388C10.4802 15.8723 10.4595 15.9021 10.4324 15.9254C10.4053 15.9488 10.3727 15.9648 10.3377 15.9721C9.89755 16.0626 9.44935 16.108 9 16.1078ZM9 3.31092C5.58984 3.31092 2.8125 6.08826 2.8125 9.49842C2.8125 12.9086 5.58984 15.6859 9 15.6859C9.30699 15.6859 9.61357 15.6632 9.91723 15.6181L7.34133 12.2817C6.85424 11.9914 6.45184 11.5784 6.17433 11.0839C5.89681 10.5894 5.75388 10.0308 5.75983 9.46374C5.76577 8.89672 5.92037 8.34119 6.20819 7.85262C6.496 7.36405 6.90697 6.95954 7.40003 6.67949C7.8931 6.39944 8.45101 6.25365 9.01805 6.25669C9.58508 6.25972 10.1414 6.41147 10.6314 6.69678C11.1215 6.98209 11.5281 7.39097 11.8107 7.8826C12.0932 8.37422 12.2419 8.93138 12.2418 9.49842C12.2426 9.86473 12.1806 10.2285 12.0586 10.5739H15.0947C15.1568 10.2187 15.1878 9.85891 15.1875 9.49842C15.1875 6.08826 12.4119 3.31092 9 3.31092ZM12.3374 15.1663C12.3051 15.1663 12.2733 15.159 12.2444 15.1448C12.2154 15.1306 12.1901 15.1099 12.1704 15.0844L10.5785 13.0228C10.5545 12.9916 10.5397 12.9543 10.5358 12.9151C10.5319 12.8759 10.539 12.8364 10.5564 12.8011C10.5738 12.7657 10.6007 12.736 10.6341 12.7151C10.6675 12.6943 10.7061 12.6833 10.7455 12.6832H14.4207C14.4584 12.6832 14.4954 12.6933 14.5279 12.7125C14.5603 12.7316 14.5871 12.7591 14.6053 12.7921C14.6235 12.8251 14.6326 12.8624 14.6315 12.9C14.6305 12.9377 14.6194 12.9744 14.5993 13.0063C14.0542 13.871 13.3182 14.5993 12.4478 15.1354C12.4145 15.1557 12.3763 15.1664 12.3374 15.1663ZM11.1748 13.1051L12.3866 14.6741C13.0232 14.2549 13.5782 13.7232 14.0242 13.1051H11.1748ZM9 10.6308C8.77604 10.6308 8.5571 10.5644 8.37088 10.44C8.18466 10.3155 8.03952 10.1387 7.95381 9.93177C7.86811 9.72485 7.84568 9.49716 7.88938 9.2775C7.93307 9.05784 8.04092 8.85607 8.19928 8.69771C8.35765 8.53934 8.55942 8.43149 8.77908 8.3878C8.99874 8.3441 9.22643 8.36653 9.43334 8.45224C9.64026 8.53794 9.81711 8.68308 9.94154 8.8693C10.066 9.05552 10.1324 9.27446 10.1324 9.49842C10.132 9.79863 10.0126 10.0864 9.8003 10.2987C9.58802 10.511 9.30021 10.6304 9 10.6308ZM9 8.78791C8.85948 8.78791 8.72211 8.82958 8.60526 8.90766C8.48842 8.98573 8.39735 9.09669 8.34358 9.22652C8.2898 9.35635 8.27573 9.49921 8.30314 9.63703C8.33056 9.77486 8.39823 9.90146 8.49759 10.0008C8.59696 10.1002 8.72356 10.1679 8.86139 10.1953C8.99921 10.2227 9.14207 10.2086 9.2719 10.1548C9.40173 10.1011 9.51269 10.01 9.59077 9.89316C9.66884 9.77632 9.71051 9.63895 9.71051 9.49842C9.71023 9.31007 9.63528 9.12951 9.5021 8.99632C9.36891 8.86314 9.18835 8.78819 9 8.78791ZM0.492188 9.77229C0.436847 9.7723 0.38372 9.75056 0.344261 9.71175C0.304803 9.67295 0.282172 9.6202 0.28125 9.56487C0.28125 9.54237 0.28125 9.51952 0.28125 9.49666C0.28125 9.4028 0.28125 9.31807 0.285117 9.23791C0.287029 9.18197 0.311085 9.12908 0.351996 9.09087C0.392906 9.05266 0.447318 9.03227 0.503262 9.03418C0.559206 9.03609 0.612099 9.06015 0.650306 9.10106C0.688513 9.14197 0.708904 9.19638 0.706992 9.25233C0.703125 9.32932 0.703125 9.40912 0.703125 9.49842V9.55995C0.703971 9.61583 0.682602 9.66977 0.643712 9.70991C0.604821 9.75005 0.551588 9.77312 0.495703 9.77405L0.492188 9.77229Z" fill="#A2ABB7"/>
</svg>
