<svg width="12" height="19" viewBox="0 0 12 19" fill="none" xmlns="http://www.w3.org/2000/svg">
<path d="M11.5499 3.44489V0.781351C11.5499 0.625081 11.4232 0.498413 11.2669 0.498413C10.4295 0.498413 9.69819 0.961069 9.31502 1.64419C9.07367 1.21033 8.68938 0.862421 8.21178 0.666636C8.16777 0.567601 8.0687 0.498413 7.95331 0.498413C7.11491 0.498413 6.38281 0.962159 6.00007 1.64665C5.61729 0.962159 4.88516 0.498413 4.04675 0.498413C3.93133 0.498413 3.83226 0.567601 3.78825 0.666636C3.31072 0.862421 2.92639 1.21036 2.68501 1.64419C2.30191 0.961069 1.57055 0.498413 0.733133 0.498413C0.576863 0.498413 0.450195 0.625116 0.450195 0.781351V3.44489C0.450195 4.58206 1.30361 5.52302 2.40344 5.66255V6.59155H0.733133C0.636523 6.59155 0.546559 6.64088 0.494633 6.72226C0.442672 6.80372 0.435816 6.90603 0.476527 6.99367L5.74339 18.3347C5.78976 18.4346 5.88989 18.4984 6 18.4984C6.11011 18.4984 6.21023 18.4345 6.2566 18.3347L11.5235 6.99371C11.5642 6.90606 11.5573 6.80376 11.5054 6.7223C11.4534 6.64084 11.3635 6.59159 11.2669 6.59159H9.59655V5.66258C10.6964 5.52301 11.5499 4.58202 11.5499 3.44489ZM9.03071 5.66343V6.59159H6.28297V5.66258C6.82441 5.59389 7.30626 5.33145 7.65578 4.94635C8.01325 5.34287 8.49799 5.59677 9.03071 5.66343ZM4.32972 1.08826C5.11648 1.22305 5.71706 1.90997 5.71706 2.73456C5.71706 2.89083 5.84376 3.0175 6 3.0175C6.15627 3.0175 6.28293 2.89083 6.28293 2.73456C6.28293 1.90997 6.88354 1.22305 7.67027 1.08826V3.44489C7.67027 4.36592 6.92098 5.1152 5.99996 5.1152C5.07894 5.1152 4.32965 4.36592 4.32965 3.44489V1.08826H4.32972ZM4.34428 4.94631C4.6938 5.33141 5.17565 5.59385 5.71709 5.66255V6.59155H2.96935V5.66339C3.50211 5.59677 3.98681 5.34287 4.34428 4.94631ZM1.01607 3.44489V1.08826C1.80283 1.22305 2.40341 1.90997 2.40341 2.73456C2.40341 2.89083 2.53011 3.0175 2.68634 3.0175C2.84261 3.0175 2.96928 2.89083 2.96928 2.73456C2.96928 2.142 3.27662 1.60939 3.76378 1.31098V3.44486C3.76378 3.8114 3.853 4.1573 4.00994 4.46288C3.6947 4.87382 3.21179 5.11517 2.68634 5.11517C1.76536 5.11524 1.01607 4.36592 1.01607 3.44489ZM6.00007 17.5437L1.17652 7.15746H7.00107L8.9123 11.2729L6.00007 17.5437ZM10.8236 7.15746L9.22432 10.6011L7.62506 7.15746H10.8236ZM9.31368 5.11524C8.78824 5.11524 8.30533 4.87389 7.99009 4.46295C8.14706 4.15737 8.23625 3.81147 8.23625 3.44493V1.31105C8.72338 1.60942 9.03075 2.14204 9.03075 2.73463C9.03075 2.8909 9.15745 3.01757 9.31368 3.01757C9.46992 3.01757 9.59662 2.89087 9.59662 2.73463C9.59662 1.91004 10.1972 1.22312 10.984 1.08833V3.44496C10.984 4.36592 10.2347 5.11524 9.31368 5.11524Z" fill="#A2ABB7"/>
</svg>
