<svg width="18" height="17" viewBox="0 0 18 17" fill="none" xmlns="http://www.w3.org/2000/svg">
<path d="M16.1719 1.9906H15.9062V1.45935C15.9062 1.01994 15.5488 0.662476 15.1094 0.662476C14.67 0.662476 14.3125 1.01994 14.3125 1.45935V1.9906H3.6875V1.45935C3.6875 1.01994 3.33004 0.662476 2.89062 0.662476C2.45121 0.662476 2.09375 1.01994 2.09375 1.45935V1.9906H1.82812C1.0958 1.9906 0.5 2.5864 0.5 3.31873V15.0062C0.5 15.7386 1.0958 16.3344 1.82812 16.3344H16.1719C16.9042 16.3344 17.5 15.7386 17.5 15.0062V3.31873C17.5 2.5864 16.9042 1.9906 16.1719 1.9906ZM14.8438 1.45935C14.8438 1.31289 14.9629 1.19373 15.1094 1.19373C15.2558 1.19373 15.375 1.31289 15.375 1.45935V2.25559C15.375 2.25583 15.375 2.25603 15.375 2.25623C15.375 2.25642 15.375 2.25666 15.375 2.25686V3.0531C15.375 3.19956 15.2558 3.31873 15.1094 3.31873C14.9629 3.31873 14.8438 3.19956 14.8438 3.0531V1.45935ZM2.89062 1.19373C3.03708 1.19373 3.15625 1.31289 3.15625 1.45935V3.0531C3.15625 3.19956 3.03708 3.31873 2.89062 3.31873C2.74417 3.31873 2.625 3.19956 2.625 3.0531V2.25656C2.625 2.25646 2.625 2.25633 2.625 2.25623C2.625 2.25613 2.625 2.25603 2.625 2.25589V1.45935C2.625 1.31289 2.74417 1.19373 2.89062 1.19373ZM16.1719 15.8031H1.82812C1.38871 15.8031 1.03125 15.4456 1.03125 15.0062V4.91248H13.7812C13.9279 4.91248 14.0469 4.79354 14.0469 4.64685C14.0469 4.50016 13.9279 4.38123 13.7812 4.38123H1.03125V3.31873C1.03125 2.87932 1.38871 2.52185 1.82812 2.52185H2.09375V3.0531C2.09375 3.49251 2.45121 3.84998 2.89062 3.84998C3.33004 3.84998 3.6875 3.49251 3.6875 3.0531V2.52185H14.3125V3.0531C14.3125 3.49251 14.67 3.84998 15.1094 3.84998C15.5488 3.84998 15.9062 3.49251 15.9062 3.0531V2.52185H16.1719C16.6113 2.52185 16.9688 2.87932 16.9688 3.31873V4.38123H16.4375C16.2908 4.38123 16.1719 4.50016 16.1719 4.64685C16.1719 4.79354 16.2908 4.91248 16.4375 4.91248H16.9688V15.0062C16.9688 15.4456 16.6113 15.8031 16.1719 15.8031Z" fill="#A2ABB7"/>
<path d="M15.375 4.38123H14.8438C14.6971 4.38123 14.5781 4.50016 14.5781 4.64685C14.5781 4.79354 14.6971 4.91248 14.8438 4.91248H15.375C15.5217 4.91248 15.6406 4.79354 15.6406 4.64685C15.6406 4.50016 15.5217 4.38123 15.375 4.38123Z" fill="#A2ABB7"/>
<path d="M9.26562 6.77185H8.73438C8.58768 6.77185 8.46875 6.89078 8.46875 7.03748C8.46875 7.18417 8.58768 7.3031 8.73438 7.3031H9.26562C9.41232 7.3031 9.53125 7.18417 9.53125 7.03748C9.53125 6.89078 9.41232 6.77185 9.26562 6.77185Z" fill="#A2ABB7"/>
<path d="M9.26562 8.09998H8.73438C8.58768 8.09998 8.46875 8.21891 8.46875 8.3656C8.46875 8.51229 8.58768 8.63123 8.73438 8.63123H9.26562C9.41232 8.63123 9.53125 8.51229 9.53125 8.3656C9.53125 8.21891 9.41232 8.09998 9.26562 8.09998Z" fill="#A2ABB7"/>
<path d="M9.26562 9.4281H8.73438C8.58768 9.4281 8.46875 9.54703 8.46875 9.69373C8.46875 9.84042 8.58768 9.95935 8.73438 9.95935H9.26562C9.41232 9.95935 9.53125 9.84042 9.53125 9.69373C9.53125 9.54703 9.41232 9.4281 9.26562 9.4281Z" fill="#A2ABB7"/>
<path d="M9.26562 10.7562H8.73438C8.58768 10.7562 8.46875 10.8752 8.46875 11.0219C8.46875 11.1685 8.58768 11.2875 8.73438 11.2875H9.26562C9.41232 11.2875 9.53125 11.1685 9.53125 11.0219C9.53125 10.8752 9.41232 10.7562 9.26562 10.7562Z" fill="#A2ABB7"/>
<path d="M9.26562 12.0844H8.73438C8.58768 12.0844 8.46875 12.2033 8.46875 12.35C8.46875 12.4967 8.58768 12.6156 8.73438 12.6156H9.26562C9.41232 12.6156 9.53125 12.4967 9.53125 12.35C9.53125 12.2033 9.41232 12.0844 9.26562 12.0844Z" fill="#A2ABB7"/>
<path d="M9.26562 13.4125H8.73438C8.58768 13.4125 8.46875 13.5314 8.46875 13.6781C8.46875 13.8248 8.58768 13.9437 8.73438 13.9437H9.26562C9.41232 13.9437 9.53125 13.8248 9.53125 13.6781C9.53125 13.5314 9.41232 13.4125 9.26562 13.4125Z" fill="#A2ABB7"/>
<path d="M11.125 6.77185H10.5938C10.4471 6.77185 10.3281 6.89078 10.3281 7.03748C10.3281 7.18417 10.4471 7.3031 10.5938 7.3031H11.125C11.2717 7.3031 11.3906 7.18417 11.3906 7.03748C11.3906 6.89078 11.2717 6.77185 11.125 6.77185Z" fill="#A2ABB7"/>
<path d="M11.125 8.09998H10.5938C10.4471 8.09998 10.3281 8.21891 10.3281 8.3656C10.3281 8.51229 10.4471 8.63123 10.5938 8.63123H11.125C11.2717 8.63123 11.3906 8.51229 11.3906 8.3656C11.3906 8.21891 11.2717 8.09998 11.125 8.09998Z" fill="#A2ABB7"/>
<path d="M11.125 9.4281H10.5938C10.4471 9.4281 10.3281 9.54703 10.3281 9.69373C10.3281 9.84042 10.4471 9.95935 10.5938 9.95935H11.125C11.2717 9.95935 11.3906 9.84042 11.3906 9.69373C11.3906 9.54703 11.2717 9.4281 11.125 9.4281Z" fill="#A2ABB7"/>
<path d="M11.125 10.7562H10.5938C10.4471 10.7562 10.3281 10.8752 10.3281 11.0219C10.3281 11.1685 10.4471 11.2875 10.5938 11.2875H11.125C11.2717 11.2875 11.3906 11.1685 11.3906 11.0219C11.3906 10.8752 11.2717 10.7562 11.125 10.7562Z" fill="#A2ABB7"/>
<path d="M11.125 12.0844H10.5938C10.4471 12.0844 10.3281 12.2033 10.3281 12.35C10.3281 12.4967 10.4471 12.6156 10.5938 12.6156H11.125C11.2717 12.6156 11.3906 12.4967 11.3906 12.35C11.3906 12.2033 11.2717 12.0844 11.125 12.0844Z" fill="#A2ABB7"/>
<path d="M11.125 13.4125H10.5938C10.4471 13.4125 10.3281 13.5314 10.3281 13.6781C10.3281 13.8248 10.4471 13.9437 10.5938 13.9437H11.125C11.2717 13.9437 11.3906 13.8248 11.3906 13.6781C11.3906 13.5314 11.2717 13.4125 11.125 13.4125Z" fill="#A2ABB7"/>
<path d="M7.40625 6.77185H6.875C6.72831 6.77185 6.60938 6.89078 6.60938 7.03748C6.60938 7.18417 6.72831 7.3031 6.875 7.3031H7.40625C7.55294 7.3031 7.67188 7.18417 7.67188 7.03748C7.67188 6.89078 7.55294 6.77185 7.40625 6.77185Z" fill="#A2ABB7"/>
<path d="M7.40625 8.09998H6.875C6.72831 8.09998 6.60938 8.21891 6.60938 8.3656C6.60938 8.51229 6.72831 8.63123 6.875 8.63123H7.40625C7.55294 8.63123 7.67188 8.51229 7.67188 8.3656C7.67188 8.21891 7.55294 8.09998 7.40625 8.09998Z" fill="#A2ABB7"/>
<path d="M7.40625 9.4281H6.875C6.72831 9.4281 6.60938 9.54703 6.60938 9.69373C6.60938 9.84042 6.72831 9.95935 6.875 9.95935H7.40625C7.55294 9.95935 7.67188 9.84042 7.67188 9.69373C7.67188 9.54703 7.55294 9.4281 7.40625 9.4281Z" fill="#A2ABB7"/>
<path d="M7.40625 10.7562H6.875C6.72831 10.7562 6.60938 10.8752 6.60938 11.0219C6.60938 11.1685 6.72831 11.2875 6.875 11.2875H7.40625C7.55294 11.2875 7.67188 11.1685 7.67188 11.0219C7.67188 10.8752 7.55294 10.7562 7.40625 10.7562Z" fill="#A2ABB7"/>
<path d="M7.40625 12.0844H6.875C6.72831 12.0844 6.60938 12.2033 6.60938 12.35C6.60938 12.4967 6.72831 12.6156 6.875 12.6156H7.40625C7.55294 12.6156 7.67188 12.4967 7.67188 12.35C7.67188 12.2033 7.55294 12.0844 7.40625 12.0844Z" fill="#A2ABB7"/>
<path d="M7.40625 13.4125H6.875C6.72831 13.4125 6.60938 13.5314 6.60938 13.6781C6.60938 13.8248 6.72831 13.9437 6.875 13.9437H7.40625C7.55294 13.9437 7.67188 13.8248 7.67188 13.6781C7.67188 13.5314 7.55294 13.4125 7.40625 13.4125Z" fill="#A2ABB7"/>
<path d="M5.54688 6.77185H5.01562C4.86893 6.77185 4.75 6.89078 4.75 7.03748C4.75 7.18417 4.86893 7.3031 5.01562 7.3031H5.54688C5.69357 7.3031 5.8125 7.18417 5.8125 7.03748C5.8125 6.89078 5.69357 6.77185 5.54688 6.77185Z" fill="#A2ABB7"/>
<path d="M5.54688 8.09998H5.01562C4.86893 8.09998 4.75 8.21891 4.75 8.3656C4.75 8.51229 4.86893 8.63123 5.01562 8.63123H5.54688C5.69357 8.63123 5.8125 8.51229 5.8125 8.3656C5.8125 8.21891 5.69357 8.09998 5.54688 8.09998Z" fill="#A2ABB7"/>
<path d="M5.54688 9.4281H5.01562C4.86893 9.4281 4.75 9.54703 4.75 9.69373C4.75 9.84042 4.86893 9.95935 5.01562 9.95935H5.54688C5.69357 9.95935 5.8125 9.84042 5.8125 9.69373C5.8125 9.54703 5.69357 9.4281 5.54688 9.4281Z" fill="#A2ABB7"/>
<path d="M5.54688 10.7562H5.01562C4.86893 10.7562 4.75 10.8752 4.75 11.0219C4.75 11.1685 4.86893 11.2875 5.01562 11.2875H5.54688C5.69357 11.2875 5.8125 11.1685 5.8125 11.0219C5.8125 10.8752 5.69357 10.7562 5.54688 10.7562Z" fill="#A2ABB7"/>
<path d="M5.54688 12.0844H5.01562C4.86893 12.0844 4.75 12.2033 4.75 12.35C4.75 12.4967 4.86893 12.6156 5.01562 12.6156H5.54688C5.69357 12.6156 5.8125 12.4967 5.8125 12.35C5.8125 12.2033 5.69357 12.0844 5.54688 12.0844Z" fill="#A2ABB7"/>
<path d="M5.54688 13.4125H5.01562C4.86893 13.4125 4.75 13.5314 4.75 13.6781C4.75 13.8248 4.86893 13.9437 5.01562 13.9437H5.54688C5.69357 13.9437 5.8125 13.8248 5.8125 13.6781C5.8125 13.5314 5.69357 13.4125 5.54688 13.4125Z" fill="#A2ABB7"/>
<path d="M12.9844 6.77185H12.4531C12.3064 6.77185 12.1875 6.89078 12.1875 7.03748C12.1875 7.18417 12.3064 7.3031 12.4531 7.3031H12.9844C13.1311 7.3031 13.25 7.18417 13.25 7.03748C13.25 6.89078 13.1311 6.77185 12.9844 6.77185Z" fill="#A2ABB7"/>
<path d="M12.9844 8.09998H12.4531C12.3064 8.09998 12.1875 8.21891 12.1875 8.3656C12.1875 8.51229 12.3064 8.63123 12.4531 8.63123H12.9844C13.1311 8.63123 13.25 8.51229 13.25 8.3656C13.25 8.21891 13.1311 8.09998 12.9844 8.09998Z" fill="#A2ABB7"/>
<path d="M12.9844 9.4281H12.4531C12.3064 9.4281 12.1875 9.54703 12.1875 9.69373C12.1875 9.84042 12.3064 9.95935 12.4531 9.95935H12.9844C13.1311 9.95935 13.25 9.84042 13.25 9.69373C13.25 9.54703 13.1311 9.4281 12.9844 9.4281Z" fill="#A2ABB7"/>
<path d="M12.9844 10.7562H12.4531C12.3064 10.7562 12.1875 10.8752 12.1875 11.0219C12.1875 11.1685 12.3064 11.2875 12.4531 11.2875H12.9844C13.1311 11.2875 13.25 11.1685 13.25 11.0219C13.25 10.8752 13.1311 10.7562 12.9844 10.7562Z" fill="#A2ABB7"/>
<path d="M12.9844 12.0844H12.4531C12.3064 12.0844 12.1875 12.2033 12.1875 12.35C12.1875 12.4967 12.3064 12.6156 12.4531 12.6156H12.9844C13.1311 12.6156 13.25 12.4967 13.25 12.35C13.25 12.2033 13.1311 12.0844 12.9844 12.0844Z" fill="#A2ABB7"/>
<path d="M12.9844 13.4125H12.4531C12.3064 13.4125 12.1875 13.5314 12.1875 13.6781C12.1875 13.8248 12.3064 13.9437 12.4531 13.9437H12.9844C13.1311 13.9437 13.25 13.8248 13.25 13.6781C13.25 13.5314 13.1311 13.4125 12.9844 13.4125Z" fill="#A2ABB7"/>
<path d="M14.8438 6.77185H14.3125C14.1658 6.77185 14.0469 6.89078 14.0469 7.03748C14.0469 7.18417 14.1658 7.3031 14.3125 7.3031H14.8438C14.9904 7.3031 15.1094 7.18417 15.1094 7.03748C15.1094 6.89078 14.9904 6.77185 14.8438 6.77185Z" fill="#A2ABB7"/>
<path d="M14.8438 8.09998H14.3125C14.1658 8.09998 14.0469 8.21891 14.0469 8.3656C14.0469 8.51229 14.1658 8.63123 14.3125 8.63123H14.8438C14.9904 8.63123 15.1094 8.51229 15.1094 8.3656C15.1094 8.21891 14.9904 8.09998 14.8438 8.09998Z" fill="#A2ABB7"/>
<path d="M14.8438 9.4281H14.3125C14.1658 9.4281 14.0469 9.54703 14.0469 9.69373C14.0469 9.84042 14.1658 9.95935 14.3125 9.95935H14.8438C14.9904 9.95935 15.1094 9.84042 15.1094 9.69373C15.1094 9.54703 14.9904 9.4281 14.8438 9.4281Z" fill="#A2ABB7"/>
<path d="M14.8438 10.7562H14.3125C14.1658 10.7562 14.0469 10.8752 14.0469 11.0219C14.0469 11.1685 14.1658 11.2875 14.3125 11.2875H14.8438C14.9904 11.2875 15.1094 11.1685 15.1094 11.0219C15.1094 10.8752 14.9904 10.7562 14.8438 10.7562Z" fill="#A2ABB7"/>
<path d="M14.8438 12.0844H14.3125C14.1658 12.0844 14.0469 12.2033 14.0469 12.35C14.0469 12.4967 14.1658 12.6156 14.3125 12.6156H14.8438C14.9904 12.6156 15.1094 12.4967 15.1094 12.35C15.1094 12.2033 14.9904 12.0844 14.8438 12.0844Z" fill="#A2ABB7"/>
<path d="M14.8438 13.4125H14.3125C14.1658 13.4125 14.0469 13.5314 14.0469 13.6781C14.0469 13.8248 14.1658 13.9437 14.3125 13.9437H14.8438C14.9904 13.9437 15.1094 13.8248 15.1094 13.6781C15.1094 13.5314 14.9904 13.4125 14.8438 13.4125Z" fill="#A2ABB7"/>
<path d="M3.6875 6.77185H3.15625C3.00956 6.77185 2.89062 6.89078 2.89062 7.03748C2.89062 7.18417 3.00956 7.3031 3.15625 7.3031H3.6875C3.83419 7.3031 3.95312 7.18417 3.95312 7.03748C3.95312 6.89078 3.83419 6.77185 3.6875 6.77185Z" fill="#A2ABB7"/>
<path d="M3.6875 8.09998H3.15625C3.00956 8.09998 2.89062 8.21891 2.89062 8.3656C2.89062 8.51229 3.00956 8.63123 3.15625 8.63123H3.6875C3.83419 8.63123 3.95312 8.51229 3.95312 8.3656C3.95312 8.21891 3.83419 8.09998 3.6875 8.09998Z" fill="#A2ABB7"/>
<path d="M3.6875 9.4281H3.15625C3.00956 9.4281 2.89062 9.54703 2.89062 9.69373C2.89062 9.84042 3.00956 9.95935 3.15625 9.95935H3.6875C3.83419 9.95935 3.95312 9.84042 3.95312 9.69373C3.95312 9.54703 3.83419 9.4281 3.6875 9.4281Z" fill="#A2ABB7"/>
<path d="M3.6875 10.7562H3.15625C3.00956 10.7562 2.89062 10.8752 2.89062 11.0219C2.89062 11.1685 3.00956 11.2875 3.15625 11.2875H3.6875C3.83419 11.2875 3.95312 11.1685 3.95312 11.0219C3.95312 10.8752 3.83419 10.7562 3.6875 10.7562Z" fill="#A2ABB7"/>
<path d="M3.6875 12.0844H3.15625C3.00956 12.0844 2.89062 12.2033 2.89062 12.35C2.89062 12.4967 3.00956 12.6156 3.15625 12.6156H3.6875C3.83419 12.6156 3.95312 12.4967 3.95312 12.35C3.95312 12.2033 3.83419 12.0844 3.6875 12.0844Z" fill="#A2ABB7"/>
<path d="M3.6875 13.4125H3.15625C3.00956 13.4125 2.89062 13.5314 2.89062 13.6781C2.89062 13.8248 3.00956 13.9437 3.15625 13.9437H3.6875C3.83419 13.9437 3.95312 13.8248 3.95312 13.6781C3.95312 13.5314 3.83419 13.4125 3.6875 13.4125Z" fill="#A2ABB7"/>
</svg>
