<svg width="18" height="19" viewBox="0 0 18 19" fill="none" xmlns="http://www.w3.org/2000/svg">
<g clip-path="url(#clip0_2062_15567)">
<path d="M13.2128 4.71115H4.78723C4.6286 4.71115 4.5 4.83972 4.5 4.99838V13.6154C4.5 13.7741 4.6286 13.9026 4.78723 13.9026H9.76595C9.92457 13.9026 10.0532 13.7741 10.0532 13.6154C10.0532 13.4568 9.92457 13.3282 9.76595 13.3282H5.07445V5.28564H12.9255V13.3282H10.9149C10.7563 13.3282 10.6277 13.4568 10.6277 13.6154C10.6277 13.7741 10.7563 13.9026 10.9149 13.9026H13.2128C13.3714 13.9026 13.5 13.7741 13.5 13.6154V4.99841C13.5 4.83972 13.3714 4.71115 13.2128 4.71115Z" fill="#A2ABB7"/>
<path d="M13.2128 15.6261H4.78723C4.6286 15.6261 4.5 15.7546 4.5 15.9133C4.5 16.072 4.6286 16.2005 4.78723 16.2005H13.2128C13.3714 16.2005 13.5 16.072 13.5 15.9133C13.5 15.7546 13.3714 15.6261 13.2128 15.6261Z" fill="#A2ABB7"/>
<path d="M14.7446 3.17927H5.34634L12.5424 1.16436V2.31755C12.5424 2.47621 12.671 2.60478 12.8297 2.60478C12.9883 2.60478 13.1169 2.47621 13.1169 2.31755V0.785655C13.1169 0.69576 13.0748 0.611104 13.0032 0.556788C12.9316 0.502506 12.8388 0.484893 12.7522 0.509045L3.18381 3.1882C3.14914 3.19706 3.11701 3.21224 3.08867 3.23242C3.07138 3.24473 3.05556 3.2589 3.04149 3.27458C2.99639 3.32485 2.96879 3.39084 2.96802 3.4633C2.96802 3.46435 2.96802 18.2112 2.96802 18.2112C2.96802 18.3699 3.09662 18.4984 3.25524 18.4984H14.7446C14.9032 18.4984 15.0318 18.3699 15.0318 18.2112V3.46649C15.0318 3.30783 14.9032 3.17927 14.7446 3.17927ZM14.4574 17.924H3.54244V3.75372H14.4574V17.924Z" fill="#A2ABB7"/>
</g>
<defs>
<clipPath id="clip0_2062_15567">
<rect width="18" height="18" fill="white" transform="translate(0 0.498413)"/>
</clipPath>
</defs>
</svg>
