<svg width="18" height="19" viewBox="0 0 18 19" fill="none" xmlns="http://www.w3.org/2000/svg">
<g clip-path="url(#clip0_2062_15603)">
<path d="M17.0394 1.45899C15.7582 0.178214 13.674 0.178214 12.3932 1.45903C11.4909 2.36135 11.198 3.71898 11.6285 4.9062C11.5471 4.95943 11.4708 5.0212 11.4004 5.09155C11.27 5.22226 11.1673 5.37631 11.0966 5.5438C10.4043 5.03189 9.63623 4.61683 8.82914 4.32271C8.56941 4.22807 8.27529 4.29336 8.07958 4.489L0.210062 12.3583C0.00091714 12.5675 -0.0577587 12.8783 0.0606828 13.1502C0.259386 13.6065 0.494089 14.0528 0.758148 14.4766C0.835175 14.6003 0.997737 14.638 1.12142 14.561C1.24499 14.484 1.28275 14.3214 1.20572 14.1977C0.955234 13.7957 0.732659 13.3724 0.544187 12.9396C0.512933 12.8678 0.528155 12.7861 0.582964 12.7313L8.45248 4.86194C8.50377 4.81068 8.58062 4.79346 8.64855 4.81821C9.76975 5.22683 10.8114 5.88263 11.6608 6.71471C12.7873 7.81819 13.3807 9.02855 13.6801 9.84959C13.7049 9.91755 13.6878 9.99458 13.6365 10.0459L8.8566 14.8256C8.75363 14.9286 8.75363 15.0956 8.8566 15.1985C8.9081 15.25 8.97557 15.2758 9.04307 15.2758C9.11053 15.2758 9.17803 15.25 9.22954 15.1985L14.0094 10.4188C14.2051 10.2231 14.2704 9.92869 14.1756 9.66885C13.9522 9.05629 13.5744 8.23965 12.9548 7.40152C13.1222 7.33082 13.2763 7.2282 13.407 7.09763C13.4773 7.02732 13.5391 6.95096 13.5923 6.86968C13.9544 7.00102 14.3322 7.06522 14.7082 7.06522C15.5652 7.06522 16.4124 6.73243 17.0395 6.10542C18.3201 4.82443 18.3201 2.74005 17.0394 1.45899ZM13.2272 6.43634C13.1833 6.5435 13.1183 6.64057 13.0343 6.72469C12.9161 6.84264 12.7677 6.92389 12.6076 6.96154C12.4314 6.75212 12.2395 6.54325 12.0299 6.33794C11.8717 6.18297 11.7069 6.03409 11.5367 5.89103C11.5744 5.73083 11.6556 5.5824 11.7735 5.46431C11.8577 5.38007 11.9548 5.31507 12.0629 5.27081C12.397 5.13261 12.7783 5.20851 13.0341 5.46431C13.2899 5.7201 13.3658 6.10134 13.2272 6.43634ZM16.6665 5.73255C15.9144 6.48465 14.7853 6.73208 13.7936 6.38153C13.8898 5.91923 13.75 5.43443 13.4069 5.09134C13.0638 4.74818 12.5789 4.60938 12.117 4.7055C11.7661 3.71367 12.0136 2.58431 12.7661 1.83186C13.8412 0.75671 15.591 0.756675 16.6665 1.83186C17.7416 2.90732 17.7416 4.65716 16.6665 5.73255Z" fill="#A2ABB7"/>
<path d="M8.43806 15.6171C8.33512 15.5141 8.16817 15.5141 8.06512 15.617L5.76693 17.9152C5.71303 17.9691 5.63052 17.9852 5.56154 17.9552C4.41724 17.4572 3.39423 16.7548 2.52102 15.8675C2.30562 15.6487 2.09826 15.4167 1.90476 15.1782C1.81301 15.0651 1.64693 15.0479 1.53383 15.1396C1.42073 15.2314 1.40347 15.3974 1.49519 15.5105C1.69928 15.762 1.91795 16.0066 2.14509 16.2374C3.06591 17.1731 4.14457 17.9137 5.3511 18.4388C5.44335 18.4789 5.54013 18.4984 5.63604 18.4984C5.82089 18.4984 6.00219 18.4258 6.13986 18.2881L8.43806 15.99C8.54103 15.887 8.54103 15.72 8.43806 15.6171Z" fill="#A2ABB7"/>
<path d="M5.94662 12.5516C5.39351 11.9985 4.4934 11.9984 3.94022 12.5516C3.38711 13.1047 3.38711 14.0048 3.94026 14.5579C4.21683 14.8345 4.58014 14.9728 4.94344 14.9728C5.30674 14.9728 5.67001 14.8345 5.94662 14.5579C6.49977 14.0048 6.49977 13.1047 5.94662 12.5516ZM5.57376 14.185C5.2262 14.5325 4.66068 14.5325 4.31316 14.185C3.96557 13.8374 3.96557 13.272 4.31309 12.9245C4.48687 12.7507 4.71514 12.6638 4.9434 12.6638C5.1716 12.6638 5.39994 12.7507 5.57369 12.9245C5.92128 13.272 5.92128 13.8375 5.57376 14.185Z" fill="#A2ABB7"/>
<path d="M12.0913 8.97628L10.8922 7.77728C10.7893 7.67427 10.6223 7.67431 10.5193 7.77728C10.4163 7.88025 10.4164 8.04724 10.5194 8.15018L11.7184 9.34919C11.8107 9.44147 11.8615 9.56413 11.8615 9.69467C11.8615 9.82517 11.8107 9.94786 11.7184 10.0401L9.62795 12.1306C9.43743 12.321 9.12757 12.321 8.93705 12.1306L6.36777 9.56139C6.27552 9.4691 6.22472 9.34644 6.22472 9.21591C6.22472 9.08544 6.27552 8.96275 6.3678 8.87043L8.45826 6.77997C8.64877 6.58953 8.95871 6.58949 9.14915 6.77997L9.71633 7.34714C9.81934 7.45012 9.98629 7.45012 10.0893 7.34714C10.1922 7.24417 10.1922 7.07718 10.0893 6.97424L9.52205 6.40706C9.12595 6.01096 8.48146 6.01096 8.08532 6.40706L5.99483 8.49753C5.80298 8.68941 5.69727 8.94454 5.69727 9.21587C5.69727 9.48728 5.80295 9.74237 5.99483 9.93422L8.56415 12.5034C8.76219 12.7015 9.02234 12.8005 9.28247 12.8005C9.54255 12.8005 9.80271 12.7015 10.0008 12.5034L12.0913 10.413C12.4874 10.0169 12.4874 9.37239 12.0913 8.97628Z" fill="#A2ABB7"/>
</g>
<defs>
<clipPath id="clip0_2062_15603">
<rect width="18" height="18" fill="white" transform="translate(0 0.498413)"/>
</clipPath>
</defs>
</svg>
