<svg width="50" height="51" viewBox="0 0 50 51" fill="none" xmlns="http://www.w3.org/2000/svg">
<g clip-path="url(#clip0_2020_6718)">
<path d="M42.2356 5.98633C42.646 5.98633 42.9783 5.65369 42.9783 5.24361V3.1646C42.9783 2.75452 42.646 2.42188 42.2356 2.42188C41.8255 2.42188 41.4932 2.75452 41.4932 3.1646V5.24361C41.4932 5.65369 41.8255 5.98633 42.2356 5.98633Z" fill="#424F60"/>
<path d="M42.2356 11.2567C42.646 11.2567 42.9783 10.9244 42.9783 10.5144V8.43497C42.9783 8.02489 42.646 7.69263 42.2356 7.69263C41.8255 7.69263 41.4932 8.02489 41.4932 8.43497V10.5144C41.4932 10.9244 41.8255 11.2567 42.2356 11.2567Z" fill="#424F60"/>
<path d="M45.9107 6.09692H43.8316C43.4216 6.09692 43.0889 6.42918 43.0889 6.83926C43.0889 7.24934 43.4216 7.58199 43.8316 7.58199H45.9107C46.3211 7.58199 46.6534 7.24934 46.6534 6.83926C46.6534 6.42918 46.3211 6.09692 45.9107 6.09692Z" fill="#424F60"/>
<path d="M38.5609 7.58199H40.6399C41.05 7.58199 41.3826 7.24934 41.3826 6.83926C41.3826 6.42918 41.05 6.09692 40.6399 6.09692H38.5609C38.1504 6.09692 37.8181 6.42918 37.8181 6.83926C37.8181 7.24934 38.1508 7.58199 38.5609 7.58199Z" fill="#424F60"/>
<path d="M7.73811 35.5388C7.32765 35.5388 6.99539 35.8715 6.99539 36.2815V38.3605C6.99539 38.771 7.32765 39.1033 7.73811 39.1033C8.14819 39.1033 8.48045 38.771 8.48045 38.3605V36.2815C8.48045 35.8715 8.14819 35.5388 7.73811 35.5388Z" fill="#424F60"/>
<path d="M7.73811 40.8096C7.32765 40.8096 6.99539 41.1422 6.99539 41.5523V43.6317C6.99539 44.0418 7.32765 44.374 7.73811 44.374C8.14819 44.374 8.48045 44.0418 8.48045 43.6317V41.5523C8.48045 41.1422 8.14819 40.8096 7.73811 40.8096Z" fill="#424F60"/>
<path d="M11.4128 39.2139H9.33379C8.92332 39.2139 8.59106 39.5465 8.59106 39.9566C8.59106 40.3667 8.92332 40.6989 9.33379 40.6989H11.4128C11.8229 40.6989 12.1555 40.3667 12.1555 39.9566C12.1555 39.5465 11.8229 39.2139 11.4128 39.2139Z" fill="#424F60"/>
<path d="M6.14204 39.2139H4.06303C3.65257 39.2139 3.32031 39.5465 3.32031 39.9566C3.32031 40.3667 3.65257 40.6989 4.06303 40.6989H6.14204C6.55212 40.6989 6.88477 40.3667 6.88477 39.9566C6.88477 39.5465 6.55212 39.2139 6.14204 39.2139Z" fill="#424F60"/>
<path d="M30.3409 7.73044C29.4388 7.73044 28.5545 7.81017 27.6954 7.96313C26.6289 5.8044 25.2647 4.00272 23.727 2.72975C21.9631 1.27025 19.9627 0.498535 17.9409 0.498535C14.331 0.498535 10.9211 2.93727 8.58611 7.18951C8.3885 7.54886 8.51973 8.00014 8.87946 8.19774C9.2388 8.39534 9.69046 8.26373 9.88768 7.90439C11.9541 4.14157 14.8895 1.9836 17.9409 1.9836C21.1037 1.9836 24.1485 4.33002 26.2062 8.30722C19.8986 10.1089 15.2675 15.9256 15.2675 22.8038C15.2675 28.3168 18.243 33.147 22.6719 35.7753C21.2013 36.9575 19.5839 37.5797 17.9443 37.5804C17.9432 37.5804 17.942 37.5801 17.9405 37.5801C17.9394 37.5801 17.9382 37.5804 17.9367 37.5804C15.1092 37.5789 12.4256 35.7746 10.3794 32.4993C8.26414 29.1137 7.09952 24.5971 7.09952 19.7818C7.09952 16.6183 7.61641 13.5097 8.59488 10.7914C8.73373 10.4057 8.53346 9.98035 8.1478 9.84111C7.76213 9.70226 7.33641 9.90253 7.19756 10.2886C6.16148 13.166 5.61407 16.4489 5.61407 19.7818C5.61407 24.8718 6.85919 29.6676 9.11978 33.2862C11.161 36.5531 13.8199 38.5334 16.708 38.9724L13.2973 44.8802C13.1645 45.1099 13.1645 45.3929 13.2973 45.623C13.43 45.8526 13.6749 45.9941 13.9404 45.9941H17.0494V49.7558C17.0494 50.1659 17.3817 50.4985 17.7921 50.4985C18.2022 50.4985 18.5345 50.1659 18.5345 49.7558V45.9941H21.9406C22.2057 45.9941 22.451 45.8526 22.5838 45.623C22.7161 45.3929 22.7161 45.1099 22.5838 44.8802L19.1719 38.9709C20.9102 38.7031 22.5857 37.8707 24.0917 36.5196C25.6348 37.2257 27.317 37.6781 29.0851 37.8246L25.6973 43.692C25.5646 43.922 25.5646 44.205 25.6973 44.4347C25.8301 44.6643 26.075 44.8059 26.3405 44.8059H29.5982V49.7558C29.5982 50.1659 29.9305 50.4985 30.3406 50.4985C30.751 50.4985 31.0833 50.1659 31.0833 49.7558V44.8059H34.3407C34.6062 44.8059 34.8511 44.6643 34.9838 44.4347C35.1166 44.205 35.1166 43.922 34.9838 43.692L31.5967 37.825C33.1505 37.6976 34.6626 37.3333 36.1053 36.7355C36.4845 36.5787 36.6646 36.1442 36.5074 35.7654C36.3506 35.3862 35.9161 35.2066 35.5373 35.3633C33.889 36.0462 32.1407 36.3922 30.3406 36.3922C22.8481 36.3922 16.7522 30.2967 16.7522 22.8038C16.7522 15.3114 22.8481 9.2155 30.3406 9.2155C37.8334 9.2155 43.9289 15.3114 43.9289 22.8038C43.9289 27.325 41.6893 31.5376 37.9375 34.0721C37.5976 34.3017 37.5084 34.7633 37.7376 35.1032C37.9673 35.4427 38.4289 35.5323 38.7688 35.3027C42.9298 32.4916 45.414 27.819 45.414 22.8038C45.4147 14.4924 38.6528 7.73044 30.3409 7.73044ZM15.2267 44.5091L17.9405 39.8082L20.6547 44.5091H15.2267ZM27.6272 43.3208L30.3409 38.6199L33.0551 43.3208H27.6272Z" fill="#424F60"/>
<path d="M21.6273 27.1992C21.9531 27.1992 22.2835 27.0557 22.2835 26.7807V20.3415C22.2835 20.0851 21.9802 19.9131 21.6964 19.9131C21.5926 19.9131 21.4999 19.9474 21.4214 20.0146L20.2537 20.9057C20.0996 21.0018 20 21.1887 20 21.3817C20 21.6354 20.1637 21.9093 20.4284 21.9093C20.4925 21.9093 20.5871 21.8933 20.6748 21.8166L20.9708 21.5206V26.7811C20.9708 26.9825 21.1761 27.1992 21.6273 27.1992Z" fill="#424F60"/>
<path d="M25.6443 26.0849C25.0507 26.0849 24.6361 25.7885 24.6361 25.3643C24.6361 25.0339 24.4053 24.8665 23.9502 24.8665C23.5123 24.8665 23.3333 25.0252 23.3333 25.4139C23.3333 25.8663 23.5309 26.3138 23.8758 26.6414C24.2878 27.0325 24.8855 27.2392 25.6042 27.2392C26.3302 27.2392 26.9062 27.0653 27.3163 26.7223C27.7794 26.3351 28.014 25.7416 28.014 24.958V22.1943C28.014 20.7233 27.1793 19.9131 25.6637 19.9131C24.1611 19.9131 23.3333 20.7233 23.3333 22.1943V22.3327C23.3333 23.0648 23.5386 23.6103 23.9433 23.9544C24.2878 24.2473 24.7764 24.3957 25.3963 24.3957C25.9842 24.3957 26.4114 24.237 26.7017 23.9113V24.958C26.7017 25.6954 26.3359 26.0849 25.6443 26.0849ZM26.7017 22.1149V22.3327C26.7017 23.0244 26.3656 23.3604 25.674 23.3604C24.9725 23.3604 24.646 23.0057 24.646 22.2435V22.1145C24.646 21.3775 24.9981 20.9877 25.6641 20.9877C26.3428 20.9881 26.7017 21.3775 26.7017 22.1149Z" fill="#424F60"/>
<path d="M31.1443 26.0849C30.5507 26.0849 30.136 25.7885 30.136 25.3643C30.136 25.0339 29.9052 24.8665 29.4501 24.8665C29.0122 24.8665 28.8333 25.0252 28.8333 25.4139C28.8333 25.8663 29.0309 26.3138 29.3758 26.6414C29.7878 27.0325 30.3855 27.2392 31.1042 27.2392C31.8301 27.2392 32.4062 27.0653 32.8162 26.7223C33.2793 26.3351 33.5139 25.7416 33.5139 24.958V22.1943C33.5139 20.7233 32.6793 19.9131 31.1637 19.9131C29.6611 19.9131 28.8333 20.7233 28.8333 22.1943V22.3327C28.8333 23.0648 29.0385 23.6103 29.4433 23.9544C29.7878 24.2473 30.2764 24.3957 30.8963 24.3957C31.4841 24.3957 31.9114 24.237 32.2017 23.9113V24.958C32.2017 25.6954 31.8359 26.0849 31.1443 26.0849ZM32.2017 22.1149V22.3327C32.2017 23.0244 31.8656 23.3604 31.174 23.3604C30.4725 23.3604 30.146 23.0057 30.146 22.2435V22.1145C30.146 21.3775 30.498 20.9877 31.1641 20.9877C31.8427 20.9881 32.2017 21.3775 32.2017 22.1149Z" fill="#424F60"/>
<path d="M36.8544 21.0685C37.4483 21.0685 37.8632 21.3652 37.8632 21.7898C37.8632 22.1205 38.0941 22.2881 38.5495 22.2881C38.9876 22.2881 39.1667 22.1292 39.1667 21.7401C39.1667 21.2873 38.9689 20.8394 38.6239 20.5114C38.2117 20.12 37.6136 19.913 36.8945 19.913C36.1681 19.913 35.5918 20.0871 35.1814 20.4304C34.7181 20.818 34.4833 21.4121 34.4833 22.1964V24.9629C34.4833 26.4353 35.3185 27.2463 36.8349 27.2463C38.3384 27.2463 39.1667 26.4353 39.1667 24.9629V24.8243C39.1667 24.0915 38.9613 23.5455 38.5563 23.2011C38.2117 22.9078 37.7227 22.7593 37.1025 22.7593C36.5143 22.7593 36.0868 22.9181 35.7963 23.2442V22.1964C35.7963 21.4583 36.1624 21.0685 36.8544 21.0685ZM35.7963 25.0423V24.8243C35.7963 24.132 36.1326 23.7956 36.8246 23.7956C37.5265 23.7956 37.8533 24.1507 37.8533 24.9136V25.0427C37.8533 25.7804 37.501 26.1707 36.8345 26.1707C36.1555 26.1703 35.7963 25.7804 35.7963 25.0423Z" fill="#424F60"/>
</g>
<defs>
<clipPath id="clip0_2020_6718">
<rect width="50" height="50" fill="white" transform="translate(0 0.498535)"/>
</clipPath>
</defs>
</svg>
