<svg width="45" height="43" viewBox="0 0 45 43" fill="none" xmlns="http://www.w3.org/2000/svg">
<path d="M43.4885 14.9663H44.2742C44.4667 14.9663 44.6513 14.8898 44.7874 14.7537C44.9235 14.6176 45 14.433 45 14.2405V11.3373C45 11.1448 44.9235 10.9602 44.7874 10.8241C44.6513 10.6879 44.4667 10.6115 44.2742 10.6115H43.3016L39.1346 0.890215C39.0787 0.759678 38.9857 0.648412 38.8672 0.570199C38.7486 0.491986 38.6098 0.450262 38.4677 0.450195H6.53226C6.39025 0.450262 6.25138 0.491986 6.13285 0.570199C6.01432 0.648412 5.92134 0.759678 5.86542 0.890215L1.69839 10.6115H0.725806C0.533311 10.6115 0.348699 10.6879 0.212584 10.8241C0.0764686 10.9602 0 11.1448 0 11.3373V14.2405C0 14.433 0.0764686 14.6176 0.212584 14.7537C0.348699 14.8898 0.533311 14.9663 0.725806 14.9663H1.51149C1.76915 16.535 2.84879 17.8732 4.35484 18.638V36.7405H3.62903C3.43654 36.7405 3.25192 36.817 3.11581 36.9531C2.97969 37.0892 2.90323 37.2738 2.90323 37.4663V38.9179H0.725806C0.533311 38.9179 0.348699 38.9944 0.212584 39.1305C0.0764686 39.2666 0 39.4512 0 39.6437V41.8211C0 42.0136 0.0764686 42.1983 0.212584 42.3344C0.348699 42.4705 0.533311 42.547 0.725806 42.547H44.2742C44.4667 42.547 44.6513 42.4705 44.7874 42.3344C44.9235 42.1983 45 42.0136 45 41.8211V39.6437C45 39.4512 44.9235 39.2666 44.7874 39.1305C44.6513 38.9944 44.4667 38.9179 44.2742 38.9179H42.0968V37.4663C42.0968 37.2738 42.0203 37.0892 41.8842 36.9531C41.7481 36.817 41.5635 36.7405 41.371 36.7405H40.6452V18.638C42.1512 17.8732 43.2308 16.535 43.4885 14.9663ZM7.01129 1.90181H37.9887L41.7221 10.6115H3.27792L7.01129 1.90181ZM1.45161 13.5147V12.0631H43.5484V13.5147H1.45161ZM15.9677 20.7728H7.25806C7.06557 20.7728 6.88096 20.8492 6.74484 20.9853C6.60873 21.1215 6.53226 21.3061 6.53226 21.4986V36.7405H5.80645V19.1606C6.28292 19.2675 6.76975 19.3213 7.25806 19.3212C9.44184 19.3212 11.348 18.2606 12.3387 16.6965C13.3294 18.2606 15.2356 19.3212 17.4194 19.3212C19.6031 19.3212 21.5093 18.2606 22.5 16.6965C23.4907 18.2606 25.3969 19.3212 27.5806 19.3212C29.7644 19.3212 31.6706 18.2606 32.6613 16.6965C33.652 18.2606 35.5582 19.3212 37.7419 19.3212C38.2302 19.3213 38.7171 19.2675 39.1936 19.1606V36.7405H16.6935V21.4986C16.6935 21.3061 16.6171 21.1215 16.481 20.9853C16.3449 20.8492 16.1602 20.7728 15.9677 20.7728ZM15.2419 22.2244V36.7405H7.98387V22.2244H15.2419ZM13.1525 14.9663H21.6862C21.2816 16.6212 19.5224 17.8695 17.4194 17.8695C15.3163 17.8695 13.5572 16.6212 13.1525 14.9663ZM23.3138 14.9663H31.8475C31.4428 16.6212 29.6837 17.8695 27.5806 17.8695C25.4776 17.8695 23.7184 16.6212 23.3138 14.9663ZM2.99123 14.9663H11.5249C11.1203 16.6212 9.36109 17.8695 7.25806 17.8695C5.15504 17.8695 3.39587 16.6212 2.99123 14.9663ZM4.35484 38.1921H40.6452V38.9179H4.35484V38.1921ZM43.5484 40.3695V41.0953H1.45161V40.3695H43.5484ZM37.7419 17.8695C35.6389 17.8695 33.8797 16.6212 33.4751 14.9663H42.0088C41.6041 16.6212 39.845 17.8695 37.7419 17.8695Z" fill="#424F60"/>
<path d="M18.8707 20.7732C18.6782 20.7732 18.4936 20.8497 18.3575 20.9858C18.2214 21.1219 18.1449 21.3065 18.1449 21.499V32.3861C18.1449 32.5786 18.2214 32.7632 18.3575 32.8993C18.4936 33.0354 18.6782 33.1119 18.8707 33.1119H37.7417C37.9342 33.1119 38.1188 33.0354 38.2549 32.8993C38.391 32.7632 38.4675 32.5786 38.4675 32.3861V21.499C38.4675 21.3065 38.391 21.1219 38.2549 20.9858C38.1188 20.8497 37.9342 20.7732 37.7417 20.7732H18.8707ZM37.0159 31.6603H19.5965V22.2248H37.0159V31.6603Z" fill="#424F60"/>
<path d="M13.7905 31.66C13.983 31.66 14.1676 31.5835 14.3037 31.4474C14.4398 31.3113 14.5163 31.1267 14.5163 30.9342V28.031C14.5163 27.8385 14.4398 27.6539 14.3037 27.5178C14.1676 27.3816 13.983 27.3052 13.7905 27.3052C13.598 27.3052 13.4134 27.3816 13.2773 27.5178C13.1412 27.6539 13.0647 27.8385 13.0647 28.031V30.9342C13.0647 31.1267 13.1412 31.3113 13.2773 31.4474C13.4134 31.5835 13.598 31.66 13.7905 31.66Z" fill="#424F60"/>
</svg>
