<svg width="65" height="65" viewBox="0 0 65 65" fill="none" xmlns="http://www.w3.org/2000/svg">
<path d="M60.1756 39.1719H43.6078C43.0011 39.1719 42.4089 38.8974 42.0189 38.4497C41.6723 38.0452 41.5278 37.5541 41.6 37.0486L43.9256 21.1308C44.0845 20.0041 44.9223 19.2241 45.9334 19.2241H57.85C58.8611 19.2241 59.6989 20.0041 59.8578 21.1308L60.8256 27.7463C60.8834 28.1363 60.6089 28.5119 60.2189 28.5697C59.8289 28.6274 59.4534 28.353 59.3956 27.963L58.4278 21.3475C58.3845 21.1019 58.2256 20.6686 57.85 20.6686H45.9334C45.5578 20.6686 45.3845 21.0875 45.3556 21.3475L43.03 37.2652C43.0156 37.3519 43.0445 37.4241 43.1167 37.5108C43.2323 37.6408 43.42 37.7274 43.6078 37.7274H60.1756C60.3634 37.7274 60.5511 37.6408 60.6667 37.5108C60.7389 37.4241 60.7678 37.3519 60.7534 37.2652L60.5223 35.6474C60.4645 35.2574 60.7389 34.8819 61.1289 34.8241C61.5189 34.7663 61.8945 35.0408 61.9523 35.4308L62.1834 37.0486C62.2556 37.5541 62.1112 38.0452 61.7645 38.4497C61.36 38.8974 60.7678 39.1719 60.1756 39.1719Z" fill="#424F60"/>
<path d="M56.3766 25.2474C55.9721 25.2474 55.6544 24.9296 55.6544 24.5252V18.9207C55.6544 16.8407 53.9644 15.1507 51.8844 15.1507C49.8044 15.1507 48.1144 16.8407 48.1144 18.9207V24.5252C48.1144 24.9296 47.7966 25.2474 47.3921 25.2474C46.9877 25.2474 46.6699 24.9296 46.6699 24.5252V18.9207C46.6699 16.0463 49.0099 13.7063 51.8844 13.7063C54.7588 13.7063 57.0988 16.0463 57.0988 18.9207V24.5252C57.0988 24.9296 56.781 25.2474 56.3766 25.2474Z" fill="#424F60"/>
<path d="M48.2733 25.2474H46.54C46.1355 25.2474 45.8177 24.9296 45.8177 24.5252C45.8177 24.1208 46.1355 23.803 46.54 23.803H48.2733C48.6777 23.803 48.9955 24.1208 48.9955 24.5252C48.9955 24.9296 48.6633 25.2474 48.2733 25.2474Z" fill="#424F60"/>
<path d="M57.2433 25.2474H55.5099C55.1055 25.2474 54.7877 24.9296 54.7877 24.5252C54.7877 24.1208 55.1055 23.803 55.5099 23.803H57.2433C57.6477 23.803 57.9655 24.1208 57.9655 24.5252C57.9655 24.9296 57.6477 25.2474 57.2433 25.2474Z" fill="#424F60"/>
<path d="M51.48 41.3819H1.34332C0.938871 41.3819 0.621094 41.0642 0.621094 40.6597C0.621094 40.2553 0.938871 39.9375 1.34332 39.9375H51.4944C51.8989 39.9375 52.2166 40.2553 52.2166 40.6597C52.2166 41.0642 51.8844 41.3819 51.48 41.3819Z" fill="#424F60"/>
<path d="M48.6633 46.0908H4.15998C2.20998 46.0908 0.621094 44.5019 0.621094 42.5519V17.6785C0.621094 15.7285 2.20998 14.1396 4.15998 14.1396H48.6633C49.0822 14.1396 49.5011 14.2119 49.9056 14.3708C50.2811 14.5152 50.4689 14.9341 50.3244 15.2952C50.18 15.6708 49.7611 15.8585 49.4 15.7141C49.1689 15.6274 48.9233 15.5841 48.6633 15.5841H4.15998C3.00443 15.5841 2.06554 16.523 2.06554 17.6785V42.5519C2.06554 43.7074 3.00443 44.6463 4.15998 44.6463H48.6633C49.8189 44.6463 50.7578 43.7074 50.7578 42.5519V38.5941C50.7578 38.1897 51.0756 37.8719 51.48 37.8719C51.8844 37.8719 52.2022 38.1897 52.2022 38.5941V42.5519C52.2022 44.5019 50.6133 46.0908 48.6633 46.0908Z" fill="#424F60"/>
<path d="M20.4389 51.5073C20.3522 51.5073 20.2656 51.4928 20.1789 51.4639C19.8033 51.3195 19.63 50.9006 19.7744 50.5251L21.8978 45.1084C22.0422 44.7328 22.4611 44.5595 22.8367 44.7039C23.2122 44.8484 23.3856 45.2673 23.2411 45.6428L21.1178 51.0595C21.0022 51.3339 20.7278 51.5073 20.4389 51.5073ZM32.3845 51.5073C32.0956 51.5073 31.8211 51.3339 31.7056 51.0451L29.5822 45.6284C29.4378 45.2528 29.6256 44.8339 29.9867 44.6895C30.3622 44.5451 30.7811 44.7328 30.9256 45.0939L33.0489 50.5106C33.1933 50.8862 33.0056 51.3051 32.6445 51.4495C32.5578 51.4928 32.4711 51.5073 32.3845 51.5073Z" fill="#424F60"/>
<path d="M35.1867 51.5074H17.6367C17.2322 51.5074 16.9144 51.1897 16.9144 50.7852C16.9144 50.3808 17.2322 50.063 17.6367 50.063H35.1867C35.5911 50.063 35.9089 50.3808 35.9089 50.7852C35.9089 51.1897 35.5767 51.5074 35.1867 51.5074Z" fill="#424F60"/>
<path d="M28.3978 43.7362H24.4256C24.0211 43.7362 23.7034 43.4184 23.7034 43.014C23.7034 42.6095 24.0211 42.2917 24.4256 42.2917H28.3978C28.8023 42.2917 29.12 42.6095 29.12 43.014C29.12 43.4184 28.7878 43.7362 28.3978 43.7362Z" fill="#424F60"/>
<path d="M59.7422 36.543C57.1422 36.543 55.0333 34.4341 55.0333 31.8341C55.0333 29.2341 57.1422 27.1252 59.7422 27.1252C62.3422 27.1252 64.4511 29.2341 64.4511 31.8341C64.4655 34.4197 62.3422 36.543 59.7422 36.543ZM59.7422 28.5552C57.9367 28.5552 56.4778 30.0286 56.4778 31.8197C56.4778 33.6108 57.9511 35.0841 59.7422 35.0841C61.5333 35.0841 63.0067 33.6108 63.0067 31.8197C63.0067 30.0286 61.5478 28.5552 59.7422 28.5552Z" fill="#424F60"/>
<path d="M59.7422 33.7841C59.3378 33.7841 59.02 33.4663 59.02 33.0619V30.5774C59.02 30.173 59.3378 29.8552 59.7422 29.8552C60.1467 29.8552 60.4645 30.173 60.4645 30.5774V33.0619C60.4645 33.4663 60.1467 33.7841 59.7422 33.7841Z" fill="#424F60"/>
<path d="M60.9845 32.5419H58.5001C58.0956 32.5419 57.7778 32.2241 57.7778 31.8196C57.7778 31.4152 58.0956 31.0974 58.5001 31.0974H60.9845C61.3889 31.0974 61.7067 31.4152 61.7067 31.8196C61.7067 32.2241 61.3889 32.5419 60.9845 32.5419Z" fill="#424F60"/>
<path d="M11.7656 24.4962H7.96669C6.94113 24.4962 6.1178 23.6729 6.1178 22.6473V18.834C6.1178 17.8084 6.94113 16.9851 7.96669 16.9851H11.78C12.8056 16.9851 13.6289 17.8084 13.6289 18.834V22.6473C13.6145 23.6729 12.7911 24.4962 11.7656 24.4962ZM7.96669 18.4296C7.75002 18.4296 7.56224 18.6173 7.56224 18.834V22.6473C7.56224 22.864 7.75002 23.0518 7.96669 23.0518H11.78C11.9967 23.0518 12.1845 22.864 12.1845 22.6473V18.834C12.1845 18.6173 11.9967 18.4296 11.78 18.4296H7.96669Z" fill="#424F60"/>
<path d="M12.8989 27.0963H6.83221C6.42776 27.0963 6.10999 26.7785 6.10999 26.3741C6.10999 25.9696 6.42776 25.6519 6.83221 25.6519H12.8989C13.3033 25.6519 13.6211 25.9696 13.6211 26.3741C13.6211 26.7785 13.3033 27.0963 12.8989 27.0963Z" fill="#424F60"/>
<path d="M23.6455 24.4962H19.8322C18.8066 24.4962 17.9833 23.6729 17.9833 22.6473V18.834C17.9833 17.8084 18.8066 16.9851 19.8322 16.9851H23.6455C24.6711 16.9851 25.4944 17.8084 25.4944 18.834V22.6473C25.4944 23.6729 24.6566 24.4962 23.6455 24.4962ZM19.8322 18.4296C19.6155 18.4296 19.4277 18.6173 19.4277 18.834V22.6473C19.4277 22.864 19.6155 23.0518 19.8322 23.0518H23.6455C23.8622 23.0518 24.0499 22.864 24.0499 22.6473V18.834C24.0499 18.6173 23.8622 18.4296 23.6455 18.4296H19.8322Z" fill="#424F60"/>
<path d="M24.7722 27.0963H18.7055C18.3011 27.0963 17.9833 26.7785 17.9833 26.3741C17.9833 25.9696 18.3011 25.6519 18.7055 25.6519H24.7722C25.1766 25.6519 25.4944 25.9696 25.4944 26.3741C25.4944 26.7785 25.1622 27.0963 24.7722 27.0963Z" fill="#424F60"/>
<path d="M35.5044 24.4962H31.6911C30.6655 24.4962 29.8422 23.6729 29.8422 22.6473V18.834C29.8422 17.8084 30.6655 16.9851 31.6911 16.9851H35.5044C36.5299 16.9851 37.3533 17.8084 37.3533 18.834V22.6473C37.3533 23.6729 36.5299 24.4962 35.5044 24.4962ZM31.6911 18.4296C31.4744 18.4296 31.2866 18.6173 31.2866 18.834V22.6473C31.2866 22.864 31.4744 23.0518 31.6911 23.0518H35.5044C35.7211 23.0518 35.9088 22.864 35.9088 22.6473V18.834C35.9088 18.6173 35.7211 18.4296 35.5044 18.4296H31.6911Z" fill="#424F60"/>
<path d="M36.6311 27.0963H30.5644C30.1599 27.0963 29.8422 26.7785 29.8422 26.3741C29.8422 25.9696 30.1599 25.6519 30.5644 25.6519H36.6311C37.0355 25.6519 37.3533 25.9696 37.3533 26.3741C37.3533 26.7785 37.0355 27.0963 36.6311 27.0963Z" fill="#424F60"/>
<path d="M11.7656 35.9218H7.96669C6.94113 35.9218 6.1178 35.0984 6.1178 34.0729V30.2595C6.1178 29.234 6.94113 28.4106 7.96669 28.4106H11.78C12.8056 28.4106 13.6289 29.234 13.6289 30.2595V34.0729C13.6145 35.084 12.7911 35.9218 11.7656 35.9218ZM7.96669 29.8551C7.75002 29.8551 7.56224 30.0429 7.56224 30.2595V34.0729C7.56224 34.2895 7.75002 34.4773 7.96669 34.4773H11.78C11.9967 34.4773 12.1845 34.2895 12.1845 34.0729V30.2595C12.1845 30.0429 11.9967 29.8551 11.78 29.8551H7.96669Z" fill="#424F60"/>
<path d="M12.8989 38.5218H6.83221C6.42776 38.5218 6.10999 38.2041 6.10999 37.7996C6.10999 37.3952 6.42776 37.0774 6.83221 37.0774H12.8989C13.3033 37.0774 13.6211 37.3952 13.6211 37.7996C13.6211 38.2041 13.3033 38.5218 12.8989 38.5218Z" fill="#424F60"/>
<path d="M23.6455 35.9218H19.8322C18.8066 35.9218 17.9833 35.0984 17.9833 34.0729V30.2595C17.9833 29.234 18.8066 28.4106 19.8322 28.4106H23.6455C24.6711 28.4106 25.4944 29.234 25.4944 30.2595V34.0729C25.4944 35.084 24.6566 35.9218 23.6455 35.9218ZM19.8322 29.8551C19.6155 29.8551 19.4277 30.0429 19.4277 30.2595V34.0729C19.4277 34.2895 19.6155 34.4773 19.8322 34.4773H23.6455C23.8622 34.4773 24.0499 34.2895 24.0499 34.0729V30.2595C24.0499 30.0429 23.8622 29.8551 23.6455 29.8551H19.8322Z" fill="#424F60"/>
<path d="M24.7722 38.5218H18.7055C18.3011 38.5218 17.9833 38.2041 17.9833 37.7996C17.9833 37.3952 18.3011 37.0774 18.7055 37.0774H24.7722C25.1766 37.0774 25.4944 37.3952 25.4944 37.7996C25.4944 38.2041 25.1622 38.5218 24.7722 38.5218Z" fill="#424F60"/>
<path d="M35.5044 35.9218H31.6911C30.6655 35.9218 29.8422 35.0984 29.8422 34.0729V30.2595C29.8422 29.234 30.6655 28.4106 31.6911 28.4106H35.5044C36.5299 28.4106 37.3533 29.234 37.3533 30.2595V34.0729C37.3533 35.084 36.5299 35.9218 35.5044 35.9218ZM31.6911 29.8551C31.4744 29.8551 31.2866 30.0429 31.2866 30.2595V34.0729C31.2866 34.2895 31.4744 34.4773 31.6911 34.4773H35.5044C35.7211 34.4773 35.9088 34.2895 35.9088 34.0729V30.2595C35.9088 30.0429 35.7211 29.8551 35.5044 29.8551H31.6911Z" fill="#424F60"/>
<path d="M36.6311 38.5218H30.5644C30.1599 38.5218 29.8422 38.2041 29.8422 37.7996C29.8422 37.3952 30.1599 37.0774 30.5644 37.0774H36.6311C37.0355 37.0774 37.3533 37.3952 37.3533 37.7996C37.3533 38.2041 37.0355 38.5218 36.6311 38.5218Z" fill="#424F60"/>
</svg>
