<svg width="48" height="49" viewBox="0 0 48 49" fill="none" xmlns="http://www.w3.org/2000/svg">
<path d="M37.7057 13.5843C37.7028 13.5843 37.6999 13.5843 37.697 13.5842C37.2913 13.5805 36.8732 13.3356 36.4879 12.876C36.1552 12.479 35.564 12.4271 35.1672 12.7598C34.7704 13.0924 34.7183 13.6836 35.0509 14.0805C35.5466 14.6718 36.1307 15.0858 36.751 15.2973V16.436C36.751 16.9537 37.1708 17.3735 37.6885 17.3735C38.2062 17.3735 38.626 16.9537 38.626 16.436V15.3053C39.7055 14.932 40.5169 13.8998 40.5169 12.6467C40.5169 11.0958 39.2552 9.83416 37.7044 9.83416C37.1875 9.83416 36.7669 9.4136 36.7669 8.89666C36.7669 8.38385 37.1838 7.96338 37.6951 7.95916C37.6973 7.95916 37.6997 7.95907 37.7019 7.95907C38.0358 7.95907 38.3871 8.12847 38.7184 8.4491C39.0905 8.80938 39.6841 8.79963 40.0441 8.42744C40.4042 8.05535 40.3944 7.46191 40.0224 7.10182C39.5415 6.63635 39.0597 6.3746 38.626 6.23341V5.18604C38.626 4.66835 38.2062 4.24854 37.6885 4.24854C37.1708 4.24854 36.751 4.66835 36.751 5.18604V6.25179C35.669 6.6446 34.8919 7.68447 34.8919 8.89666C34.8919 10.4475 36.1536 11.7092 37.7044 11.7092C38.2214 11.7092 38.6419 12.1297 38.6419 12.6467C38.6418 13.1673 38.2197 13.5843 37.7057 13.5843Z" fill="#424F60"/>
<path d="M1.6005 5.84904L3.75 3.69944V42.8735H0.9375C0.419813 42.8735 0 43.2933 0 43.811C0 44.3287 0.419813 44.7485 0.9375 44.7485H3.75V47.561C3.75 48.0787 4.16981 48.4985 4.6875 48.4985C5.20519 48.4985 5.625 48.0787 5.625 47.561V44.7485H21.0938C21.6114 44.7485 22.0312 44.3287 22.0312 43.811C22.0312 43.2933 21.6114 42.8735 21.0938 42.8735H5.625V26.8405L14.685 20.0028L23.5177 25.3024C23.8865 25.5236 24.3588 25.4656 24.663 25.1614L31.0884 18.736C32.9373 20.2816 35.2472 21.1235 37.6875 21.1235C43.3738 21.1235 48 16.4973 48 10.811C48 5.12472 43.3739 0.498535 37.6875 0.498535C32.0011 0.498535 27.375 5.12472 27.375 10.811C27.375 13.2515 28.2171 15.5615 29.7624 17.4102L23.8547 23.318L15.1073 18.0696C14.7796 17.8729 14.3653 17.8949 14.0602 18.1253L5.625 24.4915V3.69944L7.77459 5.84904C8.14087 6.21513 8.73422 6.21503 9.1005 5.84904C9.46659 5.48294 9.46659 4.88932 9.1005 4.52313L5.3505 0.773129C4.98431 0.407129 4.39087 0.407129 4.02459 0.773129L0.274594 4.52313C-0.0915 4.88922 -0.0915 5.48285 0.274594 5.84904C0.640781 6.21503 1.23422 6.21503 1.6005 5.84904ZM29.25 10.811C29.25 6.1586 33.0351 2.37354 37.6875 2.37354C42.3399 2.37354 46.125 6.1586 46.125 10.811C46.125 15.4635 42.3399 19.2485 37.6875 19.2485C33.0251 19.2485 29.25 15.4764 29.25 10.811Z" fill="#424F60"/>
<path d="M43.9755 39.398C43.6093 39.032 43.0159 39.032 42.6496 39.398C42.2835 39.7641 42.2835 40.3578 42.6496 40.7239L44.7992 42.8734H29.5313C29.0136 42.8734 28.5938 43.2933 28.5938 43.8109C28.5938 44.3286 29.0136 44.7484 29.5313 44.7484H44.7991L42.6495 46.898C42.2834 47.2641 42.2834 47.8578 42.6495 48.2239C43.0158 48.59 43.6091 48.5899 43.9754 48.2239L47.7254 44.4739C48.0915 44.1078 48.0915 43.5142 47.7254 43.148L43.9755 39.398Z" fill="#424F60"/>
<path d="M10.3125 39.1235C10.8302 39.1235 11.25 38.7037 11.25 38.186V37.2485H12.1875C12.7052 37.2485 13.125 36.8287 13.125 36.311V28.2485C13.125 27.7308 12.7052 27.311 12.1875 27.311H11.25V26.3735C11.25 25.8558 10.8302 25.436 10.3125 25.436C9.79481 25.436 9.375 25.8558 9.375 26.3735V27.311H8.4375C7.91981 27.311 7.5 27.7308 7.5 28.2485V36.311C7.5 36.8287 7.91981 37.2485 8.4375 37.2485H9.375V38.186C9.375 38.7038 9.79481 39.1235 10.3125 39.1235ZM9.375 29.186H11.25V35.3735H9.375V29.186Z" fill="#424F60"/>
<path d="M19.6875 40.9985C20.2052 40.9985 20.625 40.5787 20.625 40.061V39.1235H21.5625C22.0802 39.1235 22.5 38.7037 22.5 38.186V30.1235C22.5 29.6058 22.0802 29.186 21.5625 29.186H20.625V28.2485C20.625 27.7308 20.2052 27.311 19.6875 27.311C19.1698 27.311 18.75 27.7308 18.75 28.2485V29.186H17.8125C17.2948 29.186 16.875 29.6058 16.875 30.1235V38.186C16.875 38.7037 17.2948 39.1235 17.8125 39.1235H18.75V40.061C18.75 40.5788 19.1698 40.9985 19.6875 40.9985ZM18.75 31.061H20.625V37.2485H18.75V31.061Z" fill="#424F60"/>
<path d="M29.0625 39.1235C29.5802 39.1235 30 38.7037 30 38.186V37.2485H30.9375C31.4552 37.2485 31.875 36.8287 31.875 36.311V28.2485C31.875 27.7308 31.4552 27.311 30.9375 27.311H30V26.3735C30 25.8558 29.5802 25.436 29.0625 25.436C28.5448 25.436 28.125 25.8558 28.125 26.3735V27.311H27.1875C26.6698 27.311 26.25 27.7308 26.25 28.2485V36.311C26.25 36.8287 26.6698 37.2485 27.1875 37.2485H28.125V38.186C28.125 38.7038 28.5448 39.1235 29.0625 39.1235ZM28.125 29.186H30V35.3735H28.125V29.186Z" fill="#424F60"/>
<path d="M38.4375 37.2485C38.9552 37.2485 39.375 36.8287 39.375 36.311V35.3735H40.3125C40.8302 35.3735 41.25 34.9537 41.25 34.436V26.3735C41.25 25.8558 40.8302 25.436 40.3125 25.436H39.375V24.4985C39.375 23.9808 38.9552 23.561 38.4375 23.561C37.9198 23.561 37.5 23.9808 37.5 24.4985V25.436H36.5625C36.0448 25.436 35.625 25.8558 35.625 26.3735V34.436C35.625 34.9537 36.0448 35.3735 36.5625 35.3735H37.5V36.311C37.5 36.8288 37.9198 37.2485 38.4375 37.2485ZM37.5 27.311H39.375V33.4985H37.5V27.311Z" fill="#424F60"/>
<path d="M25.3125 44.7485C25.8303 44.7485 26.25 44.3288 26.25 43.811C26.25 43.2933 25.8303 42.8735 25.3125 42.8735C24.7947 42.8735 24.375 43.2933 24.375 43.811C24.375 44.3288 24.7947 44.7485 25.3125 44.7485Z" fill="#424F60"/>
</svg>
