<svg width="106" height="28" viewBox="0 0 106 28" fill="none" xmlns="http://www.w3.org/2000/svg">
<g clip-path="url(#clip0_238_12867)">
<path d="M26.4268 4.22259V13.2136C26.4268 15.4389 25.4068 18.0219 23.5555 20.4867C21.398 23.3585 18.22 25.8934 14.365 27.8173L13.9985 28L13.6321 27.8173C9.77704 25.8934 6.59903 23.3585 4.44152 20.4867C2.59027 18.0219 1.57031 15.4389 1.57031 13.2136V4.22259L7.6168 0H20.3803L26.4268 4.22259Z" fill="#333333"/>
<path d="M26.4282 4.22259V13.2136C26.4282 15.4389 25.4083 18.0219 23.557 20.4867C21.3995 23.3585 18.2215 25.8934 14.3664 27.8173L14 28V0H20.3817L26.4282 4.22259Z" fill="#111111"/>
<path d="M19.3476 3.28125H8.64921L4.85156 5.93315V13.2134C4.85156 15.7155 7.31314 20.6047 13.9984 24.3034C20.6837 20.6047 23.1452 15.7155 23.1452 13.2134V5.93315L19.3476 3.28125Z" fill="#AD9575"/>
<path d="M23.1468 5.93315V13.2134C23.1468 15.7155 20.6853 20.6047 14 24.3034V3.28125H19.3492L23.1468 5.93315Z" fill="#917D63"/>
<path d="M19.6058 2.46094H8.39111L4.03125 5.50551V13.2135C4.03125 14.8137 4.84175 16.847 6.25438 18.7918C7.97437 21.1599 10.5147 23.3141 13.6014 25.0215L13.9984 25.2414L14.3955 25.0215C17.4822 23.3141 20.0225 21.1599 21.7425 18.7918C23.1551 16.847 23.9656 14.8137 23.9656 13.2135V5.50551L19.6058 2.46094ZM22.3249 13.2135C22.3249 15.3961 20.0985 19.8528 13.9984 23.3617C7.89835 19.8528 5.67194 15.3961 5.67194 13.2135V6.36086L8.90738 4.10163H19.0895L22.3249 6.36086V13.2135Z" fill="#EFF5FA"/>
<path d="M23.9672 5.50551V13.2135C23.9672 14.8137 23.1567 16.847 21.7441 18.7918C20.0241 21.1599 17.4837 23.3141 14.397 25.0215L14 25.2414V23.3617C20.1001 19.8528 22.3265 15.3961 22.3265 13.2135V6.36086L19.0911 4.10163H14V2.46094H19.6073L23.9672 5.50551Z" fill="#C6E1EC"/>
<path d="M19.232 9.52936L13.9949 14.9119L13.984 14.9234L12.6523 16.2917L8.75781 12.6494L9.8784 11.4512L12.5976 13.9948L13.984 12.5707L13.9949 12.5592L18.0561 8.38525L19.232 9.52936Z" fill="#EFF5FA"/>
<path d="M19.2371 9.52936L14 14.9119V12.5592L18.0613 8.38525L19.2371 9.52936Z" fill="#C6E1EC"/>
</g>
<path d="M41.46 9.216L43.272 3.456H45.324V12H43.98V7.596L44.1 4.74L43.5 6.768L41.868 12H40.416L38.688 6.636L38.112 4.692L38.232 7.596V12H36.9V3.456H38.94L40.812 9.216L41.136 10.5L41.46 9.216ZM52.0028 11.256C51.4268 11.872 50.6868 12.18 49.7828 12.18C48.8708 12.18 48.1348 11.876 47.5748 11.268C46.9988 10.652 46.7108 9.868 46.7108 8.916C46.7108 7.948 46.9988 7.16 47.5748 6.552C48.1508 5.952 48.8948 5.652 49.8068 5.652C50.7108 5.652 51.4468 5.952 52.0148 6.552C52.5828 7.16 52.8668 7.94 52.8668 8.892C52.8668 9.86 52.5788 10.648 52.0028 11.256ZM49.7828 11.052C50.3108 11.052 50.7268 10.856 51.0308 10.464C51.3428 10.072 51.4988 9.548 51.4988 8.892C51.4988 8.236 51.3468 7.72 51.0428 7.344C50.7388 6.968 50.3188 6.78 49.7828 6.78C49.2548 6.78 48.8388 6.972 48.5348 7.356C48.2388 7.74 48.0908 8.26 48.0908 8.916C48.0908 9.564 48.2428 10.084 48.5468 10.476C48.8508 10.86 49.2628 11.052 49.7828 11.052ZM57.4718 5.652C58.1198 5.652 58.6238 5.84 58.9838 6.216C59.3518 6.592 59.5358 7.112 59.5358 7.776V12H58.1318V8.076C58.1318 7.292 57.7758 6.9 57.0638 6.9C56.6238 6.9 56.2678 7.052 55.9958 7.356C55.7238 7.652 55.5878 8.076 55.5878 8.628V12H54.1838V5.808H55.5278L55.5518 6.672C55.9838 5.992 56.6238 5.652 57.4718 5.652ZM66.867 8.94V9.288H62.295C62.327 9.856 62.487 10.296 62.775 10.608C63.071 10.912 63.467 11.064 63.963 11.064C64.675 11.064 65.155 10.728 65.403 10.056L66.747 10.176C66.555 10.824 66.215 11.32 65.727 11.664C65.247 12.008 64.659 12.18 63.963 12.18C63.003 12.18 62.247 11.872 61.695 11.256C61.143 10.648 60.867 9.856 60.867 8.88C60.867 7.936 61.135 7.16 61.671 6.552C62.215 5.952 62.943 5.652 63.855 5.652C64.759 5.652 65.487 5.944 66.039 6.528C66.591 7.12 66.867 7.924 66.867 8.94ZM64.971 7.14C64.699 6.868 64.339 6.732 63.891 6.732C63.435 6.732 63.071 6.868 62.799 7.14C62.511 7.42 62.347 7.812 62.307 8.316H65.463C65.399 7.796 65.235 7.404 64.971 7.14ZM70.4839 10.512L72.0319 5.808H73.5079L70.8319 13.152C70.6639 13.64 70.4479 13.976 70.1839 14.16C69.9279 14.352 69.5679 14.448 69.1039 14.448H68.0359V13.26H68.7439C69.0079 13.26 69.2079 13.212 69.3439 13.116C69.4799 13.02 69.5959 12.844 69.6919 12.588L69.8599 12.132L67.4119 5.808H68.9479L70.3159 9.672L70.4839 10.512ZM77.7061 9.42H74.3461V8.184H77.7061V9.42ZM82.3847 5.664C83.1367 5.664 83.7607 5.948 84.2567 6.516C84.7447 7.084 84.9887 7.852 84.9887 8.82C84.9887 9.812 84.7447 10.616 84.2567 11.232C83.7687 11.856 83.1167 12.168 82.3007 12.168C81.4687 12.168 80.8367 11.824 80.4047 11.136L80.3807 12H79.1447V3.456H80.5487V6.492C80.9727 5.94 81.5847 5.664 82.3847 5.664ZM82.0607 10.944C82.5247 10.944 82.8967 10.752 83.1767 10.368C83.4647 9.976 83.6087 9.46 83.6087 8.82C83.6087 8.204 83.4687 7.72 83.1887 7.368C82.9167 7.016 82.5407 6.84 82.0607 6.84C81.5887 6.84 81.2087 7.016 80.9207 7.368C80.6247 7.72 80.4767 8.216 80.4767 8.856C80.4767 9.496 80.6247 10 80.9207 10.368C81.2087 10.752 81.5887 10.944 82.0607 10.944ZM91.6328 12H90.2168C90.1368 11.672 90.0848 11.432 90.0608 11.28C89.5888 11.872 88.9128 12.168 88.0328 12.168C87.3848 12.168 86.8688 12.004 86.4848 11.676C86.1088 11.34 85.9208 10.888 85.9208 10.32C85.9208 9.28 86.5848 8.648 87.9128 8.424L89.8448 8.1C89.8768 8.092 89.9328 8.076 90.0128 8.052V7.512C90.0128 6.968 89.6048 6.696 88.7888 6.696C88.3968 6.696 88.1008 6.772 87.9008 6.924C87.7008 7.076 87.5808 7.32 87.5408 7.656L86.2208 7.644C86.3408 6.316 87.2088 5.652 88.8248 5.652C90.5288 5.652 91.3808 6.364 91.3808 7.788V10.572C91.3808 11.036 91.4648 11.512 91.6328 12ZM88.3808 11.112C88.8448 11.112 89.2328 10.976 89.5448 10.704C89.8568 10.432 90.0128 10.092 90.0128 9.684V9.036L88.2968 9.336C87.6328 9.456 87.3008 9.76 87.3008 10.248C87.3008 10.52 87.3968 10.732 87.5888 10.884C87.7808 11.036 88.0448 11.112 88.3808 11.112ZM95.6231 12.18C94.7111 12.18 93.9951 11.892 93.4751 11.316C92.9551 10.74 92.6951 9.948 92.6951 8.94C92.6951 7.924 92.9591 7.124 93.4871 6.54C94.0151 5.948 94.7351 5.652 95.6471 5.652C96.4071 5.652 97.0271 5.848 97.5071 6.24C97.9871 6.632 98.2831 7.188 98.3951 7.908H97.0391C96.8631 7.156 96.4071 6.78 95.6711 6.78C95.1511 6.78 94.7551 6.964 94.4831 7.332C94.2111 7.692 94.0751 8.22 94.0751 8.916C94.0751 9.596 94.2111 10.124 94.4831 10.5C94.7631 10.868 95.1551 11.052 95.6591 11.052C96.4031 11.052 96.8631 10.652 97.0391 9.852H98.3951C98.2751 10.596 97.9751 11.172 97.4951 11.58C97.0151 11.98 96.3911 12.18 95.6231 12.18ZM105.352 12H103.696L101.824 9.036L101.068 9.768V12H99.6642V3.456H101.068V8.28L103.48 5.808H105.244L102.796 8.172L105.352 12ZM41.076 19.684L41.1 18.808H42.372V24.94C42.372 25.812 42.116 26.472 41.604 26.92C41.092 27.368 40.372 27.592 39.444 27.592C38.628 27.592 37.984 27.424 37.512 27.088C37.048 26.76 36.78 26.276 36.708 25.636H38.028C38.148 26.228 38.616 26.524 39.432 26.524C39.976 26.524 40.368 26.4 40.608 26.152C40.856 25.912 40.98 25.528 40.98 25V24.184C40.548 24.768 39.944 25.06 39.168 25.06C38.368 25.06 37.724 24.756 37.236 24.148C36.74 23.54 36.492 22.756 36.492 21.796C36.492 20.844 36.74 20.084 37.236 19.516C37.732 18.948 38.372 18.664 39.156 18.664C40.028 18.664 40.668 19.004 41.076 19.684ZM39.42 23.86C39.884 23.86 40.264 23.672 40.56 23.296C40.856 22.92 41.004 22.424 41.004 21.808C41.004 21.176 40.86 20.688 40.572 20.344C40.268 19.992 39.884 19.816 39.42 19.816C38.948 19.816 38.572 19.992 38.292 20.344C38.012 20.696 37.872 21.18 37.872 21.796C37.872 22.428 38.012 22.932 38.292 23.308C38.572 23.676 38.948 23.86 39.42 23.86ZM47.9833 22.18V18.808H49.3873V25H48.0433L48.0193 24.136C47.5873 24.816 46.9473 25.156 46.0993 25.156C45.4513 25.156 44.9433 24.968 44.5753 24.592C44.2153 24.216 44.0353 23.696 44.0353 23.032V18.808H45.4393V22.732C45.4393 23.516 45.7953 23.908 46.5073 23.908C46.9473 23.908 47.3033 23.76 47.5753 23.464C47.8473 23.16 47.9833 22.732 47.9833 22.18ZM56.3946 25H54.9786C54.8986 24.672 54.8466 24.432 54.8226 24.28C54.3506 24.872 53.6746 25.168 52.7946 25.168C52.1466 25.168 51.6306 25.004 51.2466 24.676C50.8706 24.34 50.6826 23.888 50.6826 23.32C50.6826 22.28 51.3466 21.648 52.6746 21.424L54.6066 21.1C54.6386 21.092 54.6946 21.076 54.7746 21.052V20.512C54.7746 19.968 54.3666 19.696 53.5506 19.696C53.1586 19.696 52.8626 19.772 52.6626 19.924C52.4626 20.076 52.3426 20.32 52.3026 20.656L50.9826 20.644C51.1026 19.316 51.9706 18.652 53.5866 18.652C55.2906 18.652 56.1426 19.364 56.1426 20.788V23.572C56.1426 24.036 56.2266 24.512 56.3946 25ZM53.1426 24.112C53.6066 24.112 53.9946 23.976 54.3066 23.704C54.6186 23.432 54.7746 23.092 54.7746 22.684V22.036L53.0586 22.336C52.3946 22.456 52.0626 22.76 52.0626 23.248C52.0626 23.52 52.1586 23.732 52.3506 23.884C52.5426 24.036 52.8066 24.112 53.1426 24.112ZM60.8408 18.616C60.9768 18.616 61.1088 18.628 61.2368 18.652V19.984C60.9968 19.968 60.8728 19.96 60.8648 19.96C60.3688 19.96 59.9688 20.124 59.6648 20.452C59.3688 20.772 59.2168 21.224 59.2088 21.808V25H57.8048V18.808H59.1488L59.1248 19.936C59.4528 19.056 60.0248 18.616 60.8408 18.616ZM67.5157 25H66.0997C66.0197 24.672 65.9677 24.432 65.9437 24.28C65.4717 24.872 64.7957 25.168 63.9157 25.168C63.2677 25.168 62.7517 25.004 62.3677 24.676C61.9917 24.34 61.8037 23.888 61.8037 23.32C61.8037 22.28 62.4677 21.648 63.7957 21.424L65.7277 21.1C65.7597 21.092 65.8157 21.076 65.8957 21.052V20.512C65.8957 19.968 65.4877 19.696 64.6717 19.696C64.2797 19.696 63.9837 19.772 63.7837 19.924C63.5837 20.076 63.4637 20.32 63.4237 20.656L62.1037 20.644C62.2237 19.316 63.0917 18.652 64.7077 18.652C66.4117 18.652 67.2637 19.364 67.2637 20.788V23.572C67.2637 24.036 67.3477 24.512 67.5157 25ZM64.2637 24.112C64.7277 24.112 65.1157 23.976 65.4277 23.704C65.7397 23.432 65.8957 23.092 65.8957 22.684V22.036L64.1797 22.336C63.5157 22.456 63.1837 22.76 63.1837 23.248C63.1837 23.52 63.2797 23.732 63.4717 23.884C63.6637 24.036 63.9277 24.112 64.2637 24.112ZM72.2139 18.652C72.8619 18.652 73.3659 18.84 73.7259 19.216C74.0939 19.592 74.2779 20.112 74.2779 20.776V25H72.8739V21.076C72.8739 20.292 72.5179 19.9 71.8059 19.9C71.3659 19.9 71.0099 20.052 70.7379 20.356C70.4659 20.652 70.3299 21.076 70.3299 21.628V25H68.9259V18.808H70.2699L70.2939 19.672C70.7259 18.992 71.3659 18.652 72.2139 18.652ZM79.0052 19.864L77.7332 19.816V23.26C77.7332 23.484 77.7772 23.64 77.8652 23.728C77.9532 23.816 78.1052 23.86 78.3212 23.86H79.0052V25H77.8892C77.3372 25 76.9372 24.88 76.6892 24.64C76.4492 24.392 76.3292 23.992 76.3292 23.44V19.828L75.4412 19.864V18.808L76.3292 18.844V16.9H77.7332V18.844L79.0052 18.808V19.864ZM85.7928 21.94V22.288H81.2208C81.2528 22.856 81.4128 23.296 81.7008 23.608C81.9968 23.912 82.3928 24.064 82.8888 24.064C83.6008 24.064 84.0808 23.728 84.3288 23.056L85.6728 23.176C85.4808 23.824 85.1408 24.32 84.6528 24.664C84.1728 25.008 83.5848 25.18 82.8888 25.18C81.9288 25.18 81.1728 24.872 80.6208 24.256C80.0688 23.648 79.7928 22.856 79.7928 21.88C79.7928 20.936 80.0608 20.16 80.5968 19.552C81.1408 18.952 81.8688 18.652 82.7808 18.652C83.6848 18.652 84.4128 18.944 84.9648 19.528C85.5168 20.12 85.7928 20.924 85.7928 21.94ZM83.8968 20.14C83.6248 19.868 83.2648 19.732 82.8168 19.732C82.3608 19.732 81.9968 19.868 81.7248 20.14C81.4368 20.42 81.2728 20.812 81.2328 21.316H84.3888C84.3248 20.796 84.1608 20.404 83.8968 20.14ZM92.7654 21.94V22.288H88.1934C88.2254 22.856 88.3854 23.296 88.6734 23.608C88.9694 23.912 89.3654 24.064 89.8614 24.064C90.5734 24.064 91.0534 23.728 91.3014 23.056L92.6454 23.176C92.4534 23.824 92.1134 24.32 91.6254 24.664C91.1454 25.008 90.5574 25.18 89.8614 25.18C88.9014 25.18 88.1454 24.872 87.5934 24.256C87.0414 23.648 86.7654 22.856 86.7654 21.88C86.7654 20.936 87.0334 20.16 87.5694 19.552C88.1134 18.952 88.8414 18.652 89.7534 18.652C90.6574 18.652 91.3854 18.944 91.9374 19.528C92.4894 20.12 92.7654 20.924 92.7654 21.94ZM90.8694 20.14C90.5974 19.868 90.2374 19.732 89.7894 19.732C89.3334 19.732 88.9694 19.868 88.6974 20.14C88.4094 20.42 88.2454 20.812 88.2054 21.316H91.3614C91.2974 20.796 91.1334 20.404 90.8694 20.14Z" fill="#333333"/>
<defs>
<clipPath id="clip0_238_12867">
<rect width="28" height="28" fill="white"/>
</clipPath>
</defs>
</svg>
